<?xml version="1.0" standalone="no"?>
<!DOCTYPE svg PUBLIC "-//W3C//DTD SVG 20010904//EN"
 "http://www.w3.org/TR/2001/REC-SVG-20010904/DTD/svg10.dtd">
<svg version="1.0" xmlns="http://www.w3.org/2000/svg"
 width="700.000000pt" height="700.000000pt" viewBox="0 0 700.000000 700.000000"
 preserveAspectRatio="xMidYMid meet">
<metadata>
Created by potrace 1.14, written by Peter Selinger 2001-2017
</metadata>
<g transform="translate(0.000000,700.000000) scale(0.100000,-0.100000)"
fill="#000000" stroke="none">
<path d="M3440 6469 c-179 -19 -345 -139 -425 -304 -104 -219 -63 -460 109
-631 176 -175 427 -214 646 -98 177 93 290 279 290 478 0 163 -49 285 -160
396 -125 125 -278 178 -460 159z m115 -370 c86 -24 137 -91 137 -179 -1 -59
-19 -97 -66 -138 -114 -100 -296 -13 -296 142 0 83 51 151 131 174 46 14 48
14 94 1z"/>
<path d="M1300 4950 l0 -730 185 0 185 0 0 550 0 550 550 0 550 0 0 180 0 180
-735 0 -735 0 0 -730z"/>
<path d="M4250 5500 l0 -180 550 0 550 0 0 -645 0 -645 -187 0 -188 0 278
-277 277 -278 277 278 278 277 -188 0 -187 0 0 825 0 825 -730 0 -730 0 0
-180z"/>
<path d="M2222 4768 l3 -183 1288 -3 1287 -2 0 185 0 185 -1290 0 -1290 0 2
-182z"/>
<path d="M2381 4194 c-60 -16 -112 -50 -139 -92 -14 -21 -17 -49 -17 -142 l0
-115 368 -3 367 -2 0 -943 c0 -648 -4 -954 -11 -981 -16 -58 -58 -96 -106 -96
-58 0 -200 90 -321 204 l-53 50 -129 -129 -130 -129 43 -44 c102 -105 298
-240 462 -318 316 -150 480 -150 557 0 54 104 52 48 55 1454 l4 1302 -448 -1
c-360 0 -459 -3 -502 -15z"/>
<path d="M3702 2883 l3 -1328 23 -58 c46 -112 108 -156 221 -157 120 0 374
104 576 237 84 56 285 219 285 232 0 4 -57 64 -128 134 l-127 127 -75 -65
c-41 -36 -113 -91 -159 -122 -122 -81 -189 -82 -235 -3 -21 35 -21 47 -24 997
l-2 963 367 2 368 3 3 95 c2 52 -2 111 -7 131 -16 54 -65 96 -139 119 -60 19
-94 20 -508 20 l-444 0 2 -1327z"/>
<path d="M1217 3753 l-269 -273 179 -2 178 -3 6 -310 c5 -228 11 -335 24 -405
43 -238 115 -455 216 -651 l51 -100 32 19 c17 10 88 51 157 91 l127 74 -59
121 c-140 290 -188 540 -189 973 l0 193 184 2 184 3 -276 271 -277 270 -268
-273z"/>
<path d="M5350 3133 c-1 -315 -53 -551 -186 -832 -30 -63 -53 -115 -52 -116
28 -19 310 -176 312 -174 2 2 29 54 59 114 160 321 237 657 237 1031 l0 134
-185 0 -185 0 0 -157z"/>
<path d="M1817 1422 l-129 -129 59 -56 c302 -288 709 -512 1122 -617 250 -64
448 -85 721 -77 254 8 436 36 657 103 381 115 720 310 1033 594 l55 50 -129
129 -130 130 -58 -52 c-313 -276 -579 -422 -964 -528 -331 -91 -452 -155 -515
-274 -27 -51 -34 -55 -43 -20 -3 13 -31 51 -61 83 -84 91 -185 135 -546 236
-313 87 -619 260 -863 486 -42 38 -77 70 -79 70 -1 0 -60 -58 -130 -128z"/>
</g>
</svg>
