<?xml version="1.0" encoding="utf-8"?>
<!-- Generator: Adobe Illustrator 28.0.0, SVG Export Plug-In . SVG Version: 6.00 Build 0)  -->
<svg version="1.1" id="Capa_1" xmlns="http://www.w3.org/2000/svg" xmlns:xlink="http://www.w3.org/1999/xlink" x="0px" y="0px"
	 viewBox="0 0 134 91" style="enable-background:new 0 0 134 91;" xml:space="preserve">
<style type="text/css">
	.st0{clip-path:url(#SVGID_00000135684436131113429810000009286686210140331687_);}
	.st1{fill:#96262C;}
</style>
<g>
	<defs>
		<rect id="SVGID_1_" x="29" y="4.6" width="83.2" height="84"/>
	</defs>
	<clipPath id="SVGID_00000015344921386231015740000008512334797947244990_">
		<use xlink:href="#SVGID_1_"  style="overflow:visible;"/>
	</clipPath>
	<g style="clip-path:url(#SVGID_00000015344921386231015740000008512334797947244990_);">
		<path class="st1" d="M67.4,13.2c0.1-0.5,0.1-0.9,0.1-1.4c0-0.5-0.1-1-0.1-1.4h4.7c1.6,0,2.9,1.3,2.9,2.8v19.2
			c-1,0.4-2,0.8-2.9,1.3V13.2H67.4z M47.7,24.6h20.1c0.8,0,1.4-0.6,1.4-1.4c0-0.8-0.6-1.4-1.4-1.4H47.7c-0.8,0-1.4,0.6-1.4,1.4
			C46.3,23.9,46.9,24.6,47.7,24.6L47.7,24.6z M47.7,30.3h11.5c0.8,0,1.4-0.6,1.4-1.4c0-0.8-0.6-1.4-1.4-1.4H47.7
			c-0.8,0-1.4,0.6-1.4,1.4C46.3,29.6,46.9,30.3,47.7,30.3z M33.7,25c-0.6,0.6-0.6,1.5,0,2l2.9,2.8c0.3,0.3,0.6,0.4,1,0.4
			c0,0,0.1,0,0.1,0c0.4,0,0.8-0.2,1-0.5l4.5-5.7c0.5-0.6,0.4-1.5-0.2-2c-0.6-0.5-1.5-0.4-2,0.2l-3.5,4.4L35.8,25
			C35.2,24.4,34.3,24.4,33.7,25z M47.7,41.6h19.7l-1-1L65.7,40l0.4-0.9c0-0.1,0.1-0.2,0.1-0.3H47.7c-0.8,0-1.4,0.6-1.4,1.4
			S46.9,41.6,47.7,41.6L47.7,41.6z M47.7,47.3h11.5c0.8,0,1.4-0.6,1.4-1.4c0-0.8-0.6-1.4-1.4-1.4H47.7c-0.8,0-1.4,0.6-1.4,1.4
			C46.3,46.7,46.9,47.3,47.7,47.3z M43.1,39.1c-0.6-0.5-1.5-0.4-2,0.2l-3.5,4.4l-1.7-1.7c-0.6-0.6-1.5-0.6-2,0c-0.6,0.6-0.6,1.5,0,2
			l2.9,2.8c0.3,0.3,0.6,0.4,1,0.4c0,0,0.1,0,0.1,0c0.4,0,0.8-0.2,1-0.5l4.5-5.7C43.8,40.5,43.7,39.6,43.1,39.1z M69.3,57.3
			c0-0.8-0.6-1.4-1.4-1.4H47.7c-0.8,0-1.4,0.6-1.4,1.4c0,0.8,0.6,1.4,1.4,1.4h20.1C68.6,58.7,69.3,58.1,69.3,57.3L69.3,57.3z
			 M47.7,61.6c-0.8,0-1.4,0.6-1.4,1.4c0,0.8,0.6,1.4,1.4,1.4h11.5c0.8,0,1.4-0.6,1.4-1.4c0-0.8-0.6-1.4-1.4-1.4H47.7z M41,56.4
			l-3.5,4.4l-1.7-1.7c-0.6-0.6-1.5-0.6-2,0c-0.6,0.6-0.6,1.5,0,2l2.9,2.8c0.3,0.3,0.6,0.4,1,0.4c0,0,0.1,0,0.1,0
			c0.4,0,0.8-0.2,1-0.5l4.5-5.7c0.5-0.6,0.4-1.5-0.2-2C42.4,55.7,41.5,55.8,41,56.4z M39.4,12.4c-0.1-0.2-0.1-0.4-0.1-0.7
			c0-0.5,0.1-1,0.2-1.4c0,0,0-0.1,0-0.1c0,0,0,0,0-0.1c0-0.1,0.1-0.1,0.1-0.2c0-0.1,0.1-0.1,0.1-0.2c0.1-0.2,0.1-0.3,0.3-0.5
			c0,0,0,0,0-0.1c0.1-0.2,0.3-0.4,0.4-0.5c0.1-0.2,0.3-0.3,0.5-0.5c0.1-0.1,0.2-0.1,0.3-0.2c0.2-0.1,0.3-0.2,0.5-0.3
			c0.2-0.1,0.4-0.2,0.6-0.2c0.1,0,0.1,0,0.2,0c0.3-0.1,0.5-0.1,0.7-0.1H47c1-1.7,2.8-2.8,5-2.8c2.1,0,4,1.1,5,2.8h3.7
			c0.3,0,0.5,0,0.7,0.1c0.1,0,0.1,0,0.2,0c0.2,0.1,0.4,0.1,0.6,0.2c0.2,0.1,0.4,0.2,0.5,0.3C62.9,8.2,63,8.2,63,8.3
			c0.2,0.1,0.3,0.3,0.5,0.5c0.2,0.2,0.3,0.3,0.4,0.5c0,0,0,0,0,0.1c0.1,0.1,0.2,0.3,0.3,0.5c0,0.1,0.1,0.1,0.1,0.2
			c0,0.1,0.1,0.1,0.1,0.2c0,0,0,0,0,0.1c0,0,0,0.1,0,0.1c0.1,0.5,0.2,0.9,0.2,1.4c0,0.3,0,0.6-0.1,0.9c0,0.1,0,0.2-0.1,0.3
			c0,0.1,0,0.1,0,0.2c0,0.1-0.1,0.2-0.1,0.3c-0.1,0.4-0.3,0.7-0.5,1c-0.1,0.1-0.2,0.3-0.3,0.3c-0.1,0.1-0.2,0.2-0.3,0.3
			c-0.1,0.1-0.2,0.1-0.3,0.2c-0.1,0.1-0.1,0.1-0.2,0.1c-0.1,0.1-0.2,0.1-0.3,0.2c-0.1,0.1-0.1,0.1-0.2,0.1h0c0,0,0,0-0.1,0h0
			c-0.5,0.2-1,0.3-1.6,0.3H43.4c-0.6,0-1.1-0.1-1.6-0.3c-0.2-0.1-0.4-0.2-0.6-0.3c-0.1,0-0.1-0.1-0.2-0.1c-0.2-0.1-0.4-0.3-0.5-0.5
			c-0.1-0.1-0.3-0.2-0.3-0.3c-0.2-0.3-0.4-0.6-0.5-1c-0.1-0.1-0.1-0.2-0.1-0.3c0-0.1-0.1-0.3-0.1-0.4v-0.1
			C39.4,12.6,39.4,12.5,39.4,12.4L39.4,12.4z M43.4,10.3c-1.6,0-1.6,2.8,0,2.8h17.3c1.6,0,1.6-2.8,0-2.8h-5.8c0-1.6-1.3-2.8-2.9-2.8
			c-1.6,0-2.9,1.3-2.9,2.8H43.4z M112.2,78.4v5.9c0,0.7-0.5,1.3-1.1,1.4c-7.9,1.7-15.9,2.7-24,2.9c-1.2,0-2.3,0.1-3.4,0.1
			c-1.2,0-2.3,0-3.4-0.1c-8-0.2-16.1-1.2-24-2.9c-0.7-0.1-1.1-0.7-1.1-1.4v-5.9c0-2,0.5-3.8,1.4-5.4H31.9c-1.6,0-2.9-1.3-2.9-2.8
			V13.2c0-1.6,1.3-2.8,2.9-2.8h4.7c-0.1,0.5-0.1,0.9-0.1,1.4c0,0.5,0.1,1,0.1,1.4h-4.7v56.9h27c1.3-1.2,3-2.1,4.8-2.6
			c1.8-0.5,3.4-0.7,5-1c1.2-0.2,2.4-0.4,3.5-0.7v-9.7c0,0,0.1,0.1,0.1,0.1c0.7,1.8,1.7,3.3,2.8,4.6v3.6c0.3-0.4,0.4-0.9,0.4-1.5
			v-1.6c0.4,0.5,0.9,0.9,1.4,1.3c0.4,0.4,0.9,0.7,1.4,1c-0.2,1.9-1.5,3.6-3.3,4.3c-0.1,0-0.1,0-0.1,0.1c-0.9,0.3-1.8,0.6-2.7,0.8
			c-1,0.2-2,0.4-3,0.5c-1.4,0.2-2.8,0.5-4.2,0.8c-0.2,0-0.4,0.1-0.6,0.1c-1.8,0.5-3.3,1.4-4.3,2.7c-1.3,1.5-2,3.4-2,5.4v4.8
			c6.8,1.4,13.8,2.3,20.8,2.5v-9.4c0-1.6,0.5-3.2,1.5-4.4l0.9-1.2L80.8,70c-1-1.4-2-3-2-4.6c0-0.5,0.1-0.9,0.3-1.3
			c0.4,0.2,0.9,0.4,1.4,0.5c0.5,0.2,1.1,0.3,1.7,0.4c-0.3,0.1-0.5,0.3-0.5,0.4c0,0.7,0.9,2,1.6,3l0.3,0.5c0,0,0.1,0.1,0.1,0.1
			c0,0,0.1-0.1,0.1-0.1l0.3-0.5c0.7-1,1.6-2.3,1.6-3c0-0.1-0.2-0.3-0.5-0.4c0.6-0.1,1.1-0.2,1.7-0.4c0.5-0.1,0.9-0.3,1.4-0.5
			c0.2,0.4,0.3,0.8,0.3,1.3c0,1.6-1.1,3.2-2,4.6l-0.3,0.5l0.9,1.4c1,1.3,1.5,2.8,1.5,4.4v9.4c7-0.2,14-1.1,20.8-2.5v-4.8
			c0-3.8-2.6-7.2-6.4-8.1c-1.6-0.5-3.3-0.7-4.8-1c-2-0.3-3.9-0.7-5.7-1.3c-1.9-0.7-3.2-2.4-3.4-4.4c0.5-0.3,1-0.6,1.4-1
			c0.5-0.4,1-0.9,1.4-1.3v1.6c0,1.1,0.6,2.1,1.6,2.4c1.5,0.5,3.3,0.8,5.2,1.1c1.6,0.3,3.3,0.5,5,1C108.7,68.8,112.2,73.3,112.2,78.4
			L112.2,78.4z M82.6,73.5c-0.6,0.8-0.9,1.8-0.9,2.8v9.5c1.3,0,2.6,0,3.9,0v-9.5c0-1-0.3-2-0.9-2.7v0l-0.9-1.3
			c-0.1-0.1-0.1-0.1-0.1-0.2c-0.1,0.1-0.1,0.2-0.2,0.3L82.6,73.5z M70.8,51.3c0.3,1.3,0.7,2.4,1.4,3.1c0.2,0.2,0.3,0.3,0.5,0.4
			c0.2,0.1,0.3,0.2,0.5,0.2h0.1c0.3,0.7,0.5,1.4,0.9,2.1c0.2,0.5,0.5,1,0.8,1.4c0.1,0.2,0.3,0.4,0.4,0.6c0.4,0.6,0.9,1.2,1.4,1.7
			c0.2,0.2,0.4,0.3,0.5,0.5c0.2,0.2,0.4,0.3,0.6,0.5c0.1,0.1,0.2,0.1,0.3,0.2c0.3,0.2,0.5,0.4,0.9,0.5c0.3,0.2,0.6,0.3,0.9,0.5
			c0.6,0.3,1.3,0.5,1.9,0.6h0c0.5,0.1,1.1,0.2,1.6,0.2c0.5,0,1.1-0.1,1.6-0.2h0c0.7-0.1,1.3-0.3,1.9-0.6c0.3-0.1,0.6-0.3,0.9-0.5
			c0.3-0.1,0.6-0.3,0.9-0.5c0.1-0.1,0.2-0.1,0.3-0.2c0.2-0.2,0.4-0.3,0.6-0.5c0.2-0.1,0.4-0.3,0.5-0.5c0.5-0.5,1-1.1,1.4-1.7
			c0.3-0.5,0.6-0.9,0.9-1.4c0.2-0.3,0.3-0.5,0.4-0.8c0.3-0.6,0.5-1.2,0.8-1.8h0.1c1,0,2-1.7,2.4-3.7c0.5-2.1,0.1-3.8-1-4h-0.1
			c-0.1,0-0.3,0.1-0.4,0.1c0-0.7-0.1-1.4-0.2-2.1L94.5,45c-0.1-0.1-0.2-0.2-0.3-0.2c-0.3,0.1-0.6,0.2-0.9,0.4h0
			c-0.4,0.2-0.9,0.3-1.4,0.5c0.1,0.7,0.2,1.3,0.2,1.9c0.1,0.9,0.5,1.7,1.2,2.1c0.1,0.1,0.3,0.2,0.5,0.3c0,0.2,0,0.5-0.1,0.7
			c-0.1,0.7-0.3,1.2-0.5,1.5c-0.9,0.3-1.6,0.9-1.9,1.8c-0.2,0.6-0.4,1.1-0.7,1.6c-0.3,0.5-0.5,1-0.8,1.4c-0.3,0.5-0.7,1-1.2,1.4
			c-1.4,1.5-3.2,2.4-5,2.4c-1.8,0-3.6-0.9-5-2.4c-0.4-0.4-0.8-0.9-1.2-1.4c-0.3-0.4-0.5-0.9-0.8-1.4c-0.2-0.5-0.5-1-0.7-1.6
			c-0.2-0.6-0.5-1-1-1.3c-0.3-0.2-0.6-0.4-0.9-0.5c-0.2-0.3-0.4-0.8-0.5-1.5c-0.1-0.3-0.1-0.5-0.1-0.7c0.2-0.1,0.3-0.2,0.5-0.3
			c0.5-0.3,0.9-0.8,1-1.4c0.1-0.2,0.1-0.5,0.2-0.8c0-0.6,0.1-1.3,0.2-1.9c-0.1-0.1-0.3-0.1-0.4-0.1c-0.4-0.1-0.7-0.3-1-0.4
			c-0.3-0.2-0.6-0.3-0.9-0.4c-0.1,0.1-0.2,0.1-0.3,0.2l-0.3,0.3c-0.1,0.3-0.1,0.7-0.1,1.1c0,0.3-0.1,0.7-0.1,1.1
			c-0.1,0-0.1,0-0.2-0.1c-0.1,0-0.2-0.1-0.3-0.1h-0.1C70.8,47.5,70.4,49.2,70.8,51.3L70.8,51.3z M72.2,35.3c-1.9,1-3.4,2.1-4.3,3.5
			c-0.2,0.3-0.3,0.6-0.5,0.9l1.6,1.5l1.1,1.1l0.8-0.8c0.1,0,0.3-0.3,0.7-0.7l-1.4-1.4c0.5-0.6,1.2-1.1,2-1.6c0.8-0.5,1.7-1,2.6-1.4
			c0.1-0.1,0.1-0.1,0.2-0.1c0.9-0.4,1.8-0.8,2.6-1.1c0.8-0.3,1.7-0.7,2.7-1.3c1-0.5,2.7-1.4,3.3-1.5c0.6,0.1,2.2,0.9,3.1,1.4
			c1.1,0.5,2,1.1,2.9,1.4c1.1,0.4,2,0.8,2.9,1.2c2.1,1,3.7,2,4.6,3l-1.4,1.5c0.4,0.4,0.7,0.6,0.7,0.7l0.8,0.8l2.6-2.6
			c-1.4-2.9-5-4.9-9.5-6.5c-1.9-0.7-5.2-2.9-6.8-2.9c-1.3,0-4.9,2.2-6.8,2.9c-0.6,0.3-1.3,0.5-1.9,0.8C74,34.4,73,34.8,72.2,35.3
			L72.2,35.3z M92.8,39.3c0.1,0.1,0.1,0.1,0.1,0.2C93,39.4,92.9,39.3,92.8,39.3L92.8,39.3z M78.8,38.3c1.5-0.5,3.1-0.9,4.9-0.9
			c1.8,0,3.6,0.4,5.1,1c1,0.3,1.9,0.8,2.7,1.2c0.9,0.5,1.6,0.9,2.2,1.4h0c1.2,0.9,1.8,1.5,1.8,1.5s-0.4,0.2-1.1,0.6
			c0,0-0.1,0.1-0.1,0.1c-0.2,0.1-0.3,0.2-0.6,0.3c-0.2,0.1-0.5,0.2-0.7,0.4H93c-0.4,0.2-0.8,0.4-1.3,0.5c-2.1,0.8-4.9,1.5-8,1.5
			s-5.9-0.7-8-1.5c-0.2-0.1-0.5-0.2-0.7-0.3c-0.3-0.1-0.5-0.2-0.7-0.3h0c-0.3-0.1-0.5-0.3-0.7-0.4c-0.2-0.1-0.4-0.2-0.5-0.3
			c-0.1,0-0.1-0.1-0.1-0.1c-0.3-0.1-0.5-0.3-0.7-0.4c-0.2-0.1-0.3-0.2-0.3-0.2s0.1-0.1,0.3-0.3c0.3-0.3,0.8-0.7,1.6-1.2
			c0.4-0.3,0.8-0.5,1.3-0.9c0.3-0.2,0.6-0.3,1-0.5C76.9,39.1,77.8,38.7,78.8,38.3L78.8,38.3z M90.9,42.3c0.1,0,0.1,0,0.1,0
			c0.1-0.1,0.3-0.1,0.4-0.1c-0.2-0.1-0.3-0.2-0.5-0.3c-1.1-0.7-2.4-1.3-3.9-1.7c-0.1,0-0.2-0.1-0.3-0.1c-1-0.3-2-0.4-3-0.4
			c-1.1,0-2.1,0.2-3,0.4c-0.1,0-0.2,0-0.3,0.1c-1.4,0.4-2.7,1-3.8,1.6v0c-0.2,0.1-0.4,0.3-0.6,0.4c0.1,0.1,0.3,0.1,0.4,0.1
			c0,0,0.1,0,0.1,0c1.9,0.7,4.5,1.4,7.2,1.4S89,43,90.9,42.3L90.9,42.3z M71.2,70.1l-7.8,1.6l0.3,1.2l0.3,1.6l7.5-1.6l2.3-0.5h0.1v0
			l-0.6-2.8l-1.1,0.2L71.2,70.1L71.2,70.1z M94.1,69.7l-0.6,2.8l9.8,2.1l0.6-2.8L94.1,69.7L94.1,69.7z M84.8,36.9
			c-0.3,0.3-0.7,0.5-1.1,0.5s-0.8-0.2-1.1-0.5c-0.1,0-0.1-0.1-0.1-0.1h0c0-0.1-0.1-0.2-0.1-0.2c-0.1-0.1-0.2-0.3-0.2-0.5
			c-0.1-0.3-0.2-0.6-0.2-0.9V35c0-0.5,0.1-0.9,0.3-1.3c0.3-0.7,0.9-1.2,1.5-1.2c0.7,0,1.2,0.5,1.5,1.1v0c0.2,0.4,0.3,0.8,0.3,1.3
			v0.2c0,0.3-0.1,0.7-0.2,0.9c0,0.2-0.1,0.3-0.2,0.4c-0.1,0.1-0.1,0.1-0.1,0.3h0C84.8,36.9,84.8,36.9,84.8,36.9L84.8,36.9z M83.7,36
			L83.7,36c0.1,0,0.4-0.4,0.4-1v0c0-0.6-0.3-0.9-0.4-1c-0.1,0.1-0.4,0.4-0.4,1v0C83.3,35.6,83.6,35.9,83.7,36z"/>
	</g>
</g>
</svg>
