<svg width="100" height="101" viewBox="0 0 100 101" fill="none" xmlns="http://www.w3.org/2000/svg">
<g id="_&#195;&#142;&#195;&#147;&#195;&#136;_1" clip-path="url(#clip0_68_268)">
<path id="Vector" d="M46.2145 10.2705C46.3171 9.72419 46.3879 9.1394 46.3879 8.55812C46.3879 7.97683 46.3207 7.39555 46.2145 6.84578H51.8892C53.7925 6.84578 55.3492 8.38653 55.3492 10.2705V33.3468C54.1746 33.8265 52.9965 34.3413 51.8892 34.9225V10.2705H46.2145ZM22.4864 23.9657H46.6992C47.6544 23.9657 48.4292 23.1988 48.4292 22.2533C48.4292 21.3079 47.6544 20.541 46.6992 20.541H22.4828C21.5276 20.541 20.7528 21.3079 20.7528 22.2533C20.7528 23.1988 21.5276 23.9657 22.4828 23.9657H22.4864ZM22.4864 30.8115H36.3228C37.278 30.8115 38.0528 30.0446 38.0528 29.0992C38.0528 28.1537 37.278 27.3868 36.3228 27.3868H22.4864C21.5312 27.3868 20.7564 28.1537 20.7564 29.0992C20.7564 30.0446 21.5312 30.8115 22.4864 30.8115ZM5.69943 24.4664C5.0237 25.1352 5.0237 26.2173 5.69943 26.8861L9.15941 30.3108C9.48489 30.6329 9.92358 30.8115 10.3835 30.8115C10.4189 30.8115 10.4507 30.8115 10.4861 30.8115C10.9779 30.7835 11.4378 30.5454 11.742 30.1602L17.1903 23.3144C17.7811 22.572 17.6502 21.497 16.9002 20.9087C16.1537 20.3239 15.0605 20.4569 14.4697 21.1958L10.2278 26.5289L8.14406 24.4664C7.46834 23.7976 6.37515 23.7976 5.69943 24.4664ZM22.4864 44.5067H46.1473L44.9374 43.3092L44.0742 42.4862L44.5942 41.3902C44.6296 41.2887 44.6968 41.1836 44.7676 41.0821H22.4899C21.5206 41.0821 20.7599 41.8349 20.7599 42.7944C20.7599 43.7539 21.5206 44.5067 22.4899 44.5067H22.4864ZM22.4864 51.3526H36.3228C37.278 51.3526 38.0528 50.5857 38.0528 49.6403C38.0528 48.6948 37.278 47.9279 36.3228 47.9279H22.4864C21.5312 47.9279 20.7564 48.6948 20.7564 49.6403C20.7564 50.5857 21.5312 51.3526 22.4864 51.3526ZM16.8966 41.4462C16.1501 40.865 15.057 40.9875 14.4661 41.7334L10.2243 47.0665L8.14052 45.004C7.4648 44.3352 6.37161 44.3352 5.69589 45.004C5.02017 45.6728 5.02017 46.7548 5.69589 47.4237L9.15588 50.8484C9.48136 51.1705 9.92005 51.3491 10.38 51.3491C10.4153 51.3491 10.4472 51.3491 10.4826 51.3491C10.9743 51.3211 11.4342 51.083 11.7385 50.6978L17.1867 43.8519C17.7775 43.1096 17.6466 42.0345 16.8966 41.4462ZM48.4292 63.3355C48.4292 62.39 47.6544 61.6231 46.6992 61.6231H22.4828C21.5276 61.6231 20.7528 62.39 20.7528 63.3355C20.7528 64.2809 21.5276 65.0478 22.4828 65.0478H46.6957C47.6509 65.0478 48.4257 64.2809 48.4257 63.3355H48.4292ZM22.4864 68.4725C21.5312 68.4725 20.7564 69.2394 20.7564 70.1848C20.7564 71.1303 21.5312 71.8972 22.4864 71.8972H36.3228C37.278 71.8972 38.0528 71.1303 38.0528 70.1848C38.0528 69.2394 37.278 68.4725 36.3228 68.4725H22.4864ZM14.4661 62.278L10.2243 67.6111L8.14052 65.5486C7.4648 64.8797 6.37161 64.8797 5.69589 65.5486C5.02017 66.2174 5.02017 67.2994 5.69589 67.9682L9.15588 71.3929C9.48136 71.7151 9.92005 71.8937 10.38 71.8937C10.4153 71.8937 10.4472 71.8937 10.4826 71.8937C10.9743 71.8656 11.4342 71.6275 11.7385 71.2423L17.1867 64.3965C17.7775 63.6541 17.6466 62.5791 16.8966 61.9908C16.1501 61.406 15.057 61.5356 14.4661 62.278ZM12.4885 9.3425C12.4213 9.10439 12.4213 8.82775 12.4213 8.55462C12.4213 7.93831 12.5239 7.39205 12.6972 6.84228C12.6972 6.80726 12.7326 6.77224 12.7326 6.74073C12.7326 6.70921 12.768 6.70571 12.768 6.67069C12.8034 6.60066 12.8387 6.53413 12.8706 6.43258C12.8706 6.36254 12.9413 6.29601 12.9732 6.22598C13.0439 6.01937 13.1465 5.81627 13.2845 5.64469C13.2845 5.60967 13.3199 5.60967 13.3199 5.57466C13.4579 5.33654 13.6312 5.12994 13.8399 4.92334C14.0133 4.71674 14.222 4.54515 14.4272 4.37707C14.5298 4.30703 14.636 4.2405 14.7386 4.17047C14.9473 4.0339 15.1525 3.89733 15.3966 3.8273C15.6372 3.69073 15.8813 3.6207 16.1572 3.55417C16.228 3.51915 16.2952 3.51915 16.3978 3.51915C16.7091 3.44911 16.9851 3.4176 17.2964 3.4176H21.6904C22.8649 1.36209 25.115 -0.00708008 27.6728 -0.00708008C30.2307 -0.00708008 32.4807 1.36209 33.6553 3.4176H38.0492C38.3606 3.4176 38.6365 3.45262 38.9479 3.51915C39.0504 3.51915 39.1212 3.51915 39.1884 3.55417C39.4644 3.6242 39.7085 3.69073 39.9491 3.8273C40.1896 3.89733 40.3984 4.0339 40.6071 4.17047C40.7097 4.2405 40.8158 4.30703 40.9184 4.37707C41.1272 4.54865 41.3323 4.72024 41.5057 4.92334C41.7144 5.12994 41.8878 5.33304 42.0258 5.57466C42.0258 5.60967 42.0611 5.60967 42.0611 5.64469C42.1991 5.81627 42.3017 6.02288 42.3725 6.22598C42.4078 6.29601 42.4751 6.36254 42.4751 6.43258C42.5104 6.53413 42.5423 6.60416 42.5777 6.67069C42.5777 6.70571 42.613 6.70571 42.613 6.74073C42.613 6.77574 42.6484 6.81076 42.6484 6.84228C42.8218 7.38855 42.9244 7.93831 42.9244 8.55462C42.9244 8.9328 42.889 9.30749 42.7864 9.68567C42.7864 9.82224 42.751 9.92379 42.7156 10.0639C42.7156 10.1339 42.6803 10.2004 42.6803 10.2705C42.6449 10.372 42.6095 10.4771 42.5423 10.5786C42.4043 11.0233 42.1956 11.433 41.9196 11.7762C41.817 11.9128 41.6791 12.0843 41.5057 12.1859C41.4031 12.3225 41.297 12.3925 41.1944 12.494C41.0918 12.5956 40.9538 12.6656 40.8477 12.7672C40.7769 12.8372 40.7097 12.8687 40.6389 12.9037C40.5363 13.0053 40.4302 13.0753 40.2922 13.1103C40.2215 13.1804 40.1543 13.2119 40.0835 13.2469H40.0481C40.0127 13.2469 40.0127 13.2819 39.9774 13.2819H39.942C39.3547 13.5551 38.732 13.6916 38.0386 13.6916H17.2858C16.5924 13.6916 15.9697 13.5551 15.3824 13.2819C15.1419 13.1804 14.8978 13.0753 14.689 12.9037C14.6183 12.9037 14.5511 12.8337 14.4803 12.7672C14.2397 12.5956 14.031 12.424 13.8223 12.1859C13.6489 12.0843 13.5109 11.9128 13.4083 11.7762C13.1324 11.433 12.9237 11.0233 12.7857 10.5786C12.7149 10.4771 12.6831 10.372 12.6477 10.2705C12.6123 10.1339 12.5451 9.92729 12.5451 9.7557V9.68567C12.5097 9.58412 12.4744 9.47907 12.4744 9.3425H12.4885ZM17.2964 6.84228C15.3931 6.84228 15.3931 10.267 17.2964 10.267H38.0492C39.9526 10.267 39.9526 6.84228 38.0492 6.84228H31.1328C31.1328 4.95835 29.5762 3.4176 27.6728 3.4176C25.7695 3.4176 24.2128 4.95835 24.2128 6.84228H17.2964ZM100.004 88.7054V95.7929C100.004 96.6158 99.4516 97.2986 98.6556 97.4702C89.1778 99.5257 79.4913 100.688 69.8401 100.93C68.4568 100.965 67.1089 101 65.7221 101C64.3352 101 62.9909 100.965 61.604 100.93C51.9529 100.692 42.2663 99.5257 32.7885 97.4702C31.9925 97.2986 31.4406 96.6158 31.4406 95.7929V88.7054C31.4406 86.3417 32.0633 84.1181 33.1352 82.1677H3.45999C1.55664 82.1677 0 80.6269 0 78.743V10.2705C0 8.38653 1.55664 6.84578 3.45999 6.84578H9.13111C9.02851 7.39205 8.95776 7.97683 8.95776 8.55812C8.95776 9.1394 9.02851 9.72069 9.13111 10.2705H3.45999V78.7465H35.8699C37.462 77.2758 39.4679 76.1798 41.6826 75.63C43.7911 75.0487 45.8006 74.7406 47.7358 74.3974C49.1898 74.1593 50.5731 73.9177 51.8857 73.6095V61.9698C51.921 62.0048 51.9564 62.0398 51.9883 62.0398C52.8515 64.1619 53.9942 66.0458 55.3421 67.6216V71.9007C55.6888 71.3859 55.8622 70.7696 55.8622 70.1218V68.1713C56.3822 68.7526 56.9695 69.3024 57.5922 69.7821C58.1122 70.2268 58.6641 70.605 59.2514 70.9447C58.9754 73.2733 57.486 75.2938 55.3421 76.1482C55.2714 76.1833 55.2395 76.1833 55.1688 76.2183C54.0968 76.5965 53.0248 76.9011 51.8821 77.1427C50.7394 77.3809 49.5295 77.5875 48.3195 77.7941C46.6921 78.0672 44.9975 78.3403 43.3029 78.7535C43.0623 78.7885 42.8182 78.8551 42.5777 78.9251C40.4691 79.4714 38.6684 80.6374 37.3558 82.1782C35.7992 83.9571 34.9006 86.2542 34.9006 88.7159V94.4342C43.1331 96.1115 51.5036 97.1725 59.9094 97.4457V86.1456C59.9094 84.2267 60.5321 82.3463 61.6748 80.8055L62.7114 79.3663L62.3293 78.6135C61.1866 76.9011 59.9094 74.9857 59.9094 73.1018C59.9094 72.5205 60.0474 72.0057 60.2915 71.526C60.8116 71.7991 61.3635 72.0057 61.9189 72.1773C62.577 72.3839 63.235 72.5555 63.9249 72.657C63.5782 72.7936 63.373 72.9652 63.373 73.1018C63.373 73.9562 64.4449 75.5319 65.2409 76.698L65.623 77.3143C65.6584 77.3493 65.6938 77.4159 65.7256 77.4509C65.761 77.4159 65.7964 77.3493 65.8636 77.2793L66.2103 76.698C67.0063 75.5354 68.0783 73.9597 68.0783 73.1018C68.0783 72.9652 67.8695 72.7936 67.5264 72.657C68.2162 72.5555 68.8743 72.3839 69.5323 72.1773C70.0842 72.0057 70.6396 71.7991 71.1597 71.526C71.4003 72.0057 71.5418 72.5205 71.5418 73.1018C71.5418 74.9857 70.2611 76.9011 69.1219 78.6135L68.7398 79.1947L69.7764 80.837C70.9191 82.3428 71.5418 84.2267 71.5418 86.1421V97.4422C79.9476 97.169 88.3181 96.108 96.5506 94.4307V88.7124C96.5506 84.0901 93.402 80.0842 88.9054 78.9531C86.9348 78.4069 84.9961 78.0987 83.1281 77.7906C80.7083 77.3809 78.4228 77.0027 76.2789 76.2148C74.0324 75.4269 72.4758 73.3399 72.1963 70.9412C72.7836 70.598 73.339 70.2233 73.8555 69.7786C74.4782 69.2989 75.0655 68.7526 75.5855 68.1678V70.1183C75.5855 71.4209 76.3461 72.6185 77.4889 73.0282C79.3214 73.6795 81.4654 74.0227 83.7154 74.3974C85.6541 74.7406 87.6601 75.0487 89.7686 75.63C95.7865 77.1357 100.007 82.5109 100.007 88.7089L100.004 88.7054ZM64.4803 82.8155C63.7869 83.775 63.373 84.9376 63.373 86.1351V97.5367C64.965 97.5717 66.4862 97.5717 68.0783 97.5367V86.1351C68.0783 84.9376 67.6643 83.7715 66.9709 82.847V82.812L65.899 81.3063C65.8317 81.2362 65.761 81.1697 65.7256 81.0682C65.6549 81.1697 65.5876 81.3063 65.485 81.4113L64.4803 82.8155ZM50.2618 56.1429C50.5731 57.6487 51.1604 59.0529 51.8892 59.8408C52.0979 60.0474 52.3031 60.2505 52.5119 60.3555C52.7206 60.4921 52.9258 60.5621 53.1699 60.5621H53.3079C53.6192 61.4515 53.9659 62.2744 54.3798 63.0623C54.6558 63.6436 55.0025 64.2249 55.3492 64.7397C55.4872 65.0128 55.6605 65.2544 55.8692 65.4925C56.3893 66.2454 56.9766 66.9317 57.5992 67.548C57.808 67.7546 58.0485 67.9577 58.2573 68.1293C58.4978 68.3359 58.742 68.539 59.0179 68.7456C59.1205 68.8157 59.2266 68.8822 59.3292 68.9522C59.6406 69.1903 59.9873 69.432 60.3658 69.6035C60.7125 69.8101 61.0911 69.9817 61.4378 70.1498C62.1984 70.493 62.959 70.7311 63.755 70.8677H63.7904C64.4485 71.0042 65.0711 71.0743 65.7291 71.0743C66.3872 71.0743 67.0098 71.0042 67.6679 70.8677H67.7032C68.4993 70.7311 69.2599 70.4895 70.0205 70.1498C70.3672 69.9782 70.7458 69.8066 71.0925 69.6035C71.4746 69.432 71.8177 69.1938 72.1291 68.9522C72.2317 68.8822 72.3378 68.8157 72.4404 68.7456C72.7163 68.539 72.9604 68.3359 73.201 68.1293C73.4098 67.9577 73.6503 67.7511 73.8591 67.548C74.4817 66.9317 75.069 66.2454 75.5891 65.4925C76.003 64.9463 76.3497 64.3965 76.6964 63.7802C76.9051 63.472 77.0785 63.1289 77.2164 62.7857C77.5985 62.0678 77.8745 61.3465 78.1504 60.5621H78.2884C79.4983 60.5621 80.7083 58.5416 81.193 56.1464C81.7449 53.5797 81.2637 51.5942 79.983 51.3176H79.8804C79.7071 51.3176 79.5337 51.3876 79.3604 51.4541C79.325 50.5997 79.2224 49.7768 79.1198 48.9539L78.7377 48.5757C78.6351 48.4742 78.529 48.3691 78.4264 48.3026C78.0797 48.4392 77.733 48.5757 77.319 48.7823H77.2837C76.799 48.9889 76.2471 49.192 75.6563 49.3986C75.7942 50.2531 75.865 51.0094 75.8968 51.6572C75.9676 52.6832 76.4841 53.6427 77.3509 54.224C77.5242 54.3606 77.733 54.4971 77.9382 54.5672C77.9382 54.8053 77.9028 55.1134 77.8002 55.4566C77.6268 56.2795 77.3863 56.8958 77.1775 57.2705C76.1409 57.5786 75.2742 58.3315 74.8956 59.4276C74.6551 60.1139 74.3756 60.7617 74.0996 61.3465C73.7883 61.9628 73.477 62.5091 73.1303 63.0238C72.7163 63.6401 72.267 64.2214 71.747 64.7362C70.017 66.5851 67.9084 67.6461 65.7291 67.6461C63.5498 67.6461 61.4413 66.5851 59.7113 64.7362C59.1913 64.2214 58.742 63.6401 58.328 63.0238C57.9813 62.5091 57.67 61.9628 57.3587 61.3465C57.0827 60.7652 56.8068 60.1139 56.5627 59.4276C56.3221 58.7412 55.9046 58.1949 55.3527 57.8168C55.0414 57.5786 54.6593 57.372 54.2808 57.2705C54.072 56.8923 53.8315 56.276 53.6581 55.4566C53.5873 55.1134 53.5201 54.8053 53.5201 54.5672C53.7289 54.4971 53.9341 54.3606 54.1074 54.224C54.6947 53.8143 55.144 53.2295 55.3527 52.5817C55.4553 52.3086 55.5261 51.9654 55.5615 51.6572C55.5968 50.9044 55.6994 50.1515 55.802 49.3986C55.6287 49.3286 55.4907 49.2971 55.3527 49.2271C54.9034 49.0905 54.5213 48.9189 54.1428 48.7823C53.7289 48.5757 53.3822 48.4392 53.0354 48.3026C52.9329 48.3726 52.8267 48.4742 52.7241 48.5757L52.3774 48.9189C52.3067 49.3286 52.2394 49.7418 52.2041 50.1865C52.1687 50.5962 52.1015 51.0094 52.1015 51.4541C52.0307 51.4191 51.9635 51.4191 51.8927 51.3876C51.7901 51.3526 51.684 51.3176 51.5814 51.3176H51.4788C50.1981 51.5907 49.7134 53.5762 50.2689 56.1464L50.2618 56.1429ZM51.8892 36.866C49.6391 38.0636 47.8419 39.4012 46.7346 41.0786C46.494 41.4217 46.3207 41.7649 46.1473 42.1046L48.0153 43.9535L49.296 45.2211L50.3007 44.2616C50.3715 44.2266 50.6828 43.9184 51.1993 43.4737L49.4693 41.7614C50.092 41.0751 50.9234 40.4272 51.8892 39.8424C52.8232 39.2261 53.9305 38.6449 55.0697 38.1301C55.1723 38.0601 55.243 38.0286 55.3456 37.9935C56.3822 37.5138 57.4542 37.0691 58.5297 36.6594C59.4637 36.3162 60.571 35.77 61.7456 35.1537C62.9555 34.5373 65.0322 33.5113 65.7574 33.3748C66.4827 33.4763 68.3507 34.4708 69.4934 35.0521C70.7741 35.7034 71.9486 36.3547 72.9852 36.6944C74.2659 37.1391 75.4405 37.6189 76.4806 38.0986C79.042 39.2612 80.8745 40.4623 81.9819 41.7264L80.2519 43.4737C80.7719 43.9184 81.0833 44.2266 81.1505 44.2616L82.1552 45.2211L85.3039 42.1046C83.6765 38.5783 79.2507 36.1832 73.8555 34.2992C71.6055 33.4763 67.5936 30.773 65.7256 30.773C64.169 30.773 59.8104 33.4098 57.5957 34.2992C56.8351 34.6074 56.0744 34.9155 55.3456 35.2237C54.1357 35.7384 52.9576 36.2847 51.8857 36.866H51.8892ZM76.7601 41.6248C76.8308 41.6949 76.8627 41.7614 76.898 41.8629C76.898 41.7614 76.8627 41.6914 76.7954 41.6248H76.7601ZM59.8811 40.4938C61.6465 39.8775 63.6171 39.4678 65.7256 39.4678C67.9403 39.4678 70.0134 39.9475 71.8496 40.6303C73.0241 41.04 74.0961 41.5548 75.0655 42.0695C76.102 42.6508 77.0042 43.2006 77.7294 43.7118H77.7648C79.1835 44.7379 79.9795 45.4907 79.9795 45.4907C79.9795 45.4907 79.5302 45.7639 78.6988 46.1771C78.6634 46.2121 78.628 46.2471 78.5608 46.2471C78.3521 46.3837 78.1469 46.4852 77.8674 46.5903C77.5915 46.7268 77.3155 46.8634 77.0042 47.035H76.9334C76.4487 47.2416 75.9287 47.4797 75.3414 47.6863C72.8154 48.6458 69.4615 49.5352 65.7256 49.5352C61.9897 49.5352 58.6677 48.6458 56.1452 47.6863C55.8692 47.5847 55.5933 47.4797 55.3492 47.3781C55.0379 47.2766 54.7619 47.14 54.486 47.035H54.4506C54.1393 46.8634 53.8633 46.7268 53.5873 46.5903C53.3468 46.4887 53.1027 46.3837 52.9293 46.2821C52.8621 46.2471 52.7913 46.2156 52.756 46.1806C52.3739 46.009 52.0979 45.8374 51.8927 45.7358C51.6168 45.5993 51.4788 45.4977 51.4788 45.4977C51.4788 45.4977 51.6168 45.3612 51.8927 45.1195C52.2748 44.8114 52.8975 44.2966 53.7607 43.6803C54.2454 43.3722 54.7654 43.029 55.3527 42.6543C55.6994 42.4477 56.078 42.2446 56.4954 42.038C57.532 41.4567 58.6394 40.942 59.8847 40.4973L59.8811 40.4938ZM74.4428 45.2526C74.5135 45.2526 74.5808 45.2526 74.6161 45.2176C74.7895 45.1476 74.9275 45.116 75.0655 45.046C74.8567 44.9094 74.6515 44.7729 74.4074 44.6678C73.0914 43.8799 71.5029 43.1271 69.7375 42.6123C69.6349 42.5773 69.4969 42.5423 69.3908 42.5423C68.2162 42.2341 67.0028 42.0275 65.7256 42.0275C64.4485 42.0275 63.235 42.2341 62.0604 42.5423C61.9578 42.5423 61.8199 42.5773 61.7137 42.6123C59.9837 43.1271 58.4625 43.8449 57.1464 44.5628V44.5978C56.9058 44.7343 56.6263 44.9059 56.3858 45.0425C56.5591 45.1125 56.7325 45.1791 56.9058 45.2141C56.9412 45.2491 56.9766 45.2491 57.0084 45.2491C59.2903 46.1385 62.4036 46.9614 65.7256 46.9614C69.0476 46.9614 72.1255 46.1385 74.4428 45.2491V45.2526ZM50.7146 78.736L41.3394 80.6865L41.6507 82.1572L42.0647 84.0411L51.0578 82.1572L53.789 81.5759H53.8598V81.5409L53.1663 78.2213L51.8857 78.4944L50.7111 78.7325L50.7146 78.736ZM78.2849 78.2213L77.5915 81.5759L89.3865 84.0411L90.1118 80.6865L78.2813 78.2213H78.2849ZM67.0417 38.848C66.695 39.2261 66.2103 39.4643 65.7256 39.4643C65.2409 39.4643 64.7562 39.2261 64.4095 38.848C64.3388 38.8129 64.3069 38.7464 64.2362 38.6764H64.2008C64.1654 38.5748 64.0982 38.4698 64.0628 38.4032C63.9602 38.2317 63.8541 38.0601 63.8223 37.857C63.6489 37.5488 63.5817 37.1706 63.5463 36.7609V36.5228C63.5463 35.9415 63.6489 35.4268 63.893 34.9471C64.2397 34.0926 64.9296 33.5429 65.7256 33.5429C66.5216 33.5429 67.1797 34.0891 67.5582 34.912V34.9471C67.7988 35.4268 67.9049 35.9415 67.9049 36.5228V36.7294C67.8695 37.1391 67.8023 37.5173 67.629 37.8605C67.5936 38.0671 67.5264 38.2036 67.4202 38.3752C67.3495 38.4768 67.3176 38.5468 67.2469 38.6834H67.2115C67.1407 38.7534 67.1089 38.82 67.0381 38.855L67.0417 38.848ZM65.7256 37.7519H65.761C65.8317 37.7169 66.1749 37.2372 66.1749 36.5543V36.5193C66.1749 35.8015 65.8636 35.3883 65.7256 35.2867C65.5876 35.3883 65.2763 35.8015 65.2763 36.5193V36.5543C65.2763 37.2057 65.5876 37.6504 65.7256 37.7519Z" fill="#96262C"/>
</g>
<defs>
<clipPath id="clip0_68_268">
<rect width="100" height="101" fill="white"/>
</clipPath>
</defs>
</svg>
