<svg width="104" height="99" viewBox="0 0 104 99" fill="none" xmlns="http://www.w3.org/2000/svg">
<g id="_&#195;&#142;&#195;&#147;&#195;&#136;_1" clip-path="url(#clip0_68_270)">
<path id="Vector" d="M58.9352 92.1738H62.4028V95.5886C62.4028 97.467 60.8428 99.0033 58.9352 99.0033H3.46761C1.56007 99.0033 0 97.467 0 95.5886V20.4814C0 18.6029 1.56007 17.0666 3.46761 17.0666H13.8669V20.4814H3.46761V95.5851H58.9352V92.1703V92.1738ZM62.4028 85.3478H20.7986V10.2406H29.9498C29.847 9.69592 29.7761 9.11283 29.7761 8.53323C29.7761 7.95363 29.847 7.37403 29.9498 6.82585H20.7986C18.891 6.82585 17.331 8.36214 17.331 10.2406V85.3443C17.331 87.2227 18.891 88.759 20.7986 88.759H70.7173C69.0863 87.8024 67.5972 86.6781 66.2463 85.3443H62.3993L62.4028 85.3478ZM76.2662 10.2406V45.3693C77.376 45.0271 78.5531 44.7897 79.7338 44.6535V10.2406C79.7338 8.36214 78.1737 6.82585 76.2662 6.82585H67.115C67.2178 7.37053 67.2887 7.95363 67.2887 8.53323C67.2887 9.11283 67.2178 9.69243 67.115 10.2406H76.2662ZM35.4278 25.7746H38.3387V34.1369H40.42V25.7746H43.331V23.8961H35.4278V25.7746ZM43.019 34.1369L46.5539 23.8961H48.6352L52.2056 34.1369H49.9861L48.9472 31.1656H46.1745L45.203 34.1369H43.019ZM46.7277 29.3919H48.426L47.6637 27.2411C47.6283 27.1398 47.5928 27.0351 47.5609 26.9338C47.5254 27.0036 47.49 27.1049 47.49 27.2061L46.7277 29.3919ZM55.1521 34.1369L56.4356 31.8849C56.7121 31.3716 56.9568 30.998 57.1305 30.6558C57.3397 30.998 57.5453 31.3716 57.8573 31.8499L58.9317 33.6586L59.2082 34.1369H61.6334L58.9281 29.734L58.4069 28.8821L58.9281 28.0616L61.5625 23.8961H59.1373L58.9281 24.2383L57.7155 26.3193C57.5063 26.6265 57.3681 26.9338 57.1943 27.2411C57.0206 26.9338 56.8469 26.6615 56.6731 26.3193L55.2868 23.8961H52.8616L55.9108 28.9484L52.7198 34.1369H55.145H55.1521ZM34.6655 42.6703C34.6655 43.627 35.4278 44.3777 36.3993 44.3777H60.6655C61.637 44.3777 62.3993 43.627 62.3993 42.6703C62.3993 41.7136 61.637 40.9629 60.6655 40.9629H36.3993C35.4278 40.9629 34.6655 41.7136 34.6655 42.6703ZM58.9317 61.448H29.4641C28.4926 61.448 27.7303 62.1987 27.7303 63.1554C27.7303 64.1121 28.4926 64.8627 29.4641 64.8627H59.2082C59.3465 63.7035 59.5912 62.5408 59.9351 61.448H58.9281H58.9317ZM63.2999 54.622C64.165 53.3929 65.172 52.2337 66.2463 51.2072H29.4641C28.4926 51.2072 27.7303 51.9579 27.7303 52.9146C27.7303 53.8713 28.4926 54.622 29.4641 54.622H63.2999ZM58.9317 71.6922H29.4641C28.4926 71.6922 27.7303 72.4429 27.7303 73.3996C27.7303 74.3563 28.4926 75.107 29.4641 75.107H59.9351C59.5876 74.0141 59.3465 72.8549 59.2082 71.6922H58.9317ZM104 68.2775C104 79.5762 94.675 88.759 83.2014 88.759C82.8894 88.759 82.5774 88.759 82.3008 88.7241C81.6059 88.7241 80.9499 88.6543 80.2905 88.553C79.5991 88.4518 78.9041 88.347 78.2446 88.1445C75.8868 87.5998 73.7027 86.6432 71.7278 85.3443C68.0191 82.9211 65.1081 79.3353 63.6154 75.1035C63.2006 74.0107 62.8886 72.8829 62.7148 71.6888C62.5057 70.5959 62.4028 69.4367 62.4028 68.274C62.4028 67.1113 62.5057 65.9521 62.7148 64.8592C62.8886 63.6651 63.2006 62.5373 63.6154 61.4445C64.4806 58.8852 65.9024 56.5633 67.7425 54.6185C68.2283 54.0389 68.7495 53.5256 69.3381 53.0473C71.313 51.2386 73.6708 49.8385 76.2697 48.9831C77.3795 48.5746 78.5247 48.2673 79.7373 48.0962C80.2905 47.995 80.8826 47.8902 81.4712 47.8588C82.0243 47.8239 82.6164 47.7924 83.205 47.7924C94.6786 47.7924 104.004 56.9753 104.004 68.274L104 68.2775ZM100.532 68.2775C100.532 58.8537 92.7675 51.2072 83.1979 51.2072C82.6093 51.2072 82.0207 51.2421 81.4641 51.3085C80.8755 51.3434 80.3188 51.4446 79.7302 51.5459C78.5177 51.7833 77.3724 52.1604 76.2626 52.6038C72.2774 54.3461 69.0509 57.52 67.2851 61.4445C66.8349 62.5373 66.4519 63.6616 66.2108 64.8592C65.9697 65.9521 65.8633 67.1113 65.8633 68.274C65.8633 69.4367 65.9662 70.5959 66.2108 71.6888C66.4519 72.8829 66.8349 74.0107 67.2851 75.1035C69.0544 79.028 72.2774 82.2054 76.2626 83.9442C77.3724 84.3876 78.5177 84.7647 79.7302 85.0021C80.3188 85.1034 80.8755 85.2081 81.4641 85.2395C82.0172 85.3094 82.6093 85.3408 83.1979 85.3408C92.7675 85.3408 100.532 77.6943 100.532 68.2705V68.2775ZM33.3146 9.31883C33.2437 9.0814 33.2437 8.80557 33.2437 8.53323C33.2437 7.91871 33.3465 7.37403 33.5202 6.82585C33.5912 6.65476 33.6585 6.48368 33.7294 6.31259C33.8004 6.10659 33.9032 5.9355 34.006 5.7679C34.0296 5.74463 34.0533 5.72135 34.0769 5.69807C34.1797 5.49207 34.318 5.28956 34.4917 5.11847C34.5154 5.09519 34.539 5.07192 34.5627 5.04864C34.6336 4.97881 34.7009 4.87755 34.8038 4.81121C34.8747 4.70996 34.942 4.64013 35.0449 4.60521C35.1477 4.50396 35.2186 4.39921 35.3214 4.33287C35.4242 4.23161 35.5625 4.16178 35.6689 4.12687C35.8426 3.99069 36.0164 3.88944 36.222 3.81961C36.4986 3.68344 36.8106 3.58218 37.1226 3.51235C37.4346 3.44601 37.7821 3.41109 38.1295 3.41109H42.5332C43.7103 1.36154 45.9654 -0.00366211 48.5288 -0.00366211C51.0923 -0.00366211 53.3473 1.36154 54.5245 3.41109H58.9281C59.2756 3.41109 59.6231 3.44601 59.9351 3.51235C60.2471 3.58218 60.5591 3.68344 60.8357 3.81961C61.0449 3.88944 61.2186 3.99069 61.3888 4.12687C61.4916 4.16178 61.6299 4.22812 61.7363 4.33287C61.8391 4.4027 61.9454 4.50396 62.0483 4.60521C62.222 4.74138 62.3603 4.87755 62.4986 5.04864C62.5222 5.07192 62.5458 5.09519 62.5695 5.11847C62.7432 5.28956 62.8815 5.49556 62.9843 5.69807C63.0079 5.72135 63.0316 5.74463 63.0552 5.7679C63.158 5.93899 63.2644 6.11008 63.3318 6.31259C63.4027 6.48368 63.4701 6.65476 63.541 6.82585C63.7147 7.37053 63.8175 7.91871 63.8175 8.53323C63.8175 8.91032 63.7821 9.28392 63.6793 9.66101C63.6793 9.79718 63.6438 9.89843 63.6083 10.0381C63.6083 10.1079 63.5729 10.1743 63.5729 10.2441C63.5374 10.3454 63.502 10.4501 63.4346 10.5514C63.2963 10.9948 63.0871 11.4033 62.8106 11.7455C62.7078 11.8816 62.5695 12.0527 62.3957 12.154C62.2929 12.2902 62.1866 12.36 62.0837 12.4612C61.9809 12.5625 61.8426 12.6323 61.7363 12.7336C61.6653 12.8034 61.598 12.8348 61.5271 12.8698C61.4242 12.971 61.3179 13.0408 61.1796 13.0758C61.1087 13.1456 61.0413 13.177 60.9704 13.2119H60.9349C60.8995 13.2119 60.8995 13.2468 60.864 13.2468H60.8286C60.24 13.5192 59.616 13.6554 58.921 13.6554H38.1225C37.4275 13.6554 36.8035 13.5192 36.2149 13.2468C35.9738 13.1456 35.7292 13.0408 35.52 12.8698C35.4491 12.8698 35.3817 12.7999 35.3108 12.7336C35.0697 12.5625 34.8605 12.3914 34.6513 12.154C34.4776 12.0527 34.3393 11.8816 34.2365 11.7455C33.9599 11.4033 33.7507 10.9948 33.6124 10.5514C33.5415 10.4501 33.5096 10.3454 33.4742 10.2441C33.4387 10.1079 33.3713 9.90192 33.3713 9.73084V9.66101C33.3359 9.55975 33.3004 9.455 33.3004 9.31883H33.3146ZM38.1331 6.82585C36.2256 6.82585 36.2256 10.2406 38.1331 10.2406H58.9317C60.8392 10.2406 60.8392 6.82585 58.9317 6.82585H52C52 6.21133 51.8263 5.63173 51.5142 5.11847C50.9257 4.09544 49.8159 3.41109 48.5324 3.41109C47.2489 3.41109 46.1391 4.09544 45.5505 5.11847C45.2385 5.63173 45.0648 6.21133 45.0648 6.82585H38.1331Z" fill="#96262C"/>
<path id="Vector_2" d="M81.996 76.5247L82.23 76.5492V79.2307H84.6516V76.4095L84.8147 76.3641C85.9316 76.1127 86.8854 75.5855 87.5626 74.8732C88.4242 74.0003 88.8886 72.8795 88.8886 71.6191C88.8886 69.2134 87.5839 67.6771 84.5134 66.4376C82.0917 65.453 81.3932 64.8559 81.3932 63.7561C81.3932 62.8622 82.0456 61.8287 83.8858 61.8287C85.5629 61.8287 86.6336 62.4258 87.0981 62.6772L87.4704 62.8832L88.3781 60.453L88.1228 60.3169C87.2151 59.7896 86.1904 59.4684 85.0275 59.3776L84.8183 59.3532V56.7625H82.4214V59.4894L82.2335 59.5348C79.8367 60.1074 78.344 61.8287 78.344 64.0528C78.344 66.8042 80.5777 68.0437 83.0242 68.9829C85.0027 69.786 85.8181 70.5891 85.8181 71.8041C85.8181 73.1344 84.6765 74.0283 82.9994 74.0283C81.6946 74.0283 80.3685 73.6372 79.3226 72.9494L78.9255 72.698L78.1561 74.8767L78.0391 75.1735L78.2483 75.3097C79.1559 75.9521 80.5777 76.4095 81.996 76.5247Z" fill="#96262C"/>
</g>
<defs>
<clipPath id="clip0_68_270">
<rect width="104" height="99" fill="white"/>
</clipPath>
</defs>
</svg>
