<?xml version="1.0" encoding="utf-8"?>
<!-- Generator: Adobe Illustrator 28.0.0, SVG Export Plug-In . SVG Version: 6.00 Build 0)  -->
<svg version="1.1" id="Capa_1" xmlns="http://www.w3.org/2000/svg" xmlns:xlink="http://www.w3.org/1999/xlink" x="0px" y="0px"
	 viewBox="0 0 333.7 143.9" style="enable-background:new 0 0 333.7 143.9;" xml:space="preserve">
<style type="text/css">
	.st0{fill:#D0122C;}
	.st1{fill:#FFFFFF;}
	.st2{font-family:'Univers-BoldCondensed';}
	.st3{font-size:21.2621px;}
	.st4{font-size:24.7512px;}
	.st5{font-size:22.7425px;}
	.st6{fill:#76715E;}
</style>
<g>
	<rect x="1.2" y="10.8" class="st0" width="330.4" height="116"/>
	<g>
		<text transform="matrix(1 0 0 1 21.813 105.8277)" class="st1 st2 st3">Certification</text>
		<text transform="matrix(1 0 0 1 21.813 82.3292)" class="st1 st2 st4">BUREAU VERITAS</text>
		<text transform="matrix(1 0 0 1 21.813 46.4386)" class="st1 st2 st5">ISO 9001</text>
	</g>
	<g>
		<path class="st6" d="M258.1,140.3h0.2c7.7,0,15-1.1,22.1-3.3c7.6-2.6,14.8-7.9,19.1-14.5c7.2-10.5,13.7-30.8,14-51v-0.1
			c-0.3-20.2-6.8-40.5-14-51c-4.3-6.6-11.4-11.9-19-14.5c-7.1-2.1-14.7-3.3-22.4-3.3c-7.7,0-15.4,1.1-22.4,3.3
			c-7.6,2.6-14.6,7.9-19,14.5c-7.2,10.5-13.7,30.8-14,51v0.1c0.3,20.2,6.8,40.5,14,51c4.3,6.6,11.4,11.9,19,14.5
			c7,2.1,14.5,3.3,22.3,3.3H258.1z"/>
		<path class="st1" d="M309.2,71.5c0.2,15.2-4.4,33.7-8.9,43.5c-4.9,11.2-12.5,18.1-23.6,21.1c-6,1.5-12.3,2.3-18.7,2.3
			c-6.4,0-12.8-0.8-18.7-2.3c-11.1-3-18.7-9.9-23.6-21.1c-4.5-9.8-9.1-28.3-8.9-43.5c-0.2-15.2,4.4-33.7,8.9-43.5
			c4.9-11.2,12.5-18.1,23.6-21.1c6-1.5,12.3-2.3,18.7-2.3c6.4,0,12.7,0.8,18.7,2.3c11.1,3,18.7,9.9,23.6,21.1
			C304.8,37.8,309.5,56.3,309.2,71.5"/>
		<path class="st6" d="M258.2,20.8c5.3,0,10.6,0.7,15.5,2.1c5.2,1.5,9.5,5.1,11.6,10c4.7,10,7.7,24.5,7.7,38.6
			c0,14.2-3.1,28.6-7.7,38.6c-2.1,4.9-6.4,8.5-11.6,10c-4.9,1.3-10.2,2.1-15.5,2.1h-0.2c-5.3,0-10.6-0.7-15.5-2.1
			c-5.2-1.5-9.5-5.1-11.6-10c-4.7-10-7.7-24.5-7.7-38.6c0-14.2,3.1-28.6,7.7-38.6c2.1-4.9,6.4-8.5,11.6-10
			c4.9-1.3,10.2-2.1,15.5-2.1H258.2z"/>
		<path class="st1" d="M265.7,40.2c-0.7-1.3-0.1-0.1-0.9-1.6"/>
		<rect x="232.4" y="68.8" class="st1" width="17.5" height="5.1"/>
		<path class="st1" d="M246,113c-0.4-0.8-0.5-1.1-0.6-1.9c3.7,0,6.1,0,10,0c0,1.4-0.8,2.8-2.1,3.7c-1.4,1-3.7,1.2-5.2,0.4
			C247.3,114.7,246.5,113.8,246,113"/>
		<path class="st1" d="M256.8,108.9l-5.4,0v-2.5l5.4,0l1.7-2c0.8,1,0.9,1,1.7,2h5.4v2.5l-5.4,0v6.2h-3.5V108.9z"/>
		<path class="st1" d="M257.4,101.1c1.1-0.4,2.7-1,3-2.1c-0.1-1.7,1.1-3,1.9-4.3c0.4-0.6,0.5-0.9,0.4-1.5c1.7,0.1,3.5,1.5,4.1,3.1
			c0.7,1.6,0.4,3.8-0.6,5.1c-1.3,1.6-3.2,2.5-5.3,2.1C259.5,103.2,258.2,102.4,257.4,101.1"/>
		<path class="st1" d="M244.5,78.8c-1-0.5-2.3-0.7-3.3-0.2c-0.9,0.2-1.8,1.3-1.9,2.3c-0.1,3,0.1,4,0,7.3c-0.1,0.5-0.3,0.8-1,0.8
			c-0.6,0-1-0.3-1-0.8v-7.5c0-0.8-0.2-1.6-0.7-2.2l-3.9,1.3l-0.4,0.1c1,0.7,1.4,0.7,1.5,1.9l0,9.5l0.1,0.5l0.1,0.3l0.1,0.3l0.1,0.2
			c0.6,1,1.7,1.4,2.5,1.6c0.3,0.1,0.9,0.1,1.3,0.2c1,0,1.9-0.1,3-0.8c1.6-1.2,1.2-3.4,1.3-6.6c0-0.9,0.1-1.4,0.6-1.9
			c0.5-0.4,1.1-0.5,1.7-0.3c0.7,0.2,0.8,0.2,1.5,0.7C246.1,82.9,246.2,79.6,244.5,78.8"/>
		<path class="st1" d="M280.3,90.7c-2.8-2.8-7.7-6.6-8.1-8.3c-0.4-1.1-0.3-2.4-0.3-3.7c0.8-0.6,1.5-1.2,2.5-2
			c-0.1,2-0.3,3.9,0.6,5.1c2.3,2.3,4.4,4.4,6.5,6.4c0.8,0.8,1.4,2,0.9,3.1c-0.2,0.5-0.6,1.1-0.9,1.6
			C281.4,91.9,280.9,91.3,280.3,90.7"/>
		<path class="st1" d="M264.3,76.7c2.1,0,2.8,0,5.1,0v15.1h-5.1L264.3,76.7z"/>
		<path class="st1" d="M275.7,78.1c0.5-0.6,0.7-0.8,1.4-1.4l1.3,1.5v4.3c1.8-0.9,1.4-3.5,1.4-5.7c1.1,0.9,1.6,1.4,2.6,2.3
			c0.6,2.6-1,4-2.1,5.8l-4.5-4.3V78.1z"/>
		<path class="st1" d="M279.9,66.5l0.7-2.9l2.2-0.3l0-7.1c-0.9,0.1-1.2,0.2-1.9,0.3v-5.4c-1.2,0.2-2.4,0.7-3.6,0.9v9
			c0,0.4-0.7,0.6-0.8,0.6h-0.2c-0.4,0-0.9-0.3-0.9-0.6v-8.6l-3.6,0.5v3.6c-1.3,2.6-3.1,4.9-4.9,7.2c1.9,0.1,2.1,0.1,4,0.3l1.2,2.6
			H279.9z"/>
		<path class="st1" d="M239.4,64.8c-0.1-2.4-0.2-3.9-0.2-6.2c0.7-0.2,1.4,0.3,2,0.7c-0.1,3-0.1,2.9-0.2,6h-1.6L239.4,64.8z"/>
		<path class="st1" d="M239.1,51.2c-0.4-2.3-0.4-2.5-0.6-4.2H237v-1.6c2.6,0,4,0,6.5,0l0,1.6H242l-0.7,5.5
			C240.6,51.9,239.9,51.5,239.1,51.2"/>
		<path class="st1" d="M238.8,44.2c-2.2-2.3-2.3-5.9-1.9-9l0,0c0.4,1.2,1.1,2,2.3,2.6c-0.1-0.6-0.7-1.2-0.9-1.9
			c-0.5-1.3-0.5-3.1,0.4-4.2c0.6-0.9,1.4-1.2,2.4-1.5c-0.4,1.1-0.5,2.3,0,3.4c0.6-0.5,0.6-0.5,1.1-1c0.2-0.2,0.3-0.2,0.4-0.3
			c0.9,1.9,1.9,4.4,1.3,6.6l-0.4,0.9c-0.1-1.5-0.4-2.3-1.4-2.8c-0.1,0.9,0.4,1.5,0.6,2.7c0.4,1.8,0.1,3.6-1,4.6H238.8z"/>
		<path class="st1" d="M265.7,40.2l-2.3,2.5c-0.6-0.6-0.7-0.6-1.3-1.3c1.2-1.2,1.3-1.3,2.6-2.8"/>
		<path class="st1" d="M268.7,34.2c0.5-2.1,0.7-4.6,3.1-5.5c0.9-0.2,2.1-0.1,2.8,0.5c1,0.7,1.3,2,1.1,3.1c-0.7,2.5-3.5,3-5.7,3.5
			L268.7,34.2z"/>
		<polygon class="st1" points="284.3,68.8 284.3,73.9 266.7,73.9 266.7,68.8 		"/>
		<path class="st1" d="M241.9,103.1c-0.7-3.2,3.2-4.4,4.1-7.1c0.7-4.5,1-9.2,4.1-12.7c0.3-6.6,2.5-12.5,7.1-17.3
			c-0.2-1.5-0.8-2.8-1.3-4.2c-0.6,0-1-0.1-1.6-0.6c-0.4-0.6-0.6-1-0.7-1.7c-1.6,2-3.7,4.3-5.9,5.7c-0.4,0.2-0.9-0.3-1.7-1
			c-2.7-2.2-3.2-7.1-7.4-6.8c-1.9-0.6-1.8-2.9-2.1-4.5c0.7-0.5,1.8-0.5,2.7-0.2c2.6,1.4,4.3,4.3,6.8,6.3c0.7,0.5,1.3,1.2,1.9,1.5
			c1.6-1.4,2.9-2.6,4-4.7c0.8-1.2,2-1.7,3.4-1.8l1-1.2l-0.5-2.9c-1-1.3-1.9-2.7-2.5-4.1c0.4-1.7,0.6-3.6,2.3-4.5
			c1.1-0.7,2,0.9,2.9-0.1c0.7-0.1,1.2,0,1.7,0.4c0.7,1.2,1.5,2.4,1.5,3.8c-0.4,1.3-1.1,2.6-1.7,3.9c-0.2,0.3-0.5,0.4-0.8,0.6
			c0.2,0.6,0.3,1.2,0.7,1.7c0.5,0.1,1,0.2,1.6,0.1c0.5-1.5,2.1-2.1,3.4-2.5l2.9-1.9c-0.5-2.2,0.9-4.1,0.2-6.4
			c-1.7-0.8-2.1-2.7-2.5-4.1c0.3-0.9,0.7-1.9,1.4-2.7l0.1,0.1c1.6,1.8,3,3.7,3.5,6c0.3,2.9,0.6,5.9,0.4,9c-1.6,1.6-3.5,2.5-5.2,3.7
			l-1.3,2.5c-0.2,2.6-0.9,5-1.3,7.5c1.1,3.1,2.5,7.1,1.5,10c-0.7,1.7-2.3,2.6-3.5,3.5l-3,2.4c3,3.3,2.3,7,2.4,11.8
			c0,1.2,2,2.1,0.9,3.4c-0.9,1.5-2.4,2.7-2.1,4.6c-0.9,1.5-3.1,1.9-4.1,1.9c-0.2,0-0.4-0.2-0.4-0.4c0.2-0.8,0.8-1.4,1.2-2.2
			c1.1-1.6,0.6-3.9,1.9-5.4c-1.1-3.5-2.7-6.8-3.2-10.6l0-0.2c-0.9,1.7-0.4,3.4,0.1,4.8c-2.9,3.7-6.1,7.3-6.1,12.1
			c-1.3,2.2-3,4.3-4,6.6c-0.3,0.4-0.9,0-1.3-0.2C242.4,104.4,242.2,103.8,241.9,103.1"/>
		<path class="st1" d="M274.1,87.1c2.8,2.8,7.7,6.6,8.1,8.3c0.4,1.1,0.3,2.4,0.3,3.7c-0.8,0.6-1.5,1.2-2.5,2
			c0.1-1.9,0.4-3.9-0.6-5.1c-2.3-2.3-4.4-4.4-6.5-6.4c-0.8-0.8-1.4-2-0.9-3.1c0.2-0.5,0.6-1.1,0.9-1.6
			C273,85.9,273.5,86.5,274.1,87.1"/>
		<path class="st1" d="M278.7,99.7c-0.5,0.6-0.7,0.8-1.4,1.4l-1.3-1.5v-4.3c-1.8,0.9-1.4,3.4-1.4,5.7c-1.1-0.9-1.6-1.4-2.6-2.3
			c-0.6-2.6,1-4,2.1-5.8l4.5,4.3V99.7z"/>
		<path class="st1" d="M271.1,113c0.4-0.8,0.5-1.1,0.6-1.9c-3.7,0-6.1,0-10,0c0,1.4,0.8,2.8,2.1,3.7c1.4,1,3.7,1.2,5.3,0.4
			C269.8,114.7,270.6,113.8,271.1,113"/>
		<path class="st6" d="M259.9,134.9c0-2.8,2.7-4.2,4.4-6c0.5-0.4,0.6-1.3,0.3-2.1c-0.2-0.5-0.5-0.7-0.9-0.8c-0.6-0.1-1.1,0-1.5,0.3
			c-0.5,0.5-0.7,1.1-0.7,1.8l-1.9,0.1c-0.2-1.1,0.1-2.1,0.7-2.9c0.9-1,2.2-1.2,3.5-1.1c1,0.2,2.3,0.8,2.7,1.9
			c0.6,1.2,0.4,2.7-0.5,3.7c-1.1,1.2-2.6,1.9-3.5,3.2l4.8-0.3c0,0.6,0.1,1.2,0.1,1.7L259.9,134.9z"/>
		<path class="st6" d="M242.8,122.8L242.8,122.8l-3.2,9.7l-2-0.7l2.2-6.6l0-0.1c-0.8-0.3-1.8-0.6-2.5-0.8l0.4-1.2
			c1,0.3,2.1,0.4,2.9-0.3c0.3-0.2,0.4-0.3,0.6-0.5L242.8,122.8z"/>
		<path class="st6" d="M278.5,130c-0.3,0.3-0.7,0.5-1.2,0.6c-0.5,0.1-1,0.1-1.4,0c-0.5-0.2-0.8-0.6-1-1c-0.2-0.7,0-1.4,0.6-1.7
			c0.2-0.2,0.6-0.3,1-0.4c0.4-0.1,0.8-0.1,1.1-0.1c0.7,0.1,1.2,0.6,1.3,1.3C279,129.1,278.9,129.6,278.5,130 M274.3,125.4
			c-0.2-0.4-0.2-1.1,0.2-1.5c0.2-0.3,0.6-0.4,1-0.5c0.4-0.1,0.8-0.1,1.1,0c0.6,0.2,0.9,0.8,0.9,1.3c0,0.4-0.2,0.7-0.4,0.9
			c-0.2,0.2-0.6,0.4-0.9,0.5c-0.4,0.1-0.7,0.1-1.1,0C274.8,125.9,274.5,125.7,274.3,125.4 M280.9,128.1c-0.3-0.9-0.8-1.7-1.8-2
			l-0.6-0.1c0.6-0.4,1.2-1.3,1-2.2c-0.1-1-0.9-1.6-1.8-2c-0.8-0.2-1.7-0.2-2.6,0c-0.9,0.2-1.7,0.6-2.3,1.2c-0.6,0.7-1,1.6-0.6,2.6
			c0.2,0.9,1.1,1.4,1.9,1.5l-0.5,0.4c-0.8,0.8-0.9,1.7-0.7,2.6c0.2,1.1,1.1,1.9,2.1,2.2c0.8,0.2,1.7,0.2,2.7,0
			c0.9-0.2,1.8-0.7,2.4-1.2C280.8,130.3,281.2,129.2,280.9,128.1"/>
		<path class="st6" d="M252.1,132.8c-0.3,0.2-0.8,0.3-1.3,0.3c-0.5,0-1-0.2-1.3-0.4c-0.4-0.3-0.6-0.8-0.6-1.3c0-0.7,0.4-1.3,1.1-1.5
			c0.3-0.1,0.7-0.1,1.1-0.1c0.4,0,0.8,0.1,1,0.3c0.6,0.3,0.9,0.9,0.9,1.6C252.8,132.1,252.5,132.6,252.1,132.8 M249.4,127.2
			c-0.1-0.5,0.1-1.1,0.6-1.4c0.3-0.2,0.7-0.2,1.1-0.2c0.4,0,0.8,0.1,1.1,0.4c0.5,0.3,0.6,1,0.5,1.5c-0.1,0.4-0.4,0.6-0.7,0.7
			c-0.3,0.1-0.7,0.2-1,0.2c-0.4,0-0.7-0.1-1-0.3C249.7,127.8,249.5,127.5,249.4,127.2 M254.9,131.8c0-1-0.2-1.9-1.1-2.5l-0.5-0.3
			c0.7-0.2,1.5-0.9,1.6-1.8c0.2-1-0.3-1.8-1.1-2.4c-0.7-0.5-1.6-0.7-2.5-0.7c-0.9-0.1-1.8,0.1-2.5,0.4c-0.8,0.5-1.4,1.2-1.4,2.2
			c0,0.9,0.7,1.7,1.4,2l-0.6,0.2c-1,0.5-1.4,1.3-1.4,2.3c-0.1,1.1,0.5,2.1,1.4,2.7c0.7,0.4,1.6,0.7,2.5,0.8c0.9,0.1,1.9-0.1,2.6-0.4
			C254.2,133.8,254.9,132.9,254.9,131.8"/>
		
			<rect x="290" y="34.2" transform="matrix(0.9182 -0.3962 0.3962 0.9182 10.1985 119.8119)" class="st6" width="10.2" height="2.1"/>
		<path class="st6" d="M264.9,18l-2.4-10.5l2.2,0.2c0.4,2.6,0.9,5.5,1.4,7.7c0.9-2,2-4.8,3-7.3l2.2,0.2l-4.4,9.8L264.9,18z"/>
		<polygon class="st6" points="225.1,24 222.9,28.1 220.9,27 223.5,22.3 222.1,21.5 218.4,28 227.3,33 231,26.5 229.5,25.6 
			226.9,30.3 224.4,28.9 226.7,24.9 		"/>
		<path class="st6" d="M218.4,71.9l-2.8,0h0c0-2.3-0.3-3.6,1-3.9c0.5-0.1,1.1-0.1,1.4,0.3C218.5,68.9,218.4,69.8,218.4,71.9
			 M214,71.9l-2.5,0c0.1-2.3-0.3-3.6,1.1-3.7c0.8-0.1,1.1,0.1,1.3,0.6C214,69.3,214,69.9,214,71.9 M219.7,67.3
			c-0.5-1.1-1.7-1.5-2.9-1.5c-1,0.1-1.8,0.8-2.2,1.9c-0.2-0.6-0.7-1.4-1.7-1.5c-1-0.1-2,0.2-2.5,1c-0.7,0.9-0.4,4.7-0.5,6.8l10.1,0
			l0-0.7C220,69.3,220.2,68.8,219.7,67.3"/>
		<polygon class="st6" points="300.3,39.8 301.9,39.4 304,47.4 302.3,47.8 301.6,44.9 293.4,47 292.9,44.9 301.1,42.8 		"/>
		<path class="st6" d="M248.8,18.6c-1.1,0.2-2.3,0.1-3.2-0.5c-0.8-0.5-1.1-1.1-1.2-1.8L243.2,9l2.1-0.3l1.2,7.3
			c0.1,0.6,0.6,1,1.2,1.1c0.3,0.1,0.6,0.1,1,0"/>
		<path class="st6" d="M248.9,18.6c1.1-0.2,2.2-0.6,2.9-1.5c0.6-0.7,0.7-1.4,0.6-2.1l-1.2-7.3L249.2,8l1.2,7.3
			c0.1,0.6-0.3,1.1-0.8,1.4c-0.3,0.2-0.6,0.3-0.9,0.3"/>
		<path class="st6" d="M299.1,57.5l-0.4-2.5l4.4,0.7h0l0,0l0,0h0L299.1,57.5z M305,54.3l-10.6-2.1l0.3,2.1l2.3,0.4l0.5,3.6l-2.1,1
			l0.3,2.1l9.6-4.9L305,54.3z"/>
		<path class="st6" d="M303.5,71.8l0.2,0l0.2-0.1l0.2-0.1c0.7-0.4,0.8-1.3,0.8-2c0-0.7-0.3-1.5-1-1.8c-0.4-0.1-0.8-0.1-1,0.2
			c-1.2,1.7-0.4,5.3-3.3,5.9c-1.3,0.2-2.4-0.3-3.1-1.4c-0.9-1.6-1-4.2,0.1-5.8c0.6-0.8,1.5-1.3,2.5-1.3l0.1,1.9
			c-0.6,0.1-1.3,0.4-1.6,1c-0.4,1-0.3,2.6,0.4,3.2c0.3,0.3,0.9,0.3,1.3,0.1c1.2-0.8,0.9-3,1.5-4.4c0.2-0.6,0.8-1.2,1.3-1.5
			c1-0.4,2.4-0.3,3.2,0.5c1.4,1.3,1.4,3.8,0.8,5.3c-0.4,1.1-1.5,1.8-2.7,1.9l-0.1-2L303.5,71.8z"/>
		<path class="st6" d="M221.5,56.4c-0.2,1.1-0.6,2.2-1.5,2.9c-0.7,0.6-1.4,0.7-2.1,0.6l-7.3-1.1l0.3-2.1l7.3,1.1
			c0.6,0.1,1.1-0.3,1.4-0.8c0.2-0.3,0.3-0.6,0.3-0.9"/>
		<path class="st6" d="M221.5,56.4c0.2-1.1,0.1-2.3-0.5-3.2c-0.5-0.8-1.1-1.1-1.8-1.2l-7.3-1.1l-0.3,2.1l7.3,1.1
			c0.6,0.1,1,0.6,1.1,1.2c0.1,0.3,0.1,0.6,0,1"/>
		<path class="st6" d="M234,19.4l-1.1-4.3l0,0l0,0v0l0,0l3.3,3L234,19.4z M232.8,12.9l-1.9,1.1l2.2,10.6l1.8-1.1l-0.5-2.3l3.1-1.9
			l1.8,1.5l1.8-1.1L232.8,12.9z"/>
		<polygon class="st6" points="282.2,16.2 277.9,14.4 278.8,12.3 283.7,14.4 284.4,12.8 277.4,10 273.5,19.4 280.4,22.2 281.1,20.7 
			276.1,18.6 277.2,16 281.5,17.8 		"/>
		<path class="st6" d="M218.1,42.4l-2.6-0.8c0.6-1.7,0.8-3.5,2-3.4c0.5,0.1,0.8,0.2,1.1,0.6C219.2,39.4,218.6,40.7,218.1,42.4
			 M220.2,38.7c0-0.7,0-1.3-0.6-1.8c-0.6-0.6-1.5-0.9-2.3-0.8c-2.3,0.4-2.6,3-3.8,7.1l9.8,2.9l0.6-2l-3.8-1.1l-0.2-0.1
			c0.3-0.9,0.6-2.1,0.8-2.4c0.7-1.6,3.3,0,4.3-0.2l0.6-2C223.7,38.4,221.4,36.8,220.2,38.7"/>
		<path class="st6" d="M292.9,24.8c-0.4,0.4-0.7,0.6-1.1,0.6c-0.8,0-1.5-1.2-2.5-2.6l2.1-1.6C292.4,22.6,293.7,23.9,292.9,24.8
			 M291.4,18.5l-8.1,6.2l1.3,1.7l3.2-2.4l0.1-0.1c0.6,0.8,1.3,1.8,1.4,2.1c0.9,1.5-1.9,2.7-2.4,3.6l1.3,1.7c1-1.5,3.6-2.4,2.8-4.6
			c0.6,0.4,1.1,0.7,1.9,0.6c0.8-0.1,1.5-0.7,2-1.4C295.9,23.7,294,21.9,291.4,18.5"/>
	</g>
</g>
</svg>
