<?xml version="1.0" encoding="utf-8"?>
<!-- Generator: Adobe Illustrator 28.0.0, SVG Export Plug-In . SVG Version: 6.00 Build 0)  -->
<svg version="1.1" id="Capa_1" xmlns="http://www.w3.org/2000/svg" xmlns:xlink="http://www.w3.org/1999/xlink" x="0px" y="0px"
	 viewBox="0 0 134 91" style="enable-background:new 0 0 134 91;" xml:space="preserve">
<style type="text/css">
	.st0{clip-path:url(#SVGID_00000168806253590392983500000002316687133354524822_);}
	.st1{fill:#96262C;}
</style>
<g>
	<defs>
		<rect id="SVGID_1_" x="20.2" y="1" width="93.5" height="89"/>
	</defs>
	<clipPath id="SVGID_00000067230431517833249790000011208109356633309365_">
		<use xlink:href="#SVGID_1_"  style="overflow:visible;"/>
	</clipPath>
	<g style="clip-path:url(#SVGID_00000067230431517833249790000011208109356633309365_);">
		<path class="st1" d="M73.2,83.9h3.1v3.1c0,1.7-1.4,3.1-3.1,3.1H23.4c-1.7,0-3.1-1.4-3.1-3.1V19.4c0-1.7,1.4-3.1,3.1-3.1h9.3v3.1
			h-9.3v67.5h49.9V83.9L73.2,83.9z M76.4,77.7H38.9V10.2h8.2c-0.1-0.5-0.2-1-0.2-1.5s0.1-1,0.2-1.5h-8.2c-1.7,0-3.1,1.4-3.1,3.1
			v67.5c0,1.7,1.4,3.1,3.1,3.1h44.9c-1.5-0.9-2.8-1.9-4-3.1L76.4,77.7L76.4,77.7z M88.8,10.2v31.6c1-0.3,2.1-0.5,3.1-0.6V10.2
			c0-1.7-1.4-3.1-3.1-3.1h-8.2c0.1,0.5,0.2,1,0.2,1.5s-0.1,1-0.2,1.5H88.8z M52.1,24.2h2.6v7.5h1.9v-7.5h2.6v-1.7h-7.1V24.2z
			 M58.9,31.7l3.2-9.2H64l3.2,9.2h-2L64.3,29h-2.5l-0.9,2.7H58.9z M62.3,27.4h1.5l-0.7-1.9c0-0.1-0.1-0.2-0.1-0.3
			c0,0.1-0.1,0.2-0.1,0.2L62.3,27.4z M69.8,31.7l1.2-2c0.2-0.5,0.5-0.8,0.6-1.1c0.2,0.3,0.4,0.6,0.7,1.1l1,1.6l0.2,0.4h2.2l-2.4-4
			L72.8,27l0.5-0.7l2.4-3.7h-2.2l-0.2,0.3l-1.1,1.9c-0.2,0.3-0.3,0.6-0.5,0.8c-0.2-0.3-0.3-0.5-0.5-0.8L70,22.5h-2.2l2.7,4.5
			l-2.9,4.7H69.8L69.8,31.7z M51.4,39.4c0,0.9,0.7,1.5,1.6,1.5h21.8c0.9,0,1.6-0.7,1.6-1.5c0-0.9-0.7-1.5-1.6-1.5H53
			C52.1,37.8,51.4,38.5,51.4,39.4z M73.2,56.2H46.7c-0.9,0-1.6,0.7-1.6,1.5c0,0.9,0.7,1.5,1.6,1.5h26.7c0.1-1,0.3-2.1,0.7-3.1H73.2
			L73.2,56.2z M77.2,50.1c0.8-1.1,1.7-2.1,2.6-3.1H46.7c-0.9,0-1.6,0.7-1.6,1.5c0,0.9,0.7,1.5,1.6,1.5H77.2z M73.2,65.5H46.7
			c-0.9,0-1.6,0.7-1.6,1.5c0,0.9,0.7,1.5,1.6,1.5h27.4c-0.3-1-0.5-2-0.7-3.1H73.2z M113.8,62.4c0,10.2-8.4,18.4-18.7,18.4
			c-0.3,0-0.6,0-0.8,0c-0.6,0-1.2-0.1-1.8-0.2c-0.6-0.1-1.2-0.2-1.8-0.4c-2.1-0.5-4.1-1.3-5.9-2.5c-3.3-2.2-6-5.4-7.3-9.2
			c-0.4-1-0.7-2-0.8-3.1c-0.2-1-0.3-2-0.3-3.1c0-1,0.1-2.1,0.3-3.1c0.2-1.1,0.4-2.1,0.8-3.1c0.8-2.3,2.1-4.4,3.7-6.1
			c0.4-0.5,0.9-1,1.4-1.4c1.8-1.6,3.9-2.9,6.2-3.7c1-0.4,2-0.6,3.1-0.8c0.5-0.1,1-0.2,1.6-0.2c0.5,0,1-0.1,1.6-0.1
			C105.4,44,113.8,52.2,113.8,62.4L113.8,62.4z M110.6,62.4c0-8.5-7-15.3-15.6-15.3c-0.5,0-1.1,0-1.6,0.1c-0.5,0-1,0.1-1.6,0.2
			c-1.1,0.2-2.1,0.6-3.1,1c-3.6,1.6-6.5,4.4-8.1,7.9c-0.4,1-0.7,2-1,3.1c-0.2,1-0.3,2-0.3,3.1c0,1,0.1,2.1,0.3,3.1
			c0.2,1.1,0.6,2.1,1,3.1c1.6,3.5,4.5,6.4,8.1,7.9c1,0.4,2,0.7,3.1,1c0.5,0.1,1,0.2,1.6,0.2c0.5,0.1,1,0.1,1.6,0.1
			C103.7,77.7,110.6,70.9,110.6,62.4L110.6,62.4z M50.2,9.4c-0.1-0.2-0.1-0.5-0.1-0.7c0-0.6,0.1-1,0.2-1.5c0.1-0.2,0.1-0.3,0.2-0.5
			c0.1-0.2,0.2-0.3,0.2-0.5c0,0,0,0,0.1-0.1c0.1-0.2,0.2-0.4,0.4-0.5c0,0,0,0,0.1-0.1c0.1-0.1,0.1-0.2,0.2-0.2
			c0.1-0.1,0.1-0.2,0.2-0.2C51.8,5,51.9,5,52,4.9c0.1-0.1,0.2-0.2,0.3-0.2c0.2-0.1,0.3-0.2,0.5-0.3c0.2-0.1,0.5-0.2,0.8-0.3
			c0.3-0.1,0.6-0.1,0.9-0.1h4C59.5,2.2,61.6,1,63.9,1c2.3,0,4.3,1.2,5.4,3.1h4c0.3,0,0.6,0,0.9,0.1c0.3,0.1,0.6,0.2,0.8,0.3
			c0.2,0.1,0.3,0.2,0.5,0.3c0.1,0,0.2,0.1,0.3,0.2C75.8,5,75.9,5,76,5.1c0.2,0.1,0.3,0.2,0.4,0.4c0,0,0,0,0.1,0.1
			c0.2,0.2,0.3,0.3,0.4,0.5c0,0,0,0,0.1,0.1c0.1,0.2,0.2,0.3,0.2,0.5c0.1,0.2,0.1,0.3,0.2,0.5c0.2,0.5,0.2,1,0.2,1.5
			c0,0.3,0,0.7-0.1,1c0,0.1,0,0.2-0.1,0.3c0,0.1,0,0.1,0,0.2c0,0.1-0.1,0.2-0.1,0.3c-0.1,0.4-0.3,0.8-0.6,1.1
			c-0.1,0.1-0.2,0.3-0.4,0.4c-0.1,0.1-0.2,0.2-0.3,0.3c-0.1,0.1-0.2,0.2-0.3,0.2c-0.1,0.1-0.1,0.1-0.2,0.1c-0.1,0.1-0.2,0.2-0.3,0.2
			c-0.1,0.1-0.1,0.1-0.2,0.1h0c0,0,0,0-0.1,0h0c-0.5,0.2-1.1,0.4-1.7,0.4H54.5c-0.6,0-1.2-0.1-1.7-0.4c-0.2-0.1-0.4-0.2-0.6-0.3
			c-0.1,0-0.1-0.1-0.2-0.1c-0.2-0.2-0.4-0.3-0.6-0.5c-0.2-0.1-0.3-0.2-0.4-0.4c-0.2-0.3-0.4-0.7-0.6-1.1c-0.1-0.1-0.1-0.2-0.1-0.3
			c0-0.1-0.1-0.3-0.1-0.5V9.7C50.2,9.6,50.2,9.5,50.2,9.4L50.2,9.4z M54.5,7.1c-1.7,0-1.7,3.1,0,3.1h18.7c1.7,0,1.7-3.1,0-3.1H67
			c0-0.6-0.2-1.1-0.4-1.5C66,4.7,65,4.1,63.9,4.1c-1.2,0-2.2,0.6-2.7,1.5c-0.3,0.5-0.4,1-0.4,1.5H54.5z"/>
		<path class="st1" d="M94,69.8l0.2,0v2.4h2.2v-2.5l0.1,0c1-0.2,1.9-0.7,2.5-1.3c0.8-0.8,1.2-1.8,1.2-2.9c0-2.2-1.2-3.5-3.9-4.7
			c-2.2-0.9-2.8-1.4-2.8-2.4c0-0.8,0.6-1.7,2.2-1.7c1.5,0,2.5,0.5,2.9,0.8l0.3,0.2l0.8-2.2l-0.2-0.1c-0.8-0.5-1.7-0.8-2.8-0.8
			l-0.2,0V52h-2.2v2.5l-0.2,0c-2.2,0.5-3.5,2.1-3.5,4.1c0,2.5,2,3.6,4.2,4.4c1.8,0.7,2.5,1.4,2.5,2.5c0,1.2-1,2-2.5,2
			c-1.2,0-2.4-0.4-3.3-1l-0.4-0.2l-0.7,2l-0.1,0.3l0.2,0.1C91.4,69.3,92.7,69.7,94,69.8z"/>
	</g>
</g>
</svg>
