<svg width="35" height="35" viewBox="0 0 35 35" fill="none" xmlns="http://www.w3.org/2000/svg">
<g id="Frame" clip-path="url(#clip0_123_45)">
<path id="Vector" d="M34.1886 17.1988C34.1886 7.70014 26.5352 0 17.0943 0C7.65337 0 0 7.70014 0 17.1988C0 25.783 6.2511 32.8983 14.4233 34.1886V22.1703H10.083V17.1988H14.4233V13.4097C14.4233 9.09921 16.9754 6.71826 20.8801 6.71826C22.7498 6.71826 24.7066 7.05418 24.7066 7.05418V11.2867H22.5511C20.4277 11.2867 19.7653 12.6125 19.7653 13.974V17.1988H24.5063L23.7484 22.1703H19.7653V34.1886C27.9375 32.8983 34.1886 25.783 34.1886 17.1988Z" fill="white"/>
</g>
<defs>
<clipPath id="clip0_123_45">
<rect width="34.1886" height="34.1886" fill="white"/>
</clipPath>
</defs>
</svg>
