<svg width="35" height="35" viewBox="0 0 35 35" fill="none" xmlns="http://www.w3.org/2000/svg">
<g clip-path="url(#clip0_361_79)">
<path d="M17.5135 3.16705C22.1964 3.16705 22.7378 3.16705 24.5785 3.27533C26.2838 3.35654 27.2042 3.62722 27.8268 3.87084C28.6388 4.19567 29.2343 4.57463 29.8299 5.17015C30.4524 5.79273 30.8314 6.36118 31.1292 7.17324C31.3728 7.79582 31.6435 8.71616 31.7247 10.4215C31.8059 12.2622 31.8329 12.8306 31.8329 17.4865C31.8329 22.1423 31.8329 22.7108 31.7247 24.5514C31.6435 26.2568 31.3728 27.1771 31.1292 27.7997C30.8043 28.6118 30.4254 29.2073 29.8299 29.8028C29.2343 30.3983 28.6388 30.8043 27.8268 31.1021C27.2042 31.3457 26.2838 31.6164 24.5785 31.6976C22.7378 31.7788 22.1694 31.8059 17.5135 31.8059C12.8577 31.8059 12.2893 31.8059 10.4486 31.6976C8.74323 31.6164 7.82289 31.3457 7.20031 31.1021C6.38825 30.7773 5.79273 30.3983 5.19722 29.8028C4.6017 29.2073 4.19567 28.6118 3.89791 27.7997C3.65429 27.1771 3.3836 26.2568 3.3024 24.5514C3.22119 22.7108 3.19412 22.1423 3.19412 17.4865C3.19412 12.8306 3.19412 12.2622 3.3024 10.4215C3.3836 8.71616 3.65429 7.79582 3.89791 7.17324C4.22274 6.36118 4.6017 5.76566 5.19722 5.17015C5.8198 4.54756 6.38825 4.1686 7.20031 3.87084C7.82289 3.62722 8.74323 3.35654 10.4486 3.27533C12.2893 3.19412 12.8577 3.16705 17.5135 3.16705ZM17.5135 0C12.7494 0 12.1539 0 10.2862 0.108275C8.41841 0.189482 7.14617 0.487239 6.03635 0.92034C4.89946 1.35344 3.92498 1.97602 2.9505 2.9505C1.97602 3.92498 1.38051 4.89946 0.92034 6.03635C0.487239 7.14617 0.189482 8.41841 0.108275 10.2862C0.0270688 12.1539 0 12.7494 0 17.5135C0 22.2777 0 22.8732 0.108275 24.7409C0.189482 26.6087 0.487239 27.8809 0.92034 28.9907C1.38051 30.1547 1.97602 31.1292 2.9505 32.0766C3.92498 33.051 4.89946 33.6466 6.03635 34.1067C7.14617 34.5398 8.41841 34.8376 10.2862 34.9188C12.1539 35 12.7494 35.0271 17.5135 35.0271C22.2777 35.0271 22.8732 35.0271 24.7409 34.9188C26.6087 34.8376 27.8809 34.5398 28.9907 34.1067C30.1547 33.6736 31.1292 33.051 32.0766 32.0766C33.024 31.1021 33.6466 30.1276 34.1067 28.9907C34.5398 27.8809 34.8376 26.6087 34.9188 24.7409C35 22.8732 35.0271 22.2777 35.0271 17.5135C35.0271 12.7494 35.0271 12.1539 34.9188 10.2862C34.8376 8.41841 34.5398 7.14617 34.1067 6.03635C33.6736 4.89946 33.051 3.92498 32.0766 2.9505C31.1021 1.97602 30.1276 1.38051 28.9907 0.92034C27.8809 0.487239 26.6087 0.189482 24.7409 0.108275C22.8732 0.0270688 22.2777 0 17.5135 0Z" fill="white"/>
<path d="M17.5137 8.49951C12.5601 8.49951 8.52686 12.5328 8.52686 17.4864C8.52686 22.44 12.5601 26.4732 17.5137 26.4732C22.4673 26.4732 26.5006 22.44 26.5006 17.4864C26.5006 12.5328 22.4673 8.49951 17.5137 8.49951ZM17.5137 23.3332C14.2925 23.3332 11.6668 20.7346 11.6668 17.5134C11.6668 14.2922 14.2925 11.6666 17.5137 11.6666C20.7349 11.6666 23.3335 14.2922 23.3335 17.5134C23.3335 20.7346 20.7349 23.3332 17.5137 23.3332Z" fill="white"/>
<path d="M28.9366 8.1475C28.9366 9.31146 27.9892 10.2589 26.8252 10.2589C25.6613 10.2589 24.7139 9.31146 24.7139 8.1475C24.7139 6.98354 25.6613 6.03613 26.8252 6.03613C27.9892 6.03613 28.9366 6.98354 28.9366 8.1475Z" fill="white"/>
</g>
<defs>
<clipPath id="clip0_361_79">
<rect width="35" height="35" fill="white"/>
</clipPath>
</defs>
</svg>
