<svg width="35" height="35" viewBox="0 0 35 35" fill="none" xmlns="http://www.w3.org/2000/svg">
<g id="Frame" clip-path="url(#clip0_123_47)">
<path id="Vector" d="M32.1998 -0.000106264H3.06766C2.7392 -0.00585782 2.41285 0.0533862 2.10737 0.174232C1.80189 0.295077 1.52331 0.475138 1.28768 0.704043C1.05204 0.932948 0.863979 1.20618 0.734331 1.50803C0.604684 1.80988 0.535996 2.13439 0.532227 2.46289V31.7182C0.536001 32.0469 0.604662 32.3715 0.734265 32.6736C0.863868 32.9756 1.05187 33.2491 1.28745 33.4783C1.52304 33.7075 1.80158 33.8879 2.10708 34.0092C2.41258 34.1304 2.73902 34.1901 3.06766 34.1848H32.1998C32.863 34.1935 33.5026 33.9386 33.978 33.4762C34.4534 33.0137 34.7257 32.3814 34.7353 31.7182V2.46289C34.7306 2.13467 34.6612 1.8106 34.5312 1.50919C34.4013 1.20778 34.2132 0.934916 33.9777 0.706199C33.7423 0.477481 33.4641 0.29739 33.159 0.176199C32.854 0.0550086 32.528 -0.00489742 32.1998 -0.000106264ZM10.6812 29.1321H5.61035V12.8147H10.6812V29.1321ZM8.14579 10.5835C7.56379 10.5843 6.99465 10.4123 6.51043 10.0894C6.02621 9.76647 5.64868 9.30718 5.42562 8.76961C5.20257 8.23205 5.14402 7.64039 5.25739 7.06953C5.37076 6.49867 5.65095 5.97428 6.06249 5.56274C6.47403 5.1512 6.99842 4.87102 7.56928 4.75765C8.14013 4.64428 8.73178 4.70283 9.26935 4.92589C9.80691 5.14894 10.2662 5.52647 10.5891 6.01069C10.912 6.49491 11.084 7.06404 11.0833 7.64604C11.0833 8.42449 10.7743 9.1711 10.2242 9.72188C9.67408 10.2727 8.92786 10.5826 8.14942 10.5835H8.14579ZM29.6717 29.1321H24.6008V21.1961C24.6008 19.3054 24.5646 16.8714 21.9639 16.8714C19.3633 16.8714 18.9214 18.9324 18.9214 21.0585V29.1321H13.8505V12.8147H18.7149V15.0459H18.7838C19.4611 13.7601 21.1127 12.409 23.583 12.409C28.7154 12.409 29.6644 15.7884 29.6644 20.182L29.6717 29.1321Z" fill="white"/>
</g>
<defs>
<clipPath id="clip0_123_47">
<rect width="34.1886" height="34.1886" fill="white" transform="translate(0.542969)"/>
</clipPath>
</defs>
</svg>
