<svg width="190" height="48" viewBox="0 0 190 48" fill="none" xmlns="http://www.w3.org/2000/svg">
<path id="Vector" d="M183.98 40.5805C183.98 40.2897 183.98 39.9684 183.98 39.6011C183.98 39.2337 183.98 38.8817 183.98 38.5144C183.98 38.1471 183.98 37.7798 183.98 37.4278C183.98 37.0758 183.98 36.7698 183.98 36.4943C183.953 36.1104 183.866 35.7333 183.72 35.3771C183.591 35.0438 183.392 34.7414 183.139 34.4894C182.877 34.2218 182.558 34.0176 182.205 33.8926C181.785 33.732 181.338 33.654 180.889 33.663C180.439 33.654 179.993 33.732 179.573 33.8926C179.22 34.0176 178.901 34.2218 178.639 34.4894C178.385 34.7414 178.187 35.0438 178.058 35.3771C177.939 35.7172 177.872 36.0732 177.859 36.4331C177.859 36.7085 177.859 37.0146 177.859 37.3666C177.859 37.7186 177.859 38.0706 177.859 38.4532C177.859 38.8358 177.859 39.1878 177.859 39.5398C177.859 39.8918 177.859 40.2285 177.859 40.5193C177.899 41.2693 178.196 41.9825 178.7 42.5395C178.998 42.8237 179.352 43.0416 179.74 43.1788C180.128 43.316 180.54 43.3693 180.95 43.3353C181.358 43.37 181.768 43.317 182.154 43.1797C182.539 43.0424 182.891 42.8241 183.185 42.5395C183.687 41.98 183.988 41.2692 184.042 40.5193L183.98 40.5805ZM173.329 36.3106C173.371 35.4246 173.573 34.5535 173.925 33.7395C174.285 32.9421 174.806 32.228 175.456 31.6429C176.142 31.0324 176.936 30.5549 177.797 30.2349C178.815 29.8767 179.887 29.7006 180.965 29.7145C182.044 29.7028 183.116 29.8789 184.133 30.2349C184.994 30.5549 185.788 31.0324 186.475 31.6429C187.125 32.228 187.646 32.9421 188.005 33.7395C188.362 34.5937 188.554 35.5076 188.572 36.4331C188.572 37.1218 188.572 37.8563 188.572 38.6216C188.572 39.3868 188.572 40.152 188.572 40.7642C188.529 41.6502 188.327 42.5213 187.975 43.3353C187.616 44.1327 187.094 44.8468 186.444 45.4319C185.766 46.0529 184.969 46.5317 184.103 46.8399C183.087 47.2032 182.014 47.3795 180.935 47.3603C179.856 47.3836 178.782 47.2072 177.767 46.8399C176.9 46.5317 176.104 46.0529 175.425 45.4319C174.775 44.8468 174.254 44.1327 173.895 43.3353C173.542 42.5213 173.34 41.6502 173.298 40.7642C173.298 40.0908 173.298 39.3868 173.298 38.6216C173.298 37.8563 173.267 37.0605 173.344 36.4331L173.329 36.3106ZM159.279 36.4331C159.279 36.6473 159.279 36.9381 159.279 37.3054C159.279 37.6727 159.279 38.0706 159.279 38.4685C159.279 38.8664 159.279 39.249 159.279 39.6316C159.279 40.0142 159.279 40.305 159.279 40.5193C159.311 40.8832 159.383 41.2425 159.494 41.5906C159.614 41.9223 159.796 42.2286 160.029 42.4935C160.291 42.7643 160.61 42.9734 160.963 43.1057C161.403 43.2715 161.87 43.3495 162.34 43.3353C162.801 43.3496 163.262 43.2876 163.702 43.1516C164.021 43.0413 164.321 42.8812 164.59 42.6772C164.801 42.5025 164.978 42.2896 165.11 42.0497C165.219 41.8485 165.311 41.6386 165.386 41.4222C165.433 41.2194 165.527 41.0306 165.661 40.8713C165.738 40.8095 165.826 40.764 165.921 40.7377C166.016 40.7113 166.115 40.7047 166.212 40.7183H169.395C169.466 40.7154 169.537 40.7276 169.603 40.754C169.669 40.7803 169.729 40.8203 169.778 40.8713C169.829 40.9207 169.869 40.9804 169.895 41.0463C169.922 41.1122 169.934 41.1829 169.931 41.2539C169.92 42.0658 169.716 42.8633 169.334 43.5801C168.956 44.3089 168.436 44.9543 167.804 45.4779C167.078 46.0347 166.267 46.469 165.401 46.7634C164.438 47.0818 163.431 47.242 162.417 47.2378C161.374 47.2427 160.338 47.0667 159.356 46.7175C158.491 46.3982 157.696 45.9149 157.014 45.2942C156.364 44.7037 155.842 43.9845 155.484 43.1822C155.131 42.379 154.929 41.5179 154.887 40.6417C154.887 39.9683 154.887 39.2644 154.887 38.4991C154.887 37.7339 154.887 36.9687 154.887 36.3106C154.916 35.4344 155.114 34.5719 155.469 33.7701C155.834 32.9719 156.354 32.2541 156.999 31.6582C157.681 31.0375 158.476 30.5542 159.341 30.2349C160.348 29.8803 161.41 29.7042 162.478 29.7145C163.492 29.7027 164.501 29.8632 165.462 30.189C166.328 30.4834 167.14 30.9176 167.865 31.4745C168.497 31.9981 169.018 32.6435 169.395 33.3722C169.777 34.089 169.982 34.8866 169.992 35.6985C169.995 35.7694 169.983 35.8402 169.957 35.9061C169.93 35.972 169.89 36.0317 169.839 36.0811C169.79 36.1321 169.73 36.172 169.664 36.1984C169.598 36.2248 169.528 36.2369 169.457 36.2341H166.227C166.13 36.2476 166.031 36.241 165.936 36.2147C165.841 36.1884 165.753 36.1429 165.677 36.0811C165.542 35.9218 165.448 35.733 165.401 35.5301C165.329 35.3126 165.237 35.1025 165.126 34.9027C164.997 34.6601 164.82 34.4465 164.605 34.2752C164.336 34.0712 164.037 33.9111 163.718 33.8008C163.278 33.6587 162.817 33.5915 162.356 33.6018C161.884 33.5842 161.415 33.6677 160.978 33.8467C160.625 33.979 160.307 34.1881 160.045 34.4588C159.811 34.7238 159.63 35.03 159.509 35.3618C159.396 35.7094 159.325 36.0689 159.295 36.4331H159.279ZM146.669 46.993C146.582 46.9961 146.496 46.9798 146.417 46.9454C146.337 46.911 146.266 46.8593 146.21 46.794C146.144 46.7371 146.093 46.6664 146.058 46.5869C146.024 46.5075 146.008 46.4214 146.011 46.3349V30.6175C146.008 30.531 146.024 30.4449 146.058 30.3654C146.093 30.286 146.144 30.2152 146.21 30.1583C146.266 30.0931 146.337 30.0414 146.417 30.007C146.496 29.9726 146.582 29.9563 146.669 29.9594H149.852C149.941 29.9581 150.028 29.9751 150.11 30.0093C150.192 30.0436 150.265 30.0943 150.326 30.1583C150.387 30.2184 150.434 30.2901 150.465 30.3691C150.497 30.448 150.512 30.5325 150.51 30.6175V46.3349C150.512 46.4199 150.497 46.5044 150.465 46.5833C150.434 46.6622 150.387 46.7339 150.326 46.794C150.265 46.8581 150.192 46.9088 150.11 46.943C150.028 46.9773 149.941 46.9943 149.852 46.993H146.669ZM141.328 29.9594C141.416 29.9581 141.504 29.9751 141.586 30.0093C141.667 30.0436 141.741 30.0943 141.802 30.1583C141.862 30.2184 141.909 30.2901 141.941 30.3691C141.973 30.448 141.988 30.5325 141.986 30.6175V33.1886C141.987 33.3644 141.922 33.5341 141.802 33.663C141.673 33.7825 141.503 33.8482 141.328 33.8467H134.058V37.183H140.853C140.939 37.1829 141.024 37.2005 141.103 37.2347C141.182 37.2689 141.253 37.319 141.312 37.3819C141.372 37.442 141.42 37.5137 141.451 37.5926C141.483 37.6716 141.498 37.7561 141.496 37.8411V40.4275C141.495 40.5983 141.429 40.7624 141.312 40.8866C141.19 41.0081 141.026 41.0791 140.853 41.0855H134.058V46.3349C134.061 46.4214 134.045 46.5075 134.01 46.5869C133.976 46.6664 133.924 46.7371 133.859 46.794C133.802 46.8593 133.731 46.911 133.652 46.9454C133.573 46.9798 133.486 46.9961 133.4 46.993H130.217C130.13 46.9961 130.044 46.9798 129.965 46.9454C129.885 46.911 129.814 46.8593 129.758 46.794C129.692 46.7371 129.641 46.6664 129.606 46.5869C129.572 46.5075 129.556 46.4214 129.559 46.3349V30.6175C129.556 30.531 129.572 30.4449 129.606 30.3654C129.641 30.286 129.692 30.2152 129.758 30.1583C129.814 30.0931 129.885 30.0414 129.965 30.007C130.044 29.9726 130.13 29.9563 130.217 29.9594H141.328ZM122.963 25.3681C123.084 25.2132 123.235 25.0833 123.406 24.9855C123.554 24.9326 123.709 24.9067 123.865 24.909H127.355C127.661 24.909 127.814 25.0774 127.814 25.3987C127.816 25.4533 127.807 25.5077 127.786 25.558C127.764 25.6083 127.732 25.6532 127.692 25.6895L124.416 28.3984L124.003 28.6892C123.811 28.7768 123.602 28.8187 123.391 28.8116H121.004C120.743 28.8116 120.621 28.6738 120.621 28.4137C120.618 28.3545 120.627 28.2955 120.649 28.2402C120.67 28.1848 120.702 28.1345 120.743 28.0923L122.963 25.3681ZM120.896 47.0542C120.81 47.0573 120.724 47.041 120.644 47.0066C120.565 46.9722 120.494 46.9205 120.437 46.8552C120.372 46.7983 120.32 46.7276 120.286 46.6482C120.252 46.5687 120.235 46.4826 120.238 46.3961V30.6787C120.235 30.5922 120.252 30.5061 120.286 30.4266C120.32 30.3472 120.372 30.2765 120.437 30.2196C120.494 30.1543 120.565 30.1026 120.644 30.0682C120.724 30.0338 120.81 30.0175 120.896 30.0206H124.08C124.166 30.0175 124.252 30.0338 124.332 30.0682C124.411 30.1026 124.482 30.1543 124.539 30.2196C124.604 30.2765 124.656 30.3472 124.69 30.4266C124.725 30.5061 124.741 30.5922 124.738 30.6787V46.3961C124.741 46.4826 124.725 46.5687 124.69 46.6482C124.656 46.7276 124.604 46.7983 124.539 46.8552C124.482 46.9205 124.411 46.9722 124.332 47.0066C124.252 47.041 124.166 47.0573 124.08 47.0542H120.896ZM105.592 36.4943C105.592 36.7085 105.592 36.9993 105.592 37.3666C105.592 37.7339 105.592 38.1318 105.592 38.5297C105.592 38.9277 105.592 39.3103 105.592 39.6929C105.592 40.0755 105.592 40.3663 105.592 40.5805C105.621 40.9461 105.699 41.3063 105.822 41.6518C105.93 41.9892 106.113 42.2979 106.357 42.5547C106.617 42.8218 106.93 43.0304 107.276 43.1669C107.721 43.3327 108.194 43.4107 108.668 43.3965C109.129 43.4084 109.589 43.3464 110.03 43.2128C110.343 43.0991 110.637 42.9392 110.903 42.7384C111.114 42.5637 111.291 42.3508 111.423 42.1109C111.532 41.9097 111.624 41.6999 111.699 41.4835C111.758 41.2854 111.851 41.099 111.974 40.9325C112.051 40.8707 112.139 40.8252 112.234 40.7989C112.328 40.7726 112.428 40.7659 112.525 40.7795H115.724C115.792 40.7788 115.86 40.792 115.923 40.8183C115.986 40.8446 116.043 40.8835 116.091 40.9325C116.144 40.9812 116.186 41.0403 116.215 41.1062C116.244 41.172 116.259 41.2432 116.259 41.3151C116.243 42.1282 116.033 42.9257 115.647 43.6414C115.273 44.3727 114.752 45.0188 114.117 45.5391C113.391 46.0959 112.58 46.5302 111.714 46.8246C110.757 47.1448 109.754 47.3051 108.745 47.2991C107.702 47.3033 106.667 47.1273 105.684 46.7787C104.821 46.4557 104.027 45.9728 103.343 45.3554C102.697 44.7606 102.176 44.0425 101.812 43.2434C101.46 42.4402 101.257 41.5791 101.215 40.7029C101.215 40.0295 101.215 39.3256 101.215 38.5604C101.215 37.7951 101.215 37.0299 101.215 36.3719C101.245 35.4956 101.442 34.6331 101.797 33.8314C102.162 33.0331 102.683 32.3153 103.327 31.7194C104.012 31.0954 104.813 30.6119 105.684 30.2961C106.667 29.9475 107.702 29.7715 108.745 29.7757C109.754 29.7627 110.759 29.9232 111.714 30.2502C112.58 30.5446 113.391 30.9789 114.117 31.5357C114.752 32.056 115.273 32.7021 115.647 33.4334C116.033 34.1491 116.243 34.9466 116.259 35.7597C116.259 35.8316 116.244 35.9028 116.215 35.9686C116.186 36.0345 116.144 36.0936 116.091 36.1423C116.043 36.1913 115.986 36.2302 115.923 36.2565C115.86 36.2828 115.792 36.296 115.724 36.2953H112.525C112.428 36.3089 112.328 36.3022 112.234 36.2759C112.139 36.2496 112.051 36.2041 111.974 36.1423C111.851 35.9758 111.758 35.7894 111.699 35.5913C111.627 35.3739 111.535 35.1637 111.423 34.9639C111.295 34.7213 111.117 34.5077 110.903 34.3364C110.637 34.1356 110.343 33.9757 110.03 33.862C109.59 33.7224 109.13 33.6552 108.668 33.663C108.192 33.6456 107.718 33.7291 107.276 33.9079C106.93 34.0444 106.617 34.253 106.357 34.5201C106.113 34.7769 105.93 35.0856 105.822 35.423C105.708 35.7491 105.635 36.0886 105.608 36.4331L105.592 36.4943ZM88.2373 40.657H92.1552L90.181 34.8108L88.2373 40.657ZM92.1858 30.0206C92.3195 30.0123 92.4534 30.0311 92.5796 30.0758C92.7059 30.1205 92.8218 30.1902 92.9204 30.2808C93.0707 30.4354 93.1901 30.6172 93.2724 30.8164L98.5829 46.1206C98.6322 46.2376 98.6632 46.3615 98.6748 46.4879C98.6774 46.5566 98.665 46.625 98.6386 46.6884C98.6122 46.7518 98.5723 46.8087 98.5217 46.8552C98.4731 46.9082 98.4139 46.9505 98.3481 46.9795C98.2822 47.0085 98.2111 47.0235 98.1391 47.0236H95.0783C94.8295 47.0456 94.582 46.9686 94.3896 46.8093C94.2671 46.7039 94.1769 46.5659 94.1294 46.4114L93.4407 44.3912H86.9824L86.2937 46.4114C86.2462 46.5659 86.156 46.7039 86.0335 46.8093C85.8411 46.9686 85.5936 47.0456 85.3448 47.0236H82.284C82.212 47.0235 82.1409 47.0085 82.075 46.9795C82.0092 46.9505 81.9501 46.9082 81.9014 46.8552C81.8508 46.8087 81.8109 46.7518 81.7845 46.6884C81.7581 46.625 81.7457 46.5566 81.7483 46.4879C81.76 46.3615 81.7909 46.2376 81.8402 46.1206L87.1507 30.8164C87.2545 30.623 87.3949 30.4515 87.5639 30.3114C87.6626 30.2208 87.7785 30.1511 87.9047 30.1064C88.0309 30.0617 88.1649 30.0429 88.2985 30.0512L92.1858 30.0206ZM70.7599 37.6727H73.7902C74.3901 37.6978 74.9833 37.5375 75.4889 37.2136C75.7267 37.0418 75.9135 36.8088 76.0294 36.5393C76.1453 36.2698 76.1859 35.9739 76.147 35.6832C76.1859 35.3924 76.1453 35.0965 76.0294 34.827C75.9135 34.5575 75.7267 34.3245 75.4889 34.1527C74.9833 33.8288 74.3901 33.6686 73.7902 33.6936H70.7293L70.7599 37.6727ZM73.8208 30.0206C74.766 30.0108 75.7081 30.1292 76.6214 30.3726C77.3923 30.579 78.1115 30.9439 78.7334 31.4439C79.3233 31.9204 79.786 32.5356 80.0802 33.2345C80.4133 34.0177 80.575 34.863 80.5546 35.7138C80.5747 36.5745 80.4131 37.4297 80.0802 38.2237C79.7806 38.9152 79.3186 39.5242 78.7334 39.999C78.1078 40.4932 77.3898 40.8574 76.6214 41.0702C75.7104 41.3265 74.7671 41.4502 73.8208 41.4375H70.7599V46.3961C70.7592 46.482 70.7411 46.567 70.707 46.6458C70.6728 46.7247 70.6231 46.7959 70.561 46.8552C70.5022 46.9181 70.4311 46.9682 70.3521 47.0025C70.2731 47.0367 70.1879 47.0543 70.1018 47.0542H66.9033C66.8172 47.0543 66.732 47.0367 66.653 47.0025C66.574 46.9682 66.5029 46.9181 66.4441 46.8552C66.384 46.7951 66.3368 46.7234 66.3052 46.6445C66.2736 46.5656 66.2584 46.4811 66.2605 46.3961V30.6787C66.2584 30.5937 66.2736 30.5092 66.3052 30.4303C66.3368 30.3514 66.384 30.2797 66.4441 30.2196C66.5029 30.1567 66.574 30.1066 66.653 30.0723C66.732 30.0381 66.8172 30.0205 66.9033 30.0206H73.8208ZM49.7014 43.1516C49.7873 43.1524 49.8722 43.1704 49.9511 43.2046C50.0299 43.2387 50.1011 43.2884 50.1605 43.3506C50.2234 43.4094 50.2735 43.4804 50.3077 43.5594C50.3419 43.6384 50.3596 43.7236 50.3594 43.8097V46.3961C50.3625 46.4826 50.3463 46.5687 50.3119 46.6482C50.2775 46.7276 50.2257 46.7983 50.1605 46.8552C50.1036 46.9205 50.0328 46.9722 49.9534 47.0066C49.874 47.041 49.7879 47.0573 49.7014 47.0542H38.4375C38.351 47.0573 38.2649 47.041 38.1854 47.0066C38.106 46.9722 38.0353 46.9205 37.9784 46.8552C37.9131 46.7983 37.8614 46.7276 37.827 46.6482C37.7925 46.5687 37.7763 46.4826 37.7794 46.3961V30.6787C37.7763 30.5922 37.7925 30.5061 37.827 30.4266C37.8614 30.3472 37.9131 30.2765 37.9784 30.2196C38.0353 30.1543 38.106 30.1026 38.1854 30.0682C38.2649 30.0338 38.351 30.0175 38.4375 30.0206H41.6514C41.7399 30.0193 41.8277 30.0363 41.9094 30.0706C41.991 30.1048 42.0647 30.1555 42.1258 30.2196C42.1859 30.2797 42.2332 30.3514 42.2648 30.4303C42.2963 30.5092 42.3115 30.5937 42.3094 30.6787V43.1516H49.7014ZM32.8667 43.1516C32.9527 43.1524 33.0376 43.1704 33.1165 43.2046C33.1953 43.2387 33.2665 43.2884 33.3259 43.3506C33.3888 43.4094 33.4389 43.4804 33.4731 43.5594C33.5073 43.6384 33.5249 43.7236 33.5248 43.8097V46.3961C33.5279 46.4826 33.5117 46.5687 33.4773 46.6482C33.4428 46.7276 33.3911 46.7983 33.3259 46.8552C33.269 46.9205 33.1982 46.9722 33.1188 47.0066C33.0394 47.041 32.9533 47.0573 32.8667 47.0542H21.3274C21.2413 47.0543 21.1561 47.0367 21.0772 47.0025C20.9982 46.9682 20.9271 46.9181 20.8683 46.8552C20.8081 46.7951 20.7609 46.7234 20.7293 46.6445C20.6977 46.5656 20.6825 46.4811 20.6846 46.3961V30.6787C20.6825 30.5937 20.6977 30.5092 20.7293 30.4303C20.7609 30.3514 20.8081 30.2797 20.8683 30.2196C20.9271 30.1567 20.9982 30.1066 21.0772 30.0723C21.1561 30.0381 21.2413 30.0205 21.3274 30.0206H32.6678C32.7543 30.0175 32.8404 30.0338 32.9198 30.0682C32.9993 30.1026 33.07 30.1543 33.1269 30.2196C33.1922 30.2765 33.2439 30.3472 33.2783 30.4266C33.3127 30.5061 33.329 30.5922 33.3259 30.6787V33.2498C33.3272 33.3383 33.3102 33.4262 33.2759 33.5078C33.2417 33.5894 33.191 33.6631 33.1269 33.7242C33.0668 33.7843 32.9951 33.8316 32.9162 33.8632C32.8373 33.8948 32.7528 33.91 32.6678 33.9079H25.1841V36.5402H32.1321C32.2207 36.5389 32.3085 36.5559 32.3901 36.5901C32.4718 36.6244 32.5455 36.6751 32.6066 36.7392C32.6667 36.7993 32.714 36.8709 32.7455 36.9499C32.7771 37.0288 32.7923 37.1133 32.7902 37.1983V39.7694C32.7918 39.9452 32.7261 40.1149 32.6066 40.2438C32.4777 40.3633 32.3079 40.429 32.1321 40.4275H25.1841V43.1516H32.8667ZM11.9306 36.7085C11.8388 34.8414 10.7369 33.9079 8.62491 33.9079H6.14564V43.0904H8.74735C10.7981 43.0904 11.8082 42.1721 11.9306 40.305C11.9306 39.953 11.9306 39.6316 11.9306 39.3409V37.5962C12.0224 37.3666 12.0071 37.0452 11.9918 36.7085H11.9306ZM8.74735 30.0206C9.78939 30.0077 10.8255 30.1786 11.8082 30.5257C12.6936 30.8257 13.5105 31.2992 14.211 31.9183C14.8669 32.5222 15.3884 33.2575 15.7414 34.0762C16.132 34.9388 16.3503 35.8694 16.3841 36.8157C16.3841 37.1524 16.3841 37.4585 16.3841 37.7492V39.2797C16.3841 39.5551 16.3841 39.8612 16.3841 40.1826C16.3478 41.1318 16.135 42.066 15.7567 42.9374C15.4018 43.7506 14.8805 44.4805 14.2262 45.0799C13.542 45.6897 12.7471 46.1625 11.8847 46.4726C10.9026 46.8215 9.86606 46.9926 8.82387 46.9777H2.25836C2.17185 46.9808 2.08575 46.9645 2.00632 46.9301C1.92689 46.8957 1.85615 46.8439 1.79925 46.7787C1.73401 46.7218 1.68228 46.6511 1.64786 46.5716C1.61344 46.4922 1.59719 46.4061 1.60029 46.3196V30.6022C1.59719 30.5157 1.61344 30.4295 1.64786 30.3501C1.68228 30.2707 1.73401 30.1999 1.79925 30.143C1.85615 30.0778 1.92689 30.0261 2.00632 29.9917C2.08575 29.9573 2.17185 29.941 2.25836 29.9441L8.74735 30.0206ZM178.899 11.8239H182.848L180.919 5.97774L178.899 11.8239ZM182.909 1.23343C183.044 1.22431 183.179 1.24418 183.306 1.2917C183.433 1.33921 183.548 1.41325 183.644 1.5089C183.805 1.65397 183.927 1.83854 183.996 2.04455L189.306 17.3487C189.355 17.4658 189.386 17.5896 189.398 17.7161C189.401 17.787 189.389 17.8578 189.362 17.9237C189.336 17.9896 189.296 18.0492 189.245 18.0987C189.196 18.1496 189.136 18.1896 189.07 18.216C189.004 18.2424 188.933 18.2545 188.862 18.2517H185.802C185.553 18.2737 185.305 18.1967 185.113 18.0374C184.99 17.932 184.9 17.794 184.853 17.6395L184.179 15.6194H177.706L177.017 17.6395C176.976 17.7933 176.891 17.9317 176.772 18.0374C176.572 18.1935 176.321 18.2698 176.068 18.2517H173.007C172.936 18.2545 172.866 18.2424 172.8 18.216C172.734 18.1896 172.674 18.1496 172.625 18.0987C172.574 18.0492 172.534 17.9896 172.507 17.9237C172.481 17.8578 172.469 17.787 172.472 17.7161C172.483 17.5896 172.514 17.4658 172.563 17.3487L177.874 2.04455C177.949 1.84132 178.069 1.65801 178.226 1.5089C178.322 1.41325 178.437 1.33921 178.563 1.2917C178.69 1.24418 178.826 1.22431 178.961 1.23343H182.909ZM160.488 8.61006H163.228C163.819 8.6312 164.406 8.49381 164.927 8.21214C165.152 8.05759 165.332 7.8455 165.448 7.5979C165.563 7.3503 165.611 7.07623 165.585 6.80416C165.611 6.53209 165.563 6.25801 165.448 6.01041C165.332 5.76281 165.152 5.55072 164.927 5.39617C164.404 5.11981 163.818 4.98774 163.228 5.01357H160.488V8.61006ZM163.228 1.23343C164.197 1.22596 165.164 1.33906 166.105 1.57013C166.879 1.77059 167.606 2.11878 168.248 2.5955C168.844 3.05077 169.313 3.65153 169.61 4.34018C169.943 5.11791 170.105 5.95829 170.084 6.80416C170.135 7.87543 169.874 8.93849 169.334 9.865C168.826 10.6829 168.078 11.3242 167.192 11.7015L170.252 17.5018C170.278 17.5867 170.278 17.6771 170.252 17.762C170.255 17.8329 170.243 17.9037 170.217 17.9696C170.19 18.0355 170.15 18.0951 170.099 18.1446C170.05 18.1955 169.99 18.2355 169.924 18.2619C169.859 18.2883 169.788 18.3004 169.717 18.2976H166.411C166.162 18.3196 165.915 18.2426 165.722 18.0833C165.596 17.9468 165.483 17.7982 165.386 17.6395L162.692 12.4361H160.458V17.6395C160.457 17.7255 160.439 17.8104 160.405 17.8892C160.371 17.9681 160.321 18.0393 160.259 18.0987C160.2 18.1615 160.129 18.2116 160.05 18.2459C159.971 18.2801 159.886 18.2977 159.8 18.2976H156.601C156.515 18.2977 156.43 18.2801 156.351 18.2459C156.272 18.2116 156.201 18.1615 156.142 18.0987C156.08 18.0393 156.03 17.9681 155.996 17.8892C155.962 17.8104 155.944 17.7255 155.943 17.6395V1.84559C155.944 1.75965 155.962 1.67474 155.996 1.59588C156.03 1.51702 156.08 1.44582 156.142 1.38648C156.201 1.3236 156.272 1.27347 156.351 1.23925C156.43 1.20502 156.515 1.18742 156.601 1.18752L163.228 1.23343ZM147.495 11.7933C147.495 11.5076 147.495 11.1863 147.495 10.8292C147.495 10.4619 147.495 10.0946 147.495 9.72726C147.495 9.35996 147.495 8.99265 147.495 8.64066C147.495 8.28866 147.495 7.98257 147.495 7.7071C147.466 7.32352 147.379 6.94668 147.235 6.5899C147.107 6.25551 146.909 5.95269 146.653 5.70225C146.392 5.43458 146.073 5.2304 145.72 5.10539C145.299 4.94889 144.852 4.87611 144.404 4.89113C143.955 4.87728 143.508 4.95003 143.088 5.10539C142.735 5.2304 142.415 5.43458 142.154 5.70225C141.904 5.9569 141.706 6.25857 141.572 6.5899C141.429 6.94668 141.341 7.32352 141.312 7.7071C141.312 7.98257 141.312 8.28866 141.312 8.64066C141.312 8.99265 141.312 9.35996 141.312 9.72726C141.312 10.0946 141.312 10.4619 141.312 10.8292C141.312 11.1965 141.312 11.5025 141.312 11.7933C141.353 12.5433 141.65 13.2565 142.154 13.8135C142.45 14.1005 142.804 14.3212 143.192 14.461C143.579 14.6009 143.993 14.6566 144.404 14.6246C144.813 14.6584 145.224 14.6034 145.61 14.4634C145.995 14.3234 146.346 14.1017 146.638 13.8135C147.15 13.2419 147.452 12.5134 147.495 11.7474V11.7933ZM136.782 7.58466C136.824 6.69862 137.027 5.82754 137.379 5.01357C137.735 4.21881 138.257 3.50922 138.91 2.9322C139.591 2.31149 140.386 1.82821 141.251 1.5089C142.268 1.15076 143.341 0.97463 144.419 0.988559C145.497 0.976839 146.569 1.15291 147.587 1.5089C148.452 1.82821 149.247 2.31149 149.929 2.9322C150.581 3.50922 151.103 4.21881 151.459 5.01357C151.811 5.82754 152.014 6.69862 152.056 7.58466C152.056 8.28866 152.056 9.00796 152.056 9.77317C152.056 10.5384 152.056 11.3036 152.056 11.9158C152.014 12.8018 151.811 13.6729 151.459 14.4869C151.1 15.2843 150.579 15.9984 149.929 16.5835C149.254 17.2101 148.457 17.6895 147.587 17.9915C146.571 18.3548 145.498 18.531 144.419 18.5119C143.34 18.5352 142.266 18.3588 141.251 17.9915C140.381 17.6895 139.584 17.2101 138.91 16.5835C138.259 15.9984 137.738 15.2843 137.379 14.4869C137.027 13.6729 136.824 12.8018 136.782 11.9158C136.782 11.2577 136.782 10.5384 136.782 9.77317C136.782 9.00796 136.782 8.24274 136.813 7.53875L136.782 7.58466ZM128.901 7.92136C128.809 6.05424 127.707 5.13601 125.595 5.13601H123.116V14.3185H125.717C127.768 14.3185 128.778 13.385 128.901 11.5179C128.901 11.1812 128.901 10.8598 128.901 10.5537V8.88553C128.962 8.53353 128.885 8.22744 128.885 7.87545L128.901 7.92136ZM125.824 1.23343C126.866 1.22048 127.903 1.39145 128.885 1.73847C129.771 2.03855 130.588 2.51199 131.288 3.13116C131.944 3.73506 132.465 4.47029 132.818 5.28903C133.209 6.15161 133.427 7.0822 133.461 8.0285C133.461 8.36519 133.461 8.67127 133.461 8.96205V10.5843C133.461 10.8598 133.461 11.1506 133.461 11.4719C133.425 12.4212 133.212 13.3554 132.834 14.2267C132.479 15.04 131.958 15.7698 131.303 16.3693C130.623 16.9845 129.827 17.4579 128.962 17.762C127.98 18.1109 126.943 18.2819 125.901 18.267H119.335C119.249 18.2701 119.163 18.2538 119.083 18.2194C119.004 18.185 118.933 18.1333 118.876 18.068C118.811 18.0111 118.759 17.9404 118.725 17.861C118.691 17.7815 118.674 17.6954 118.677 17.6089V1.84559C118.674 1.75908 118.691 1.67298 118.725 1.59355C118.759 1.51412 118.811 1.44338 118.876 1.38648C118.933 1.32124 119.004 1.26951 119.083 1.23509C119.163 1.20067 119.249 1.18442 119.335 1.18752L125.824 1.23343ZM105.179 11.8698H108.99L107.016 6.02365L105.179 11.8698ZM108.99 1.23343C109.127 1.22407 109.265 1.24376 109.394 1.29123C109.523 1.33869 109.641 1.41286 109.74 1.5089C109.897 1.65801 110.017 1.84132 110.092 2.04455L115.387 17.3487C115.446 17.4629 115.483 17.5878 115.494 17.7161C115.494 17.788 115.479 17.8591 115.45 17.925C115.421 17.9908 115.379 18.05 115.326 18.0987C115.278 18.1477 115.221 18.1866 115.158 18.2129C115.095 18.2392 115.027 18.2524 114.958 18.2517H111.898C111.649 18.2737 111.401 18.1967 111.209 18.0374C111.091 17.9278 111.002 17.7912 110.949 17.6395L110.275 15.6194H103.802L103.128 17.6395C103.075 17.7912 102.986 17.9278 102.868 18.0374C102.676 18.1967 102.428 18.2737 102.179 18.2517H99.1186C99.0499 18.2543 98.9815 18.242 98.9181 18.2155C98.8547 18.1891 98.7978 18.1492 98.7513 18.0987C98.6983 18.05 98.656 17.9908 98.627 17.925C98.598 17.8591 98.583 17.788 98.5829 17.7161C98.5942 17.5878 98.6306 17.4629 98.6901 17.3487L103.985 2.04455C104.06 1.84132 104.18 1.65801 104.337 1.5089C104.436 1.41286 104.554 1.33869 104.683 1.29123C104.812 1.24376 104.95 1.22407 105.087 1.23343H108.99ZM97.7106 1.23343C97.7971 1.23033 97.8832 1.24658 97.9627 1.281C98.0421 1.31542 98.1128 1.36715 98.1697 1.43239C98.235 1.48929 98.2867 1.56003 98.3211 1.63946C98.3555 1.71889 98.3718 1.80499 98.3687 1.8915V4.47791C98.3688 4.564 98.3512 4.64919 98.317 4.72818C98.2827 4.80717 98.2326 4.87825 98.1697 4.93704C98.1104 4.99922 98.0392 5.04887 97.9603 5.08304C97.8815 5.11722 97.7965 5.13522 97.7106 5.13601H93.4254V17.6089C93.4285 17.6954 93.4123 17.7815 93.3779 17.861C93.3435 17.9404 93.2917 18.0111 93.2265 18.068C93.1696 18.1333 93.0988 18.185 93.0194 18.2194C92.94 18.2538 92.8539 18.2701 92.7673 18.267H89.5841C89.4976 18.2701 89.4115 18.2538 89.332 18.2194C89.2526 18.185 89.1819 18.1333 89.125 18.068C89.0597 18.0111 89.008 17.9404 88.9736 17.861C88.9391 17.7815 88.9229 17.6954 88.926 17.6089V5.13601H84.6408C84.4683 5.1296 84.3044 5.05858 84.1817 4.93704C84.0602 4.81436 83.9892 4.65049 83.9828 4.47791V1.8915C83.9835 1.80556 84.0015 1.72066 84.0357 1.64179C84.0699 1.56293 84.1195 1.49173 84.1817 1.43239C84.2405 1.36951 84.3116 1.31938 84.3906 1.28516C84.4696 1.25093 84.5547 1.23333 84.6408 1.23343H97.7106ZM76.851 18.2211C76.7645 18.2242 76.6784 18.2079 76.5989 18.1735C76.5195 18.1391 76.4488 18.0874 76.3919 18.0221C76.3266 17.9652 76.2749 17.8945 76.2405 17.8151C76.2061 17.7356 76.1898 17.6495 76.1929 17.563V1.84559C76.1898 1.75908 76.2061 1.67298 76.2405 1.59355C76.2749 1.51412 76.3266 1.44338 76.3919 1.38648C76.4488 1.32124 76.5195 1.26951 76.5989 1.23509C76.6784 1.20067 76.7645 1.18442 76.851 1.18752H80.0343C80.1208 1.18442 80.2069 1.20067 80.2863 1.23509C80.3657 1.26951 80.4365 1.32124 80.4934 1.38648C80.5586 1.44338 80.6104 1.51412 80.6448 1.59355C80.6792 1.67298 80.6954 1.75908 80.6923 1.84559V17.563C80.6954 17.6495 80.6792 17.7356 80.6448 17.8151C80.6104 17.8945 80.5586 17.9652 80.4934 18.0221C80.4365 18.0874 80.3657 18.1391 80.2863 18.1735C80.2069 18.2079 80.1208 18.2242 80.0343 18.2211H76.851ZM62.4038 14.1349C62.2975 14.1399 62.1912 14.1235 62.0913 14.0867C61.9914 14.0499 61.8999 13.9934 61.8223 13.9206C61.7098 13.7865 61.617 13.6371 61.5468 13.4768L59.2512 9.46709V17.5171C59.2533 17.6021 59.238 17.6866 59.2065 17.7655C59.1749 17.8444 59.1276 17.9161 59.0675 17.9762C59.0087 18.0391 58.9376 18.0892 58.8586 18.1234C58.7797 18.1577 58.6945 18.1753 58.6084 18.1752H55.4251C55.339 18.1753 55.2539 18.1577 55.1749 18.1234C55.0959 18.0892 55.0248 18.0391 54.966 17.9762C54.9038 17.9169 54.8542 17.8457 54.82 17.7668C54.7859 17.688 54.7678 17.603 54.7671 17.5171V1.84559C54.7678 1.75965 54.7859 1.67474 54.82 1.59588C54.8542 1.51702 54.9038 1.44582 54.966 1.38648C55.0248 1.3236 55.0959 1.27347 55.1749 1.23925C55.2539 1.20502 55.339 1.18742 55.4251 1.18752H58.2564C58.3893 1.17646 58.523 1.19548 58.6475 1.24317C58.772 1.29086 58.8842 1.36599 58.9757 1.46299C59.0965 1.57836 59.2043 1.70667 59.2971 1.84559L63.2456 8.57945L67.1787 1.84559C67.2715 1.70667 67.3793 1.57836 67.5001 1.46299C67.594 1.36477 67.7088 1.289 67.836 1.2413C67.9632 1.19361 68.0994 1.17522 68.2347 1.18752H71.0507C71.1372 1.18442 71.2233 1.20067 71.3028 1.23509C71.3822 1.26951 71.4529 1.32124 71.5098 1.38648C71.5751 1.44338 71.6268 1.51412 71.6612 1.59355C71.6956 1.67298 71.7119 1.75908 71.7088 1.84559V17.563C71.7119 17.6495 71.6956 17.7356 71.6612 17.8151C71.6268 17.8945 71.5751 17.9652 71.5098 18.0221C71.4529 18.0874 71.3822 18.1391 71.3028 18.1735C71.2233 18.2079 71.1372 18.2242 71.0507 18.2211H67.8674C67.7789 18.2224 67.6911 18.2054 67.6095 18.1711C67.5278 18.1369 67.4541 18.0862 67.393 18.0221C67.3329 17.962 67.2856 17.8903 67.2541 17.8114C67.2225 17.7325 67.2073 17.648 67.2094 17.563V9.51301L64.9137 13.5227C64.8257 13.6697 64.7175 13.8036 64.5923 13.9206C64.5147 13.9934 64.4232 14.0499 64.3233 14.0867C64.2234 14.1235 64.1171 14.1399 64.0108 14.1349H62.4038ZM41.1616 11.8239H45.1101L43.1818 5.97774L41.1616 11.8239ZM45.1101 1.18752C45.2451 1.1784 45.3805 1.19827 45.5072 1.24579C45.6339 1.2933 45.749 1.36734 45.8447 1.46299C46.0017 1.6121 46.1221 1.79541 46.1967 1.99864L51.5073 17.3028C51.5565 17.4198 51.5875 17.5437 51.5991 17.6701C51.6019 17.7411 51.5897 17.8118 51.5634 17.8777C51.537 17.9437 51.497 18.0033 51.446 18.0527C51.3966 18.1037 51.337 18.1437 51.271 18.17C51.2051 18.1964 51.1344 18.2086 51.0634 18.2058H48.0026C47.7538 18.2278 47.5063 18.1508 47.3139 17.9915C47.1914 17.8861 47.1012 17.7481 47.0537 17.5936L46.3651 15.5735H39.9067L39.218 17.5936C39.1705 17.7481 39.0803 17.8861 38.9578 17.9915C38.7654 18.1508 38.5179 18.2278 38.2691 18.2058H35.2083C35.1373 18.2086 35.0666 18.1964 35.0007 18.17C34.9348 18.1437 34.8751 18.1037 34.8257 18.0527C34.7747 18.0033 34.7347 17.9437 34.7084 17.8777C34.682 17.8118 34.6698 17.7411 34.6726 17.6701C34.6843 17.5437 34.7152 17.4198 34.7645 17.3028L40.075 1.99864C40.1496 1.79541 40.2701 1.6121 40.427 1.46299C40.5227 1.36734 40.6378 1.2933 40.7645 1.24579C40.8912 1.19827 41.0266 1.1784 41.1616 1.18752H45.1101ZM22.6742 8.56413H25.4289C26.0203 8.58306 26.6062 8.44583 27.1277 8.16623C27.3531 8.01168 27.533 7.79959 27.6488 7.55199C27.7645 7.30439 27.8118 7.03032 27.7858 6.75825C27.8118 6.48618 27.7645 6.2121 27.6488 5.9645C27.533 5.7169 27.3531 5.50481 27.1277 5.35026C26.6048 5.07597 26.0189 4.94402 25.4289 4.96766H22.6742V8.56413ZM25.4289 1.18752C26.3982 1.18005 27.3647 1.29315 28.3061 1.52422C29.0797 1.72468 29.8073 2.07287 30.4487 2.54959C31.0447 3.00485 31.5137 3.60562 31.8108 4.29427C32.144 5.072 32.3058 5.91238 32.2852 6.75825C32.3359 7.82952 32.0755 8.89258 31.5353 9.81909C31.0269 10.637 30.2787 11.2783 29.3927 11.6556L32.4535 17.4559C32.4977 17.536 32.5238 17.6248 32.53 17.7161C32.5329 17.787 32.5207 17.8578 32.4943 17.9237C32.468 17.9896 32.428 18.0492 32.377 18.0987C32.3276 18.1496 32.268 18.1896 32.202 18.216C32.1361 18.2424 32.0654 18.2545 31.9944 18.2517H28.6887C28.4399 18.2737 28.1924 18.1967 28 18.0374C27.8688 17.9049 27.7556 17.7557 27.6633 17.5936L24.9698 12.3902H22.7201V17.5936C22.7222 17.6786 22.707 17.7631 22.6754 17.842C22.6438 17.921 22.5965 17.9926 22.5364 18.0527C22.4753 18.1168 22.4016 18.1675 22.32 18.2018C22.2383 18.236 22.1505 18.253 22.062 18.2517H18.8787C18.7926 18.2518 18.7075 18.2342 18.6285 18.2C18.5495 18.1657 18.4784 18.1156 18.4196 18.0527C18.3574 17.9934 18.3078 17.9222 18.2736 17.8433C18.2394 17.7645 18.2214 17.6796 18.2206 17.5936V1.84559C18.2214 1.75965 18.2394 1.67474 18.2736 1.59588C18.3078 1.51702 18.3574 1.44582 18.4196 1.38648C18.4784 1.3236 18.5495 1.27347 18.6285 1.23925C18.7075 1.20502 18.7926 1.18742 18.8787 1.18752H25.4289ZM14.1956 1.18752C14.2821 1.18442 14.3683 1.20067 14.4477 1.23509C14.5271 1.26951 14.5979 1.32124 14.6548 1.38648C14.72 1.44338 14.7717 1.51412 14.8061 1.59355C14.8406 1.67298 14.8568 1.75908 14.8537 1.84559V4.432C14.8538 4.51809 14.8362 4.60328 14.802 4.68227C14.7678 4.76126 14.7176 4.83234 14.6548 4.89113C14.5954 4.95331 14.5242 5.00296 14.4454 5.03713C14.3665 5.0713 14.2816 5.08931 14.1956 5.09009H9.91046V17.563C9.91356 17.6495 9.89731 17.7356 9.86289 17.8151C9.82847 17.8945 9.77676 17.9652 9.71152 18.0221C9.65462 18.0874 9.58386 18.1391 9.50443 18.1735C9.425 18.2079 9.3389 18.2242 9.25239 18.2211H6.06911C5.9826 18.2242 5.89648 18.2079 5.81705 18.1735C5.73762 18.1391 5.66688 18.0874 5.60998 18.0221C5.54474 17.9652 5.49303 17.8945 5.45861 17.8151C5.42419 17.7356 5.40794 17.6495 5.41104 17.563V5.09009H1.12587C0.953292 5.08369 0.78942 5.01267 0.666735 4.89113C0.545199 4.76845 0.474182 4.60458 0.467773 4.432V1.84559C0.468556 1.75965 0.486563 1.67474 0.520737 1.59588C0.55491 1.51702 0.604562 1.44582 0.666735 1.38648C0.725524 1.3236 0.796613 1.27347 0.875599 1.23925C0.954585 1.20502 1.03978 1.18742 1.12587 1.18752H14.1956Z" fill="white"/>
</svg>
