<svg width="104" height="95" viewBox="0 0 104 95" fill="none" xmlns="http://www.w3.org/2000/svg">
<path d="M92.1142 60.9174V50.4665H65.3704V60.9174L62.3982 62.1927V47.497H95.0834V62.1927L92.1112 60.9174H92.1142ZM80.2284 65.3717L100.94 74.5444L95.0864 95H80.2284V65.3717ZM83.2006 92.0305H92.8588L97.463 75.9107L83.2006 69.826V92.0335V92.0305ZM56.5176 74.4563L77.2592 65.3717V95H62.4012L56.5176 74.4563ZM74.287 69.826L60.0247 75.9107L64.6289 92.0305H74.287V69.8229V69.826ZM78.7727 58.4277L64.2125 64.6612L53.515 69.2339L54.7033 71.9939L78.7423 61.4852L102.781 72.1123L104 69.2339L93.5395 64.7523L78.7727 58.4277ZM74.287 44.5335H83.2006V41.564H74.287V44.5335ZM77.2592 32.6585V38.5945H80.2314V32.6585H77.2592ZM23.7746 89.064V74.9938L10.582 89.064H6.54008L23.7746 70.6579V29.686H26.7469V44.5305H43.9814L29.1234 29.686H33.2839L44.574 40.9659V29.686H47.5462V89.061H41.0092L26.7469 74.8419V89.061H23.7746V89.064ZM44.574 71.253H27.3699L44.574 88.4719V71.253ZM44.574 47.503H27.3607L44.574 64.7007V47.503ZM26.7469 68.2835H43.9601L26.7469 51.0859V68.2835ZM23.7746 6.35499V14.8445H26.7469V5.04634L55.3627 14.8445H64.486L26.7438 1.90073V0H23.7716V2.3167L10.193 14.8445H14.5906L23.7716 6.35499H23.7746ZM2.97221 26.7195H0V17.814H89.6191L90.0932 17.9628L99.0068 20.9323L103.198 22.5658V26.7225H2.97221V26.7195ZM2.97221 20.7835V23.753H98.0586L89.145 20.7835H2.97221ZM43.9784 92.0335H0V95.003H56.4568V92.0335H43.9753H43.9784Z" fill="#686058"/>
</svg>
