<?xml version="1.0" encoding="utf-8"?>
<!-- Generator: Adobe Illustrator 28.0.0, SVG Export Plug-In . SVG Version: 6.00 Build 0)  -->
<svg version="1.1" id="Capa_1" xmlns="http://www.w3.org/2000/svg" xmlns:xlink="http://www.w3.org/1999/xlink" x="0px" y="0px"
	 viewBox="0 0 134 91" style="enable-background:new 0 0 134 91;" xml:space="preserve">
<style type="text/css">
	.st0{fill:#686058;}
</style>
<path class="st0" d="M104.1,57.9v-9.7H79.4v9.7l-2.7,1.2V45.5h30.2v13.6L104.1,57.9L104.1,57.9z M93.1,62l19.1,8.5l-5.4,18.9H93.1
	V62z M95.8,86.7h8.9l4.3-14.9l-13.2-5.6V86.7L95.8,86.7z M71.2,70.4L90.4,62v27.4H76.6L71.2,70.4z M87.6,66.1l-13.2,5.6l4.3,14.9
	h8.9V66.1L87.6,66.1z M91.8,55.6l-13.5,5.8l-9.9,4.2l1.1,2.6l22.2-9.7l22.2,9.8l1.1-2.7l-9.7-4.1L91.8,55.6z M87.6,42.8h8.2V40h-8.2
	V42.8z M90.4,31.8v5.5h2.7v-5.5H90.4z M40.9,83.9v-13l-12.2,13H25l15.9-17V29h2.7v13.7h15.9L45.9,29h3.8l10.4,10.4V29h2.7v54.9h-6
	L43.7,70.8v13.1L40.9,83.9L40.9,83.9z M60.1,67.5H44.2l15.9,15.9V67.5z M60.1,45.5H44.2l15.9,15.9V45.5z M43.7,64.7h15.9L43.7,48.8
	V64.7z M40.9,7.5v7.8h2.7V6.3l26.5,9.1h8.4l-34.9-12V1.6h-2.7v2.1L28.4,15.3h4.1L40.9,7.5L40.9,7.5z M21.7,26.3h-2.7v-8.2h82.8
	l0.4,0.1l8.2,2.7l3.9,1.5v3.8L21.7,26.3L21.7,26.3z M21.7,20.8v2.7h87.9l-8.2-2.7H21.7z M59.6,86.7H18.9v2.7h52.2v-2.7H59.6
	L59.6,86.7z"/>
</svg>
