<svg width="104" height="91" viewBox="0 0 104 91" fill="none" xmlns="http://www.w3.org/2000/svg">
<g clip-path="url(#clip0_165_76)">
<path d="M78.7896 0L104.003 23.7396V71.2187H91.9589V31.7255H65.1017V48.196L61.9515 42.9737V27.7706H95.112V67.2639H100.853V25.7205L78.7924 4.94878L56.7323 25.7205V43.5243H53.582V23.743L78.7896 0ZM44.123 39.566H12.6066C10.8742 39.566 9.4563 41.346 9.4563 43.5208V47.4757H12.6066V43.5208H44.123V79.1285H32.4295C32.6502 79.7622 32.8074 80.396 32.9343 81.1059C33.0281 81.7397 33.0915 82.4115 33.0915 83.0833H47.2732V43.5174C47.2732 41.3425 45.8553 39.5625 44.123 39.5625V39.566ZM12.6066 75.1736H9.4563V83.0868H17.3347C17.3347 82.415 17.3982 81.7431 17.492 81.1094C17.6188 80.396 17.7761 79.7657 17.9968 79.1319H12.6066V75.1771V75.1736ZM78.7896 72.1676V83.0868H70.9112C70.9112 81.7016 70.6905 80.3579 70.2492 79.1319H75.6394V72.1676C75.6394 70.6231 74.9773 69.2794 73.907 68.6076L71.7636 67.2639H53.5793V79.1319H55.8165C55.3751 80.3579 55.1544 81.705 55.1544 83.0868H50.4263V47.4792H61.4577C62.4342 47.4792 63.3804 48.0714 63.979 49.0618L66.1858 52.7396L69.3361 58.0416L71.0685 60.9299L72.4864 63.3056L75.2918 65.0856C77.4352 66.4293 78.7896 69.1617 78.7896 72.1676ZM68.5472 63.3056L66.1831 59.3507L61.4549 51.4375H53.5765V63.3056H68.5472ZM68.4837 79.1319C69.0189 80.2782 69.3333 81.6635 69.3333 83.0868C69.3333 83.7586 69.2699 84.4305 69.1127 85.0642C68.9858 85.7776 68.7651 86.4495 68.4809 87.0417C67.3775 89.4139 65.361 90.9965 63.0301 90.9965C60.6991 90.9965 58.6798 89.4139 57.5792 87.0417C57.295 86.4495 57.0744 85.7742 56.9475 85.0642C56.7902 84.4305 56.7268 83.7586 56.7268 83.0868C56.7268 81.6635 57.0412 80.2782 57.5764 79.1319C58.6798 76.7563 60.6963 75.1771 63.0273 75.1771C65.3583 75.1771 67.3775 76.7597 68.4782 79.1319H68.4837ZM66.1831 83.0868C66.1831 80.912 64.7652 79.1319 63.0328 79.1319C61.3004 79.1319 59.8826 80.912 59.8826 83.0868C59.8826 83.8002 60.0398 84.4721 60.3239 85.0642C60.8591 86.2521 61.8687 87.0417 63.0356 87.0417C64.2024 87.0417 65.2093 86.2486 65.7445 85.0642C66.0286 84.4721 66.1858 83.7967 66.1858 83.0868H66.1831ZM31.2957 81.1094C31.453 81.7431 31.5164 82.415 31.5164 83.0868C31.5164 87.4399 28.6806 91 25.2131 91C21.7456 91 18.9098 87.4399 18.9098 83.0868C18.9098 82.415 18.9733 81.7431 19.1305 81.1094C19.2574 80.396 19.4781 79.7241 19.7622 79.1319C20.8657 76.7563 22.8822 75.1771 25.2131 75.1771C27.5441 75.1771 29.5634 76.7597 30.664 79.1319C30.9481 79.7241 31.1688 80.3994 31.2957 81.1094ZM28.3661 83.0868C28.3661 82.3734 28.2089 81.7016 27.9248 81.1094C27.3896 79.9215 26.38 79.1319 25.2159 79.1319C24.0518 79.1319 23.0421 79.9215 22.5042 81.1094C22.2201 81.7016 22.0629 82.3769 22.0629 83.0868C22.0629 85.2616 23.4808 87.0417 25.2131 87.0417C26.9455 87.0417 28.3634 85.2616 28.3634 83.0868H28.3661ZM7.87841 55.3889H20.485C21.3677 55.3889 22.0601 54.5197 22.0601 53.4115C22.0601 52.3033 21.3677 51.434 20.485 51.434H7.87841C6.99568 51.434 6.30328 52.3033 6.30328 53.4115C6.30328 54.5197 6.99568 55.3889 7.87841 55.3889ZM4.72815 63.3021H20.485C21.3677 63.3021 22.0601 62.4329 22.0601 61.3247C22.0601 60.2165 21.3677 59.3472 20.485 59.3472H4.72815C3.84542 59.3472 3.15302 60.2165 3.15302 61.3247C3.15302 62.4329 3.84542 63.3021 4.72815 63.3021ZM11.0314 71.2153H23.638C24.5207 71.2153 25.2131 70.346 25.2131 69.2378C25.2131 68.1297 24.5207 67.2604 23.638 67.2604H1.57513C0.692395 67.2604 0 68.1297 0 69.2378C0 70.346 0.692395 71.2153 1.57513 71.2153H11.0287H11.0314Z" fill="#686058"/>
<path d="M83.1401 49.332V55.2851H74.5582V49.332H83.1401ZM85.7193 46.094H71.979V58.5196H85.7193V46.094Z" fill="#686058"/>
<path d="M83.1401 39.1401V45.0932H74.5582V39.1401H83.1401ZM85.7193 35.9021H71.979V48.3277H85.7193V35.9021Z" fill="#686058"/>
</g>
<defs>
<clipPath id="clip0_165_76">
<rect width="104" height="91" fill="white"/>
</clipPath>
</defs>
</svg>
