<svg width="134" height="91" viewBox="0 0 134 91" fill="none" xmlns="http://www.w3.org/2000/svg">
<g id="_&#195;&#142;&#195;&#147;&#195;&#136;_1" clip-path="url(#clip0_68_273)">
<path id="Vector" d="M101.517 0L134.004 23.7396V71.2187H118.486V31.7255H83.8811V48.196L79.8221 42.9737V27.7706H122.548V67.2639H129.945V25.7205L101.521 4.94878L73.0974 25.7205V43.5243H69.0384V23.743L101.517 0ZM56.8507 39.566H16.2431C14.011 39.566 12.1841 41.346 12.1841 43.5208V47.4757H16.2431V43.5208H56.8507V79.1285H41.7841C42.0685 79.7622 42.2711 80.396 42.4346 81.1059C42.5554 81.7397 42.6372 82.4115 42.6372 83.0833H60.9097V43.5174C60.9097 41.3425 59.0828 39.5625 56.8507 39.5625V39.566ZM16.2431 75.1736H12.1841V83.0868H22.3351C22.3351 82.415 22.4169 81.7431 22.5377 81.1094C22.7012 80.396 22.9038 79.7657 23.1881 79.1319H16.2431V75.1771V75.1736ZM101.517 72.1676V83.0868H91.3664C91.3664 81.7016 91.082 80.3579 90.5134 79.1319H97.4584V72.1676C97.4584 70.6231 96.6054 69.2794 95.2263 68.6076L92.4647 67.2639H69.0348V79.1319H71.9174C71.3487 80.3579 71.0643 81.705 71.0643 83.0868H64.9723V47.4792H79.1859C80.4441 47.4792 81.6632 48.0714 82.4345 49.0618L85.2779 52.7396L89.3369 58.0416L91.569 60.9299L93.3959 63.3056L97.0106 65.0856C99.7723 66.4293 101.517 69.1617 101.517 72.1676ZM88.3204 63.3056L85.2743 59.3507L79.1823 51.4375H69.0313V63.3056H88.3204ZM88.2386 79.1319C88.9281 80.2782 89.3333 81.6635 89.3333 83.0868C89.3333 83.7587 89.2516 84.4305 89.049 85.0642C88.8855 85.7776 88.6012 86.4495 88.2351 87.0417C86.8133 89.4139 84.2152 90.9965 81.2118 90.9965C78.2084 90.9965 75.6067 89.4139 74.1885 87.0417C73.8224 86.4495 73.5381 85.7742 73.3746 85.0642C73.172 84.4305 73.0903 83.7587 73.0903 83.0868C73.0903 81.6635 73.4955 80.2782 74.185 79.1319C75.6067 76.7562 78.2049 75.1771 81.2082 75.1771C84.2116 75.1771 86.8134 76.7597 88.2315 79.1319H88.2386ZM85.2743 83.0868C85.2743 80.912 83.4474 79.1319 81.2154 79.1319C78.9833 79.1319 77.1564 80.912 77.1564 83.0868C77.1564 83.8002 77.359 84.4721 77.725 85.0642C78.4146 86.2521 79.7154 87.0417 81.2189 87.0417C82.7224 87.0417 84.0197 86.2486 84.7092 85.0642C85.0753 84.4721 85.2779 83.7967 85.2779 83.0868H85.2743ZM40.3233 81.1094C40.5259 81.7431 40.6077 82.415 40.6077 83.0868C40.6077 87.4399 36.9539 91 32.4861 91C28.0184 91 24.3646 87.4399 24.3646 83.0868C24.3646 82.415 24.4464 81.7431 24.6489 81.1094C24.8124 80.396 25.0968 79.7241 25.4629 79.1319C26.8846 76.7562 29.4828 75.1771 32.4861 75.1771C35.4895 75.1771 38.0912 76.7597 39.5094 79.1319C39.8755 79.7241 40.1598 80.3994 40.3233 81.1094ZM36.5487 83.0868C36.5487 82.3734 36.3461 81.7016 35.98 81.1094C35.2905 79.9215 33.9896 79.1319 32.4897 79.1319C30.9898 79.1319 29.6889 79.9215 28.9958 81.1094C28.6297 81.7016 28.4272 82.3769 28.4272 83.0868C28.4272 85.2616 30.2541 87.0417 32.4861 87.0417C34.7182 87.0417 36.5451 85.2616 36.5451 83.0868H36.5487ZM10.151 55.3889H26.3941C27.5315 55.3889 28.4236 54.5197 28.4236 53.4115C28.4236 52.3033 27.5315 51.434 26.3941 51.434H10.151C9.01366 51.434 8.12154 52.3033 8.12154 53.4115C8.12154 54.5197 9.01366 55.3889 10.151 55.3889ZM6.09204 63.3021H26.3941C27.5315 63.3021 28.4236 62.4328 28.4236 61.3247C28.4236 60.2165 27.5315 59.3472 26.3941 59.3472H6.09204C4.95467 59.3472 4.06254 60.2165 4.06254 61.3247C4.06254 62.4328 4.95467 63.3021 6.09204 63.3021ZM14.2136 71.2153H30.4566C31.594 71.2153 32.4861 70.346 32.4861 69.2378C32.4861 68.1297 31.594 67.2604 30.4566 67.2604H2.0295C0.892125 67.2604 0 68.1297 0 69.2378C0 70.346 0.892125 71.2153 2.0295 71.2153H14.21H14.2136Z" fill="#686058"/>
<path id="Vector_2" d="M107.122 49.332V55.2851H96.065V49.332H107.122ZM110.446 46.094H92.7417V58.5196H110.446V46.094Z" fill="#686058"/>
<path id="Vector_3" d="M107.122 39.1401V45.0932H96.065V39.1401H107.122ZM110.446 35.9021H92.7417V48.3277H110.446V35.9021Z" fill="#686058"/>
</g>
<defs>
<clipPath id="clip0_68_273">
<rect width="134" height="91" fill="white"/>
</clipPath>
</defs>
</svg>
