<?xml version="1.0" encoding="utf-8"?>
<!-- Generator: Adobe Illustrator 28.0.0, SVG Export Plug-In . SVG Version: 6.00 Build 0)  -->
<svg version="1.1" id="Capa_1" xmlns="http://www.w3.org/2000/svg" xmlns:xlink="http://www.w3.org/1999/xlink" x="0px" y="0px"
	 viewBox="0 0 134 91" style="enable-background:new 0 0 134 91;" xml:space="preserve">
<style type="text/css">
	.st0{clip-path:url(#SVGID_00000004547225088451010160000003738520603990890631_);}
	.st1{fill:#686058;}
</style>
<g>
	<defs>
		<rect id="SVGID_1_" width="134" height="91"/>
	</defs>
	<clipPath id="SVGID_00000131338463018094395930000000795276066757600134_">
		<use xlink:href="#SVGID_1_"  style="overflow:visible;"/>
	</clipPath>
	<g style="clip-path:url(#SVGID_00000131338463018094395930000000795276066757600134_);">
		<path class="st1" d="M101.5,0L134,23.7v47.5h-15.5V31.7H83.9v16.5L79.8,43V27.8h42.7v39.5h7.4V25.7L101.5,4.9L73.1,25.7v17.8H69
			V23.7L101.5,0z M56.9,39.6H16.2c-2.2,0-4.1,1.8-4.1,4v4h4.1v-4h40.6v35.6H41.8c0.3,0.6,0.5,1.3,0.7,2c0.1,0.6,0.2,1.3,0.2,2h18.3
			V43.5C60.9,41.3,59.1,39.6,56.9,39.6L56.9,39.6z M16.2,75.2h-4.1v7.9h10.2c0-0.7,0.1-1.3,0.2-2c0.2-0.7,0.4-1.3,0.7-2h-6.9V75.2
			L16.2,75.2z M101.5,72.2v10.9H91.4c0-1.4-0.3-2.7-0.9-4h6.9v-7c0-1.5-0.9-2.9-2.2-3.6l-2.8-1.3H69v11.9h2.9
			c-0.6,1.2-0.9,2.6-0.9,4H65V47.5h14.2c1.3,0,2.5,0.6,3.2,1.6l2.8,3.7l4.1,5.3l2.2,2.9l1.8,2.4l3.6,1.8
			C99.8,66.4,101.5,69.2,101.5,72.2z M88.3,63.3l-3-4l-6.1-7.9H69v11.9H88.3z M88.2,79.1c0.7,1.1,1.1,2.5,1.1,4c0,0.7-0.1,1.3-0.3,2
			c-0.2,0.7-0.4,1.4-0.8,2c-1.4,2.4-4,4-7,4s-5.6-1.6-7-4c-0.4-0.6-0.7-1.3-0.8-2c-0.2-0.6-0.3-1.3-0.3-2c0-1.4,0.4-2.8,1.1-4
			c1.4-2.4,4-4,7-4C84.2,75.2,86.8,76.8,88.2,79.1L88.2,79.1z M85.3,83.1c0-2.2-1.8-4-4.1-4c-2.2,0-4.1,1.8-4.1,4
			c0,0.7,0.2,1.4,0.6,2c0.7,1.2,2,2,3.5,2c1.5,0,2.8-0.8,3.5-2C85.1,84.5,85.3,83.8,85.3,83.1L85.3,83.1z M40.3,81.1
			c0.2,0.6,0.3,1.3,0.3,2c0,4.4-3.7,7.9-8.1,7.9c-4.5,0-8.1-3.6-8.1-7.9c0-0.7,0.1-1.3,0.3-2c0.2-0.7,0.4-1.4,0.8-2c1.4-2.4,4-4,7-4
			c3,0,5.6,1.6,7,4C39.9,79.7,40.2,80.4,40.3,81.1z M36.5,83.1c0-0.7-0.2-1.4-0.6-2c-0.7-1.2-2-2-3.5-2s-2.8,0.8-3.5,2
			c-0.4,0.6-0.6,1.3-0.6,2c0,2.2,1.8,4,4.1,4C34.7,87,36.5,85.3,36.5,83.1L36.5,83.1z M10.2,55.4h16.2c1.1,0,2-0.9,2-2s-0.9-2-2-2
			H10.2c-1.1,0-2,0.9-2,2S9,55.4,10.2,55.4z M6.1,63.3h20.3c1.1,0,2-0.9,2-2c0-1.1-0.9-2-2-2H6.1c-1.1,0-2,0.9-2,2
			C4.1,62.4,5,63.3,6.1,63.3z M14.2,71.2h16.2c1.1,0,2-0.9,2-2c0-1.1-0.9-2-2-2H2c-1.1,0-2,0.9-2,2c0,1.1,0.9,2,2,2H14.2L14.2,71.2z
			"/>
		<path class="st1" d="M107.1,49.3v6H96.1v-6H107.1z M110.4,46.1H92.7v12.4h17.7V46.1z"/>
		<path class="st1" d="M107.1,39.1v6H96.1v-6H107.1z M110.4,35.9H92.7v12.4h17.7V35.9z"/>
	</g>
</g>
</svg>
