<?xml version="1.0" encoding="utf-8"?>
<!-- Generator: Adobe Illustrator 28.0.0, SVG Export Plug-In . SVG Version: 6.00 Build 0)  -->
<svg version="1.1" id="Capa_1" xmlns="http://www.w3.org/2000/svg" xmlns:xlink="http://www.w3.org/1999/xlink" x="0px" y="0px"
	 viewBox="0 0 869.4 143.9" style="enable-background:new 0 0 869.4 143.9;" xml:space="preserve">
<style type="text/css">
	.st0{fill:#D0122C;}
	.st1{fill:#FFFFFF;}
	.st2{fill:#76715E;}
	.st3{fill:#686058;}
	.st4{fill:#96262C;}
	.st5{fill:#F5333F;}
</style>
<g>
	<rect x="525.7" y="10.8" class="st0" width="330.4" height="116"/>
	<g>
		<g>
			<path class="st1" d="M557.2,95.3h-3.1V95c0-0.9-0.1-1.5-0.4-1.9c-0.3-0.4-0.6-0.6-1.1-0.6c-0.6,0-1,0.2-1.2,0.7
				c-0.3,0.4-0.4,1-0.5,1.7c-0.1,0.7-0.1,1.8-0.1,3.4c0,0.5,0,1.3,0,2.2s0.2,1.7,0.5,2.2c0.3,0.6,0.7,0.9,1.4,0.9
				c0.5,0,1-0.2,1.2-0.7c0.3-0.5,0.4-1.2,0.4-2.2v-0.2h3.2v0.4c0,1.6-0.4,2.8-1.2,3.7c-0.8,0.8-2,1.2-3.6,1.2
				c-1.1,0-1.9-0.2-2.6-0.5c-0.7-0.3-1.2-0.7-1.5-1.3c-0.3-0.5-0.6-1.2-0.8-2.1c-0.2-0.8-0.3-2.2-0.3-4c0-1.4,0-2.6,0.1-3.4
				c0.1-0.8,0.3-1.6,0.6-2.3c0.3-0.7,0.8-1.3,1.6-1.7c0.7-0.4,1.7-0.6,3-0.6c1.5,0,2.6,0.4,3.3,1.1c0.8,0.7,1.1,1.9,1.1,3.5V95.3z"
				/>
			<path class="st1" d="M562.1,100.9v1.1c0,0.8,0.1,1.3,0.3,1.7c0.2,0.3,0.6,0.5,1,0.5c0.4,0,0.7-0.1,0.9-0.4
				c0.2-0.3,0.3-0.7,0.3-1.3v-0.2h3c-0.1,1.3-0.5,2.3-1.2,2.9c-0.7,0.6-1.8,0.9-3.2,0.9c-1,0-1.8-0.2-2.5-0.5
				c-0.6-0.3-1.1-0.8-1.4-1.5c-0.3-0.7-0.4-1.9-0.4-3.6c0-1.6,0.1-2.8,0.4-3.5c0.3-0.7,0.7-1.2,1.4-1.6s1.5-0.5,2.6-0.5
				c1.5,0,2.6,0.4,3.3,1.2s1,2,1,3.7v0.6l0,0.6H562.1z M564.7,99.3v-0.7c0-0.6-0.1-1-0.3-1.4c-0.2-0.3-0.5-0.5-1-0.5
				c-0.5,0-0.8,0.2-1,0.5s-0.3,0.9-0.3,1.7v0.3H564.7z"/>
			<path class="st1" d="M575.6,97.6c-0.1,0-0.3,0-0.4,0c-0.9,0-1.5,0.2-1.8,0.6c-0.3,0.4-0.5,1-0.5,1.9v5.8h-3V95.1h2.8v1.4
				c0.3-0.6,0.6-1,1.1-1.2c0.4-0.2,1-0.4,1.6-0.4h0.2V97.6z"/>
			<path class="st1" d="M579.9,95.1h1.7V97h-1.7v5.7c0,0.5,0.1,0.8,0.2,1c0.1,0.2,0.4,0.3,0.8,0.3h0.3c0.1,0,0.2,0,0.3,0v1.9
				c-0.2,0-0.4,0-0.7,0.1c-0.2,0-0.5,0-0.7,0c-1.1,0-1.9-0.2-2.4-0.7c-0.5-0.5-0.7-1.2-0.7-2.3V97h-1.2v-1.9h1.3v-1.7l2.9-1.2V95.1z
				"/>
			<path class="st1" d="M586.2,90.5v2.4h-3v-2.4H586.2z M586.2,95.1v10.7h-3V95.1H586.2z"/>
			<path class="st1" d="M593.4,92.3l-0.2,0h-0.1c-0.4,0-0.7,0.1-0.9,0.4c-0.2,0.2-0.3,0.7-0.3,1.5v0.9h1.5v1.8h-1.5v8.9H589v-8.9
				h-1.3v-1.8h1.3v-1.8c0-1,0.2-1.8,0.7-2.2c0.5-0.5,1.4-0.7,2.8-0.7c0.1,0,0.2,0,0.4,0l0.6,0L593.4,92.3z"/>
			<path class="st1" d="M598,90.5v2.4h-3v-2.4H598z M598,95.1v10.7h-3V95.1H598z"/>
			<path class="st1" d="M609,98.9h-2.9c0-0.4,0-0.7-0.1-1c0-0.3-0.1-0.6-0.3-0.8c-0.2-0.2-0.5-0.3-0.9-0.3c-0.5,0-0.9,0.2-1.1,0.6
				c-0.2,0.4-0.3,1.1-0.3,2.2v1.5c0,1.1,0.1,1.9,0.3,2.3s0.6,0.6,1.1,0.6c0.5,0,0.8-0.2,1-0.5c0.2-0.3,0.3-0.8,0.3-1.5v-0.2h2.9v0.3
				c0,1.2-0.4,2.2-1.1,2.8c-0.7,0.7-1.8,1-3.3,1c-1.3,0-2.4-0.4-3.1-1.1c-0.7-0.7-1.1-1.9-1.1-3.4v-0.9c0-1.5,0.1-2.6,0.3-3.4
				c0.2-0.7,0.7-1.3,1.4-1.7c0.7-0.4,1.6-0.6,2.6-0.6c1.4,0,2.5,0.3,3.2,1s1,1.5,1,2.7V98.9z"/>
			<path class="st1" d="M619.4,103.5c0,0.1,0,0.2,0,0.4l0,0.6c0,0.2,0,0.5,0,0.7c0,0.2,0.1,0.5,0.1,0.7h-2.8l-0.1-1.4
				c-0.3,0.6-0.7,1-1.2,1.2c-0.5,0.3-1,0.4-1.6,0.4c-0.9,0-1.7-0.3-2.2-0.9c-0.5-0.6-0.7-1.4-0.7-2.5c0-1.3,0.3-2.2,1-2.7
				c0.7-0.6,1.9-0.9,3.7-0.9h0.8v-1.2c0-0.4-0.1-0.8-0.3-1c-0.2-0.2-0.5-0.3-0.9-0.3c-0.4,0-0.7,0.1-0.9,0.4
				c-0.2,0.3-0.3,0.7-0.3,1.3h-2.8V98c0-1.1,0.3-1.9,1-2.4c0.7-0.5,1.7-0.8,3.2-0.8c1.4,0,2.4,0.3,3,0.8c0.6,0.5,1,1.4,1,2.6V103.5z
				 M616.6,101.5v-0.9h-0.2c-0.8,0-1.4,0.1-1.8,0.3c-0.4,0.2-0.6,0.6-0.6,1.3l0,0.3c0,0.7,0.1,1.2,0.3,1.4s0.5,0.4,0.8,0.4
				c0.5,0,0.9-0.2,1.2-0.6C616.5,103.2,616.6,102.5,616.6,101.5z"/>
			<path class="st1" d="M624.8,95.1h1.7V97h-1.7v5.7c0,0.5,0.1,0.8,0.2,1c0.1,0.2,0.4,0.3,0.8,0.3h0.3c0.1,0,0.2,0,0.3,0v1.9
				c-0.2,0-0.4,0-0.7,0.1c-0.2,0-0.5,0-0.7,0c-1.1,0-1.9-0.2-2.4-0.7c-0.5-0.5-0.7-1.2-0.7-2.3V97h-1.2v-1.9h1.3v-1.7l2.9-1.2V95.1z
				"/>
			<path class="st1" d="M631.1,90.5v2.4h-3v-2.4H631.1z M631.1,95.1v10.7h-3V95.1H631.1z"/>
			<path class="st1" d="M634.5,104.9c-0.7-0.8-1-2.3-1-4.4c0-1.6,0.2-2.8,0.5-3.5c0.3-0.7,0.8-1.3,1.4-1.6c0.6-0.3,1.4-0.5,2.5-0.5
				c1.1,0,2,0.2,2.6,0.5s1.1,0.9,1.4,1.6c0.3,0.7,0.4,1.8,0.4,3.3c0,1.7-0.1,2.9-0.4,3.6c-0.3,0.8-0.8,1.3-1.4,1.7
				c-0.7,0.4-1.6,0.6-2.8,0.6C636.2,106.1,635.2,105.7,634.5,104.9z M639.2,101v-1.3c0-1.2-0.1-2-0.3-2.4c-0.2-0.4-0.5-0.6-1-0.6
				c-0.5,0-0.8,0.2-1.1,0.6c-0.2,0.4-0.3,1.2-0.3,2.3v0.8c0,1.4,0.1,2.3,0.2,2.9s0.5,0.8,1.1,0.8c0.5,0,0.9-0.2,1.1-0.7
				C639.1,103,639.2,102.2,639.2,101z"/>
			<path class="st1" d="M652.6,105.8h-3v-7.4c0-0.7-0.1-1.2-0.3-1.4c-0.2-0.2-0.5-0.3-0.8-0.3c-0.4,0-0.6,0.1-0.9,0.4
				c-0.2,0.3-0.3,0.7-0.3,1.2v7.5h-3V95.1h2.9l0,1.1c0.6-0.9,1.4-1.3,2.5-1.3c0.9,0,1.5,0.2,2,0.7c0.5,0.4,0.7,1.1,0.7,2V105.8z"/>
		</g>
		<g>
			<path class="st1" d="M554.2,64.5c1.9,0,3.3,0.4,4.2,1.1c0.9,0.7,1.3,1.9,1.3,3.4c0,1.1-0.3,2.1-0.8,2.7c-0.5,0.7-1.3,1.1-2.3,1.3
				c1.1,0.2,2,0.6,2.5,1.3c0.5,0.7,0.8,1.8,0.8,3.1c0,1.7-0.4,2.9-1.3,3.7c-0.9,0.8-2.3,1.2-4.2,1.2h-6.7V64.5H554.2z M553.6,71.8
				c0.7,0,1.2-0.1,1.5-0.3c0.3-0.2,0.6-0.4,0.7-0.7c0.2-0.3,0.2-0.7,0.2-1.4c0-0.7-0.2-1.2-0.6-1.6c-0.4-0.4-1.2-0.5-2.3-0.5h-1.6
				v4.6H553.6z M551.6,79.6h1.5c1.3,0,2.2-0.2,2.6-0.6c0.4-0.4,0.6-1.1,0.6-2c0-0.9-0.2-1.6-0.7-2c-0.4-0.4-1.2-0.5-2.2-0.5h-1.9
				V79.6z"/>
			<path class="st1" d="M566.4,64.5v12c0,1.2,0.2,2.1,0.6,2.6c0.4,0.6,0.9,0.9,1.7,0.9c0.8,0,1.5-0.3,1.9-0.9
				c0.4-0.6,0.6-1.5,0.6-2.6V64.5h3.6v12c0,2.1-0.5,3.7-1.5,4.7c-1,1-2.5,1.5-4.7,1.5c-2,0-3.5-0.5-4.5-1.5c-1-1-1.5-2.6-1.5-4.7
				v-12H566.4z"/>
			<path class="st1" d="M583.7,64.5c1.6,0,2.8,0.4,3.6,1.2c0.8,0.8,1.2,2,1.2,3.6c0,1.3-0.3,2.3-0.8,3s-1.3,1.2-2.4,1.4
				c1.2,0.2,2,0.5,2.4,1c0.4,0.5,0.7,1.3,0.8,2.5l0.2,3.1c0,0.4,0.1,0.9,0.1,1.2c0,0.4,0.1,0.7,0.2,1h-3.7c-0.2-0.4-0.3-0.7-0.3-0.9
				c-0.1-0.2-0.1-0.6-0.1-1.1v-2.7c0-1-0.2-1.7-0.6-2.1s-1.2-0.6-2.3-0.6h-0.7v7.4h-3.8V64.5H583.7z M581.3,72.2h0.9
				c1.1,0,1.8-0.2,2.1-0.6c0.4-0.4,0.5-1.1,0.5-1.9c0-0.9-0.2-1.5-0.5-1.9c-0.3-0.4-1.1-0.5-2.2-0.5h-0.8V72.2z"/>
			<path class="st1" d="M600.9,64.5v2.8h-6v4.4h5.5v2.8h-5.5v5.2h6.2v2.8h-9.9V64.5H600.9z"/>
			<path class="st1" d="M611.8,64.5l4.8,17.9h-3.9l-1-4h-5.1l-1,4h-3.7l5-17.9H611.8z M607.3,75.7h3.6l-1.9-7.8L607.3,75.7z"/>
			<path class="st1" d="M621.3,64.5v12c0,1.2,0.2,2.1,0.6,2.6c0.4,0.6,0.9,0.9,1.7,0.9c0.8,0,1.5-0.3,1.9-0.9
				c0.4-0.6,0.6-1.5,0.6-2.6V64.5h3.6v12c0,2.1-0.5,3.7-1.5,4.7c-1,1-2.5,1.5-4.7,1.5c-2,0-3.5-0.5-4.5-1.5c-1-1-1.5-2.6-1.5-4.7
				v-12H621.3z"/>
			<path class="st1" d="M637.2,64.5l2.8,13l3.1-13h3.7l-4.7,17.9h-4.4l-4.4-17.9H637.2z"/>
			<path class="st1" d="M658,64.5v2.8h-6v4.4h5.5v2.8H652v5.2h6.2v2.8h-9.9V64.5H658z"/>
			<path class="st1" d="M666.6,64.5c1.6,0,2.8,0.4,3.6,1.2c0.8,0.8,1.2,2,1.2,3.6c0,1.3-0.3,2.3-0.8,3s-1.3,1.2-2.4,1.4
				c1.2,0.2,2,0.5,2.4,1c0.4,0.5,0.7,1.3,0.8,2.5l0.2,3.1c0,0.4,0.1,0.9,0.1,1.2c0,0.4,0.1,0.7,0.2,1h-3.7c-0.2-0.4-0.3-0.7-0.3-0.9
				c-0.1-0.2-0.1-0.6-0.1-1.1v-2.7c0-1-0.2-1.7-0.6-2.1s-1.2-0.6-2.3-0.6h-0.7v7.4h-3.8V64.5H666.6z M664.1,72.2h0.9
				c1.1,0,1.8-0.2,2.1-0.6c0.4-0.4,0.5-1.1,0.5-1.9c0-0.9-0.2-1.5-0.5-1.9c-0.3-0.4-1.1-0.5-2.2-0.5h-0.8V72.2z"/>
			<path class="st1" d="M677.7,64.5v17.9h-3.7V64.5H677.7z"/>
			<path class="st1" d="M691.2,64.5v2.9h-4.2v15h-3.8v-15h-4.1v-2.9H691.2z"/>
			<path class="st1" d="M699.4,64.5l4.8,17.9h-3.9l-1-4h-5.1l-1,4h-3.7l5-17.9H699.4z M694.9,75.7h3.6l-1.9-7.8L694.9,75.7z"/>
			<path class="st1" d="M710.2,82.7c-1.8,0-3.1-0.4-4-1.2c-0.9-0.8-1.4-2-1.4-3.5v-1.1h3.8v0.5c0,0.9,0.1,1.6,0.4,2
				c0.3,0.4,0.8,0.7,1.6,0.7c0.6,0,1.1-0.2,1.5-0.5c0.3-0.3,0.5-0.8,0.5-1.5c0-0.5-0.1-0.9-0.3-1.2c-0.2-0.3-0.5-0.6-0.9-0.9l-3-1.8
				c-1.4-0.9-2.3-1.7-2.7-2.4c-0.4-0.7-0.6-1.7-0.6-2.8c0-1.5,0.5-2.7,1.5-3.5c1-0.8,2.5-1.2,4.4-1.2c1.7,0,3,0.4,3.8,1.1
				c0.9,0.7,1.3,1.9,1.3,3.7v0.6h-3.7v-0.4c0-1.5-0.6-2.3-1.8-2.3c-0.6,0-1,0.2-1.3,0.5c-0.3,0.4-0.5,0.8-0.5,1.4
				c0,0.4,0.1,0.7,0.3,1c0.2,0.3,0.5,0.6,0.9,0.9l3.6,2.3c1,0.6,1.7,1.2,2.1,1.9c0.4,0.6,0.7,1.5,0.7,2.7c0,1.7-0.5,3-1.5,3.9
				C713.8,82.2,712.3,82.7,710.2,82.7z"/>
		</g>
		<g>
			<path class="st1" d="M551.2,30v16.4h-3.4V30H551.2z"/>
			<path class="st1" d="M558.4,46.7c-1.6,0-2.9-0.4-3.7-1.1s-1.3-1.8-1.3-3.3v-1h3.5v0.4c0,0.8,0.1,1.4,0.4,1.8s0.8,0.6,1.4,0.6
				c0.6,0,1-0.2,1.3-0.5c0.3-0.3,0.5-0.8,0.5-1.3c0-0.4-0.1-0.8-0.3-1.1c-0.2-0.3-0.5-0.6-0.8-0.8l-2.7-1.7
				c-1.3-0.8-2.1-1.5-2.5-2.2c-0.4-0.7-0.6-1.5-0.6-2.5c0-1.4,0.5-2.5,1.4-3.2c0.9-0.8,2.3-1.1,4-1.1c1.5,0,2.7,0.3,3.5,1
				c0.8,0.7,1.2,1.8,1.2,3.4v0.6h-3.4v-0.4c0-1.4-0.6-2.1-1.7-2.1c-0.5,0-0.9,0.2-1.2,0.5c-0.3,0.3-0.4,0.8-0.4,1.3
				c0,0.3,0.1,0.7,0.2,1c0.2,0.3,0.4,0.6,0.8,0.8l3.3,2.1c0.9,0.6,1.5,1.1,1.9,1.7c0.4,0.6,0.6,1.4,0.6,2.4c0,1.6-0.5,2.8-1.4,3.5
				S560.3,46.7,558.4,46.7z"/>
			<path class="st1" d="M568.9,46.2c-0.7-0.4-1.3-0.8-1.7-1.5c-0.4-0.6-0.7-1.4-0.9-2.3c-0.2-0.9-0.3-2.4-0.3-4.4
				c0-2.4,0.2-4.1,0.6-5.2c0.4-1.1,1-1.9,1.8-2.5s1.9-0.8,3.3-0.8c1.3,0,2.4,0.2,3.2,0.6c0.8,0.4,1.3,1,1.7,1.7
				c0.4,0.7,0.6,1.5,0.7,2.4c0.1,0.9,0.2,2.2,0.2,3.9c0,1.5,0,2.7-0.1,3.4c-0.1,0.8-0.2,1.5-0.4,2.1c-0.2,0.7-0.5,1.2-1,1.7
				c-0.4,0.4-1,0.8-1.7,1c-0.7,0.2-1.6,0.4-2.6,0.4C570.5,46.7,569.6,46.6,568.9,46.2z M569.6,38.5c0,1.8,0.1,3,0.2,3.7
				c0.1,0.7,0.3,1.2,0.7,1.6c0.3,0.3,0.7,0.5,1.3,0.5c0.8,0,1.3-0.3,1.6-0.9c0.3-0.6,0.5-1.4,0.5-2.4c0-1,0.1-2.1,0.1-3.2v-1.6
				c0-1.5-0.2-2.6-0.5-3.2s-0.9-1-1.7-1c-0.8,0-1.4,0.4-1.7,1.1c-0.3,0.7-0.5,2-0.5,4V38.5z"/>
			<path class="st1" d="M592.4,43.8c-0.3,1-0.9,1.7-1.6,2.2c-0.7,0.5-1.7,0.7-2.8,0.7c-1.4,0-2.4-0.3-3.1-0.9s-1-1.5-1-2.8v-0.3h3.2
				c0,0.1,0,0.1,0,0.2c0,0.5,0.1,0.8,0.3,1.1s0.5,0.4,0.9,0.4c0.5,0,0.8-0.3,1.1-0.8c0.2-0.5,0.4-1.3,0.4-2.5c0-0.3,0-0.5,0-0.8
				c0-0.4,0-0.8-0.1-1.2c-0.4,0.4-0.8,0.6-1.2,0.8c-0.4,0.2-0.9,0.3-1.4,0.3c-1.1,0-1.9-0.4-2.5-1.2c-0.6-0.8-0.9-1.9-0.9-3.4
				c0-1.8,0.4-3.1,1.2-4c0.8-0.9,1.9-1.3,3.5-1.3c1.3,0,2.4,0.4,3.1,1.1c0.7,0.7,1.2,1.8,1.3,3.4c0.1,1.5,0.2,2.9,0.2,4.2
				C592.9,41.2,592.8,42.8,592.4,43.8z M589.4,37.4c0.2-0.5,0.3-1.1,0.3-2.1c0-1-0.1-1.7-0.3-2.1c-0.2-0.4-0.6-0.7-1.1-0.7
				c-0.5,0-0.9,0.2-1.1,0.6s-0.3,1.1-0.3,2.1c0,1,0.1,1.7,0.3,2.1c0.2,0.4,0.6,0.6,1.1,0.6C588.8,38.1,589.2,37.9,589.4,37.4z"/>
			<path class="st1" d="M602.9,40.7c0,1-0.2,2-0.4,3c-0.3,1-0.7,1.7-1.4,2.2c-0.7,0.5-1.6,0.8-2.8,0.8c-1.1,0-2-0.3-2.7-0.8
				c-0.7-0.5-1.1-1.3-1.4-2.2c-0.3-1-0.4-2-0.4-3l0-2.1c0-0.6,0-1.4,0-2.4c0-1,0.2-1.9,0.4-2.9s0.7-1.7,1.4-2.2
				c0.7-0.5,1.6-0.8,2.7-0.8c1.2,0,2.1,0.3,2.8,0.8c0.7,0.5,1.2,1.3,1.4,2.3c0.3,1,0.4,2,0.4,3.1l0,2.2L602.9,40.7z M596.9,41.7
				c0,0.9,0.1,1.6,0.3,2.1c0.2,0.4,0.6,0.6,1.1,0.6c0.5,0,0.9-0.2,1.1-0.7s0.3-1.3,0.3-2.3v-5.7c0-1.2-0.1-2-0.3-2.4
				c-0.2-0.4-0.6-0.6-1-0.6c-0.5,0-0.8,0.2-1.1,0.7c-0.2,0.5-0.3,1.3-0.3,2.3V41.7z"/>
			<path class="st1" d="M612.8,40.7c0,1-0.2,2-0.4,3c-0.3,1-0.7,1.7-1.4,2.2c-0.7,0.5-1.6,0.8-2.8,0.8c-1.1,0-2-0.3-2.7-0.8
				c-0.7-0.5-1.1-1.3-1.4-2.2c-0.3-1-0.4-2-0.4-3l0-2.1c0-0.6,0-1.4,0-2.4c0-1,0.2-1.9,0.4-2.9s0.7-1.7,1.4-2.2
				c0.7-0.5,1.6-0.8,2.7-0.8c1.2,0,2.1,0.3,2.8,0.8c0.7,0.5,1.2,1.3,1.4,2.3c0.3,1,0.4,2,0.4,3.1l0,2.2L612.8,40.7z M606.7,41.7
				c0,0.9,0.1,1.6,0.3,2.1c0.2,0.4,0.6,0.6,1.1,0.6c0.5,0,0.9-0.2,1.1-0.7s0.3-1.3,0.3-2.3v-5.7c0-1.2-0.1-2-0.3-2.4
				c-0.2-0.4-0.6-0.6-1-0.6c-0.5,0-0.8,0.2-1.1,0.7c-0.2,0.5-0.3,1.3-0.3,2.3V41.7z"/>
			<path class="st1" d="M620.1,30.5v15.9h-3.4V34.2c-0.4,0.4-0.9,0.7-1.5,1.1c-0.6,0.4-1,0.6-1.2,0.6v-3c0.6-0.3,1.2-0.7,1.7-1.1
				c0.5-0.4,1-0.9,1.3-1.4H620.1z"/>
		</g>
	</g>
	<g>
		<path class="st2" d="M782.6,140.3h0.2c7.7,0,15-1.1,22.1-3.3c7.6-2.6,14.8-7.9,19.1-14.5c7.2-10.5,13.7-30.8,14-51v-0.1
			c-0.3-20.2-6.8-40.5-14-51c-4.3-6.6-11.4-11.9-19-14.5c-7.1-2.1-14.7-3.3-22.4-3.3c-7.7,0-15.4,1.1-22.4,3.3
			c-7.6,2.6-14.6,7.9-19,14.5c-7.2,10.5-13.7,30.8-14,51v0.1c0.3,20.2,6.8,40.5,14,51c4.3,6.6,11.4,11.9,19,14.5
			c7,2.1,14.5,3.3,22.3,3.3H782.6z"/>
		<path class="st1" d="M833.7,71.5c0.2,15.2-4.4,33.7-8.9,43.5c-4.9,11.2-12.5,18.1-23.6,21.1c-6,1.5-12.3,2.3-18.7,2.3
			c-6.4,0-12.8-0.8-18.7-2.3c-11.1-3-18.7-9.9-23.6-21.1c-4.5-9.8-9.1-28.3-8.9-43.5c-0.2-15.2,4.4-33.7,8.9-43.5
			c4.9-11.2,12.5-18.1,23.6-21.1c6-1.5,12.3-2.3,18.7-2.3c6.4,0,12.7,0.8,18.7,2.3c11.1,3,18.7,9.9,23.6,21.1
			C829.3,37.8,834,56.3,833.7,71.5"/>
		<path class="st2" d="M782.7,20.8c5.3,0,10.6,0.7,15.5,2.1c5.2,1.5,9.5,5.1,11.6,10c4.7,10,7.7,24.5,7.7,38.6
			c0,14.2-3.1,28.6-7.7,38.6c-2.1,4.9-6.4,8.5-11.6,10c-4.9,1.3-10.2,2.1-15.5,2.1h-0.2c-5.3,0-10.6-0.7-15.5-2.1
			c-5.2-1.5-9.5-5.1-11.6-10c-4.7-10-7.7-24.5-7.7-38.6c0-14.2,3.1-28.6,7.7-38.6c2.1-4.9,6.4-8.5,11.6-10
			c4.9-1.3,10.2-2.1,15.5-2.1H782.7z"/>
		<path class="st1" d="M790.2,40.2c-0.7-1.3-0.1-0.1-0.9-1.6"/>
		<rect x="756.9" y="68.8" class="st1" width="17.5" height="5.1"/>
		<path class="st1" d="M770.5,113c-0.4-0.8-0.5-1.1-0.6-1.9c3.7,0,6.1,0,10,0c0,1.4-0.8,2.8-2.1,3.7c-1.4,1-3.7,1.2-5.2,0.4
			C771.7,114.7,770.9,113.8,770.5,113"/>
		<path class="st1" d="M781.3,108.9l-5.4,0v-2.5l5.4,0l1.7-2c0.8,1,0.9,1,1.7,2h5.4v2.5l-5.4,0v6.2h-3.5V108.9z"/>
		<path class="st1" d="M781.9,101.1c1.1-0.4,2.7-1,3-2.1c-0.1-1.7,1.1-3,1.9-4.3c0.4-0.6,0.5-0.9,0.4-1.5c1.7,0.1,3.5,1.5,4.1,3.1
			c0.7,1.6,0.4,3.8-0.6,5.1c-1.3,1.6-3.2,2.5-5.3,2.1C784,103.2,782.7,102.4,781.9,101.1"/>
		<path class="st1" d="M769,78.8c-1-0.5-2.3-0.7-3.3-0.2c-0.9,0.2-1.8,1.3-1.9,2.3c-0.1,3,0.1,4,0,7.3c-0.1,0.5-0.3,0.8-1,0.8
			c-0.6,0-1-0.3-1-0.8v-7.5c0-0.8-0.2-1.6-0.7-2.2l-3.9,1.3l-0.4,0.1c1,0.7,1.4,0.7,1.5,1.9l0,9.5l0.1,0.5l0.1,0.3l0.1,0.3l0.1,0.2
			c0.6,1,1.7,1.4,2.5,1.6c0.3,0.1,0.9,0.1,1.3,0.2c1,0,1.9-0.1,3-0.8c1.6-1.2,1.2-3.4,1.3-6.6c0-0.9,0.1-1.4,0.6-1.9
			c0.5-0.4,1.1-0.5,1.7-0.3c0.7,0.2,0.8,0.2,1.5,0.7C770.6,82.9,770.7,79.6,769,78.8"/>
		<path class="st1" d="M804.8,90.7c-2.8-2.8-7.7-6.6-8.1-8.3c-0.4-1.1-0.3-2.4-0.3-3.7c0.8-0.6,1.5-1.2,2.5-2
			c-0.1,2-0.3,3.9,0.6,5.1c2.3,2.3,4.4,4.4,6.5,6.4c0.8,0.8,1.4,2,0.9,3.1c-0.2,0.5-0.6,1.1-0.9,1.6
			C805.9,91.9,805.4,91.3,804.8,90.7"/>
		<path class="st1" d="M788.8,76.7c2.1,0,2.8,0,5.1,0v15.1h-5.1L788.8,76.7z"/>
		<path class="st1" d="M800.2,78.1c0.5-0.6,0.7-0.8,1.4-1.4l1.3,1.5v4.3c1.8-0.9,1.4-3.5,1.4-5.7c1.1,0.9,1.6,1.4,2.6,2.3
			c0.6,2.6-1,4-2.1,5.8l-4.5-4.3V78.1z"/>
		<path class="st1" d="M804.4,66.5l0.7-2.9l2.2-0.3l0-7.1c-0.9,0.1-1.2,0.2-1.9,0.3v-5.4c-1.2,0.2-2.4,0.7-3.6,0.9v9
			c0,0.4-0.7,0.6-0.8,0.6h-0.2c-0.4,0-0.9-0.3-0.9-0.6v-8.6l-3.6,0.5v3.6c-1.3,2.6-3.1,4.9-4.9,7.2c1.9,0.1,2.1,0.1,4,0.3l1.2,2.6
			H804.4z"/>
		<path class="st1" d="M763.9,64.8c-0.1-2.4-0.2-3.9-0.2-6.2c0.7-0.2,1.4,0.3,2,0.7c-0.1,3-0.1,2.9-0.2,6h-1.6L763.9,64.8z"/>
		<path class="st1" d="M763.6,51.2c-0.4-2.3-0.4-2.5-0.6-4.2h-1.5v-1.6c2.6,0,4,0,6.5,0l0,1.6h-1.5l-0.7,5.5
			C765.1,51.9,764.4,51.5,763.6,51.2"/>
		<path class="st1" d="M763.3,44.2c-2.2-2.3-2.3-5.9-1.9-9l0,0c0.4,1.2,1.1,2,2.3,2.6c-0.1-0.6-0.7-1.2-0.9-1.9
			c-0.5-1.3-0.5-3.1,0.4-4.2c0.6-0.9,1.4-1.2,2.4-1.5c-0.4,1.1-0.5,2.3,0,3.4c0.6-0.5,0.6-0.5,1.1-1c0.2-0.2,0.3-0.2,0.4-0.3
			c0.9,1.9,1.9,4.4,1.3,6.6l-0.4,0.9c-0.1-1.5-0.4-2.3-1.4-2.8c-0.1,0.9,0.4,1.5,0.6,2.7c0.4,1.8,0.1,3.6-1,4.6H763.3z"/>
		<path class="st1" d="M790.2,40.2l-2.3,2.5c-0.6-0.6-0.7-0.6-1.3-1.3c1.2-1.2,1.3-1.3,2.6-2.8"/>
		<path class="st1" d="M793.2,34.2c0.5-2.1,0.7-4.6,3.1-5.5c0.9-0.2,2.1-0.1,2.8,0.5c1,0.7,1.3,2,1.1,3.1c-0.7,2.5-3.5,3-5.7,3.5
			L793.2,34.2z"/>
		<polygon class="st1" points="808.8,68.8 808.8,73.9 791.2,73.9 791.2,68.8 		"/>
		<path class="st1" d="M766.4,103.1c-0.7-3.2,3.2-4.4,4.1-7.1c0.7-4.5,1-9.2,4.1-12.7c0.3-6.6,2.5-12.5,7.1-17.3
			c-0.2-1.5-0.8-2.8-1.3-4.2c-0.6,0-1-0.1-1.6-0.6c-0.4-0.6-0.6-1-0.7-1.7c-1.6,2-3.7,4.3-5.9,5.7c-0.4,0.2-0.9-0.3-1.7-1
			c-2.7-2.2-3.2-7.1-7.4-6.8c-1.9-0.6-1.8-2.9-2.1-4.5c0.7-0.5,1.8-0.5,2.7-0.2c2.6,1.4,4.3,4.3,6.8,6.3c0.7,0.5,1.3,1.2,1.9,1.5
			c1.6-1.4,2.9-2.6,4-4.7c0.8-1.2,2-1.7,3.4-1.8l1-1.2l-0.5-2.9c-1-1.3-1.9-2.7-2.5-4.1c0.4-1.7,0.6-3.6,2.3-4.5
			c1.1-0.7,2,0.9,2.9-0.1c0.7-0.1,1.2,0,1.7,0.4c0.7,1.2,1.5,2.4,1.5,3.8c-0.4,1.3-1.1,2.6-1.7,3.9c-0.2,0.3-0.5,0.4-0.8,0.6
			c0.2,0.6,0.3,1.2,0.7,1.7c0.5,0.1,1,0.2,1.6,0.1c0.5-1.5,2.1-2.1,3.4-2.5l2.9-1.9c-0.5-2.2,0.9-4.1,0.2-6.4
			c-1.7-0.8-2.1-2.7-2.5-4.1c0.3-0.9,0.7-1.9,1.4-2.7l0.1,0.1c1.6,1.8,3,3.7,3.5,6c0.3,2.9,0.6,5.9,0.4,9c-1.6,1.6-3.5,2.5-5.2,3.7
			l-1.3,2.5c-0.2,2.6-0.9,5-1.3,7.5c1.1,3.1,2.5,7.1,1.5,10c-0.7,1.7-2.3,2.6-3.5,3.5l-3,2.4c3,3.3,2.3,7,2.4,11.8
			c0,1.2,2,2.1,0.9,3.4c-0.9,1.5-2.4,2.7-2.1,4.6c-0.9,1.5-3.1,1.9-4.1,1.9c-0.2,0-0.4-0.2-0.4-0.4c0.2-0.8,0.8-1.4,1.2-2.2
			c1.1-1.6,0.6-3.9,1.9-5.4c-1.1-3.5-2.7-6.8-3.2-10.6l0-0.2c-0.9,1.7-0.4,3.4,0.1,4.8c-2.9,3.7-6.1,7.3-6.1,12.1
			c-1.3,2.2-3,4.3-4,6.6c-0.3,0.4-0.9,0-1.3-0.2C766.9,104.4,766.7,103.8,766.4,103.1"/>
		<path class="st1" d="M798.6,87.1c2.8,2.8,7.7,6.6,8.1,8.3c0.4,1.1,0.3,2.4,0.3,3.7c-0.8,0.6-1.5,1.2-2.5,2
			c0.1-1.9,0.4-3.9-0.6-5.1c-2.3-2.3-4.4-4.4-6.5-6.4c-0.8-0.8-1.4-2-0.9-3.1c0.2-0.5,0.6-1.1,0.9-1.6
			C797.5,85.9,798,86.5,798.6,87.1"/>
		<path class="st1" d="M803.2,99.7c-0.5,0.6-0.7,0.8-1.4,1.4l-1.3-1.5v-4.3c-1.8,0.9-1.4,3.4-1.4,5.7c-1.1-0.9-1.6-1.4-2.6-2.3
			c-0.6-2.6,1-4,2.1-5.8l4.5,4.3V99.7z"/>
		<path class="st1" d="M795.6,113c0.4-0.8,0.5-1.1,0.6-1.9c-3.7,0-6.1,0-10,0c0,1.4,0.8,2.8,2.1,3.7c1.4,1,3.7,1.2,5.2,0.4
			C794.3,114.7,795.1,113.8,795.6,113"/>
		<path class="st2" d="M784.4,134.9c0-2.8,2.7-4.2,4.4-6c0.5-0.4,0.6-1.3,0.3-2.1c-0.2-0.5-0.5-0.7-0.9-0.8c-0.6-0.1-1.1,0-1.5,0.3
			c-0.5,0.5-0.7,1.1-0.7,1.8l-1.9,0.1c-0.2-1.1,0.1-2.1,0.7-2.9c0.9-1,2.2-1.2,3.5-1.1c1,0.2,2.3,0.8,2.7,1.9
			c0.6,1.2,0.4,2.7-0.5,3.7c-1.1,1.2-2.6,1.9-3.5,3.2l4.8-0.3c0,0.6,0.1,1.2,0.1,1.7L784.4,134.9z"/>
		<path class="st2" d="M767.3,122.8L767.3,122.8l-3.2,9.7l-2-0.7l2.2-6.6l0-0.1c-0.8-0.3-1.8-0.6-2.5-0.8l0.4-1.2
			c1,0.3,2.1,0.4,2.9-0.3c0.3-0.2,0.4-0.3,0.6-0.5L767.3,122.8z"/>
		<path class="st2" d="M803,130c-0.3,0.3-0.7,0.5-1.2,0.6c-0.5,0.1-1,0.1-1.4,0c-0.5-0.2-0.8-0.6-1-1c-0.2-0.7,0-1.4,0.6-1.7
			c0.2-0.2,0.6-0.3,1-0.4c0.4-0.1,0.8-0.1,1.1-0.1c0.7,0.1,1.2,0.6,1.3,1.3C803.5,129.1,803.4,129.6,803,130 M798.8,125.4
			c-0.2-0.4-0.2-1.1,0.2-1.5c0.2-0.3,0.6-0.4,1-0.5c0.4-0.1,0.8-0.1,1.1,0c0.6,0.2,0.9,0.8,0.9,1.3c0,0.4-0.2,0.7-0.4,0.9
			c-0.2,0.2-0.6,0.4-0.9,0.5c-0.4,0.1-0.7,0.1-1.1,0C799.3,125.9,799,125.7,798.8,125.4 M805.4,128.1c-0.3-0.9-0.8-1.7-1.8-2
			L803,126c0.6-0.4,1.2-1.3,1-2.2c-0.1-1-0.9-1.6-1.8-2c-0.8-0.2-1.7-0.2-2.6,0c-0.9,0.2-1.7,0.6-2.3,1.2c-0.6,0.7-1,1.6-0.6,2.6
			c0.2,0.9,1.1,1.4,1.9,1.5l-0.5,0.4c-0.8,0.8-0.9,1.7-0.7,2.6c0.2,1.1,1.1,1.9,2.1,2.2c0.8,0.2,1.7,0.2,2.7,0
			c0.9-0.2,1.8-0.7,2.4-1.2C805.3,130.3,805.7,129.2,805.4,128.1"/>
		<path class="st2" d="M776.6,132.8c-0.3,0.2-0.8,0.3-1.3,0.3c-0.5,0-1-0.2-1.3-0.4c-0.4-0.3-0.6-0.8-0.6-1.3c0-0.7,0.4-1.3,1.1-1.5
			c0.3-0.1,0.7-0.1,1.1-0.1c0.4,0,0.8,0.1,1,0.3c0.6,0.3,0.9,0.9,0.9,1.6C777.3,132.1,777,132.6,776.6,132.8 M773.9,127.2
			c-0.1-0.5,0.1-1.1,0.6-1.4c0.3-0.2,0.7-0.2,1.1-0.2c0.4,0,0.8,0.1,1.1,0.4c0.5,0.3,0.6,1,0.5,1.5c-0.1,0.4-0.4,0.6-0.7,0.7
			c-0.3,0.1-0.7,0.2-1,0.2c-0.4,0-0.7-0.1-1-0.3C774.2,127.8,774,127.5,773.9,127.2 M779.4,131.8c0-1-0.2-1.9-1.1-2.5l-0.5-0.3
			c0.7-0.2,1.5-0.9,1.6-1.8c0.2-1-0.3-1.8-1.1-2.4c-0.7-0.5-1.6-0.7-2.5-0.7c-0.9-0.1-1.8,0.1-2.5,0.4c-0.8,0.5-1.4,1.2-1.4,2.2
			c0,0.9,0.7,1.7,1.4,2l-0.6,0.2c-1,0.5-1.4,1.3-1.4,2.3c-0.1,1.1,0.5,2.1,1.4,2.7c0.7,0.4,1.6,0.7,2.5,0.8c0.9,0.1,1.9-0.1,2.6-0.4
			C778.7,133.8,779.4,132.9,779.4,131.8"/>
		
			<rect x="814.5" y="34.2" transform="matrix(0.9182 -0.3962 0.3962 0.9182 53.1273 327.6305)" class="st2" width="10.2" height="2.1"/>
		<path class="st2" d="M789.4,18L787,7.5l2.2,0.2c0.4,2.6,0.9,5.5,1.4,7.7c0.9-2,2-4.8,3-7.3l2.2,0.2l-4.4,9.8L789.4,18z"/>
		<polygon class="st2" points="749.6,24 747.3,28.1 745.4,27 748,22.3 746.6,21.5 742.9,28 751.8,33 755.5,26.5 754,25.6 
			751.4,30.3 748.9,28.9 751.2,24.9 		"/>
		<path class="st2" d="M742.9,71.9l-2.8,0h0c0-2.3-0.3-3.6,1-3.9c0.5-0.1,1.1-0.1,1.4,0.3C743,68.9,742.8,69.8,742.9,71.9
			 M738.5,71.9l-2.5,0c0.1-2.3-0.3-3.6,1.1-3.7c0.8-0.1,1.1,0.1,1.3,0.6C738.5,69.3,738.5,69.9,738.5,71.9 M744.2,67.3
			c-0.5-1.1-1.7-1.5-2.9-1.5c-1,0.1-1.8,0.8-2.2,1.9c-0.2-0.6-0.7-1.4-1.7-1.5c-1-0.1-2,0.2-2.5,1c-0.7,0.9-0.4,4.7-0.5,6.8l10.1,0
			l0-0.7C744.5,69.3,744.7,68.8,744.2,67.3"/>
		<polygon class="st2" points="824.8,39.8 826.4,39.4 828.4,47.4 826.8,47.8 826.1,44.9 817.9,47 817.4,44.9 825.5,42.8 		"/>
		<path class="st2" d="M773.3,18.6c-1.1,0.2-2.3,0.1-3.2-0.5c-0.8-0.5-1.1-1.1-1.2-1.8L767.7,9l2.1-0.3l1.2,7.3
			c0.1,0.6,0.6,1,1.2,1.1c0.3,0.1,0.6,0.1,1,0"/>
		<path class="st2" d="M773.4,18.6c1.1-0.2,2.2-0.6,2.9-1.5c0.6-0.7,0.7-1.4,0.6-2.1l-1.2-7.3L773.6,8l1.2,7.3
			c0.1,0.6-0.3,1.1-0.8,1.4c-0.3,0.2-0.6,0.3-0.9,0.3"/>
		<path class="st2" d="M823.6,57.5l-0.4-2.5l4.4,0.7h0l0,0l0,0h0L823.6,57.5z M829.5,54.3l-10.6-2.1l0.3,2.1l2.3,0.4l0.5,3.6l-2.1,1
			l0.3,2.1l9.6-4.9L829.5,54.3z"/>
		<path class="st2" d="M828,71.8l0.2,0l0.2-0.1l0.2-0.1c0.7-0.4,0.8-1.3,0.8-2c0-0.7-0.3-1.5-1-1.8c-0.4-0.1-0.8-0.1-1,0.2
			c-1.2,1.7-0.4,5.3-3.3,5.9c-1.3,0.2-2.4-0.3-3.1-1.4c-0.9-1.6-1-4.2,0.1-5.8c0.6-0.8,1.5-1.3,2.5-1.3l0.1,1.9
			c-0.6,0.1-1.3,0.4-1.6,1c-0.4,1-0.3,2.6,0.4,3.2c0.3,0.3,0.9,0.3,1.3,0.1c1.2-0.8,0.9-3,1.5-4.4c0.2-0.6,0.8-1.2,1.3-1.5
			c1-0.4,2.4-0.3,3.2,0.5c1.4,1.3,1.4,3.8,0.8,5.3c-0.4,1.1-1.5,1.8-2.7,1.9l-0.1-2L828,71.8z"/>
		<path class="st2" d="M745.9,56.4c-0.2,1.1-0.6,2.2-1.5,2.9c-0.7,0.6-1.4,0.7-2.1,0.6l-7.3-1.1l0.3-2.1l7.3,1.1
			c0.6,0.1,1.1-0.3,1.4-0.8c0.2-0.3,0.3-0.6,0.3-0.9"/>
		<path class="st2" d="M745.9,56.4c0.2-1.1,0.1-2.3-0.5-3.2c-0.5-0.8-1.1-1.1-1.8-1.2l-7.3-1.1l-0.3,2.1l7.3,1.1
			c0.6,0.1,1,0.6,1.1,1.2c0.1,0.3,0.1,0.6,0,1"/>
		<path class="st2" d="M758.5,19.4l-1.1-4.3l0,0l0,0v0l0,0l3.3,3L758.5,19.4z M757.3,12.9l-1.9,1.1l2.2,10.6l1.8-1.1l-0.5-2.3
			l3.1-1.9l1.8,1.5l1.8-1.1L757.3,12.9z"/>
		<polygon class="st2" points="806.7,16.2 802.4,14.4 803.3,12.3 808.2,14.4 808.8,12.8 801.9,10 798,19.4 804.9,22.2 805.6,20.7 
			800.6,18.6 801.7,16 806,17.8 		"/>
		<path class="st2" d="M742.6,42.4l-2.6-0.8c0.6-1.7,0.8-3.5,2-3.4c0.5,0.1,0.8,0.2,1.1,0.6C743.7,39.4,743.1,40.7,742.6,42.4
			 M744.7,38.7c0-0.7,0-1.3-0.6-1.8c-0.6-0.6-1.5-0.9-2.3-0.8c-2.3,0.4-2.6,3-3.8,7.1l9.8,2.9l0.6-2l-3.8-1.1l-0.2-0.1
			c0.3-0.9,0.6-2.1,0.8-2.4c0.7-1.6,3.3,0,4.3-0.2l0.6-2C748.2,38.4,745.9,36.8,744.7,38.7"/>
		<path class="st2" d="M817.4,24.8c-0.4,0.4-0.7,0.6-1.1,0.6c-0.8,0-1.5-1.2-2.5-2.6l2.1-1.6C816.9,22.6,818.2,23.9,817.4,24.8
			 M815.9,18.5l-8.1,6.2l1.3,1.7l3.2-2.4l0.1-0.1c0.6,0.8,1.3,1.8,1.4,2.1c0.9,1.5-1.9,2.7-2.4,3.6l1.3,1.7c1-1.5,3.6-2.4,2.8-4.6
			c0.6,0.4,1.1,0.7,1.9,0.6c0.8-0.1,1.5-0.7,2-1.4C820.4,23.7,818.5,21.9,815.9,18.5"/>
	</g>
</g>
<g>
	<path class="st3" d="M451.8,96.3c0-0.5,0.1-1.1,0.1-1.7c0-0.6,0-1.3,0-1.9c0-0.7,0-1.3,0-1.9c0-0.6-0.1-1.2-0.1-1.7
		c-0.1-0.7-0.2-1.4-0.5-2c-0.2-0.6-0.6-1.1-1-1.6c-0.4-0.4-1-0.8-1.7-1.1c-0.7-0.3-1.4-0.4-2.3-0.4c-0.9,0-1.7,0.1-2.3,0.4
		c-0.7,0.3-1.2,0.6-1.7,1.1c-0.4,0.4-0.8,1-1,1.6c-0.2,0.6-0.4,1.3-0.5,2c-0.1,0.5-0.1,1-0.1,1.7c0,0.6,0,1.3,0,1.9
		c0,0.7,0,1.3,0,1.9c0,0.6,0.1,1.2,0.1,1.7c0.1,1.4,0.6,2.6,1.5,3.6c0.9,1,2.2,1.4,4,1.4c1.8,0,3.1-0.5,4-1.4
		C451.1,98.9,451.6,97.7,451.8,96.3 M432.8,88.8c0.1-1.6,0.4-3.1,1.1-4.6c0.6-1.4,1.5-2.7,2.6-3.7c1.1-1.1,2.5-1.9,4.2-2.5
		c1.6-0.6,3.5-0.9,5.6-0.9c2.1,0,4,0.3,5.6,0.9c1.6,0.6,3,1.5,4.2,2.5c1.1,1.1,2,2.3,2.6,3.7c0.6,1.4,1,3,1.1,4.6
		c0.1,1.2,0.1,2.5,0.1,3.9c0,1.4,0,2.6-0.1,3.8c-0.1,1.6-0.4,3.1-1.1,4.6c-0.6,1.4-1.5,2.7-2.6,3.7c-1.1,1.1-2.5,1.9-4.2,2.5
		c-1.6,0.6-3.5,0.9-5.6,0.9c-2.1,0-4-0.3-5.6-0.9c-1.6-0.6-3-1.4-4.2-2.5c-1.1-1.1-2-2.3-2.6-3.7c-0.6-1.4-1-2.9-1.1-4.6
		c-0.1-1.2-0.1-2.5-0.1-3.8C432.7,91.3,432.7,90,432.8,88.8z M407.8,89c0,0.4-0.1,0.9-0.1,1.6c0,0.7,0,1.3,0,2.1c0,0.7,0,1.4,0,2.1
		c0,0.7,0,1.2,0.1,1.6c0.1,0.7,0.2,1.3,0.4,1.9c0.2,0.6,0.5,1.1,1,1.6c0.4,0.5,1,0.8,1.6,1.1c0.7,0.3,1.5,0.4,2.5,0.4
		c1,0,1.8-0.1,2.4-0.3c0.6-0.2,1.2-0.5,1.6-0.8c0.4-0.3,0.7-0.7,0.9-1.1c0.2-0.4,0.4-0.8,0.5-1.1c0.1-0.5,0.3-0.8,0.5-1
		c0.2-0.2,0.5-0.3,1-0.3h5.7c0.3,0,0.5,0.1,0.7,0.3c0.2,0.2,0.3,0.4,0.3,0.7c0,1.5-0.4,2.9-1.1,4.2c-0.7,1.3-1.6,2.4-2.9,3.4
		c-1.2,1-2.6,1.7-4.3,2.3c-1.6,0.6-3.4,0.8-5.3,0.8c-2.1,0-3.9-0.3-5.6-0.9c-1.6-0.6-3-1.5-4.2-2.5c-1.2-1.1-2-2.3-2.7-3.7
		c-0.6-1.4-1-2.9-1.1-4.5c-0.1-1.2-0.1-2.5-0.1-3.8c0-1.4,0-2.7,0.1-3.9c0.1-1.6,0.4-3.1,1-4.5c0.6-1.4,1.5-2.7,2.7-3.7
		c1.1-1.1,2.5-1.9,4.2-2.5c1.6-0.6,3.5-0.9,5.6-0.9c1.9,0,3.7,0.3,5.3,0.8c1.6,0.6,3.1,1.3,4.3,2.3c1.2,1,2.2,2.1,2.9,3.4
		c0.7,1.3,1.1,2.7,1.1,4.2c0,0.3-0.1,0.5-0.3,0.7c-0.2,0.2-0.4,0.3-0.7,0.3h-5.7c-0.5,0-0.8-0.1-1-0.3c-0.2-0.2-0.3-0.5-0.5-1
		c-0.1-0.3-0.3-0.7-0.5-1.1c-0.2-0.4-0.5-0.8-0.9-1.1c-0.4-0.3-0.9-0.6-1.6-0.8c-0.6-0.2-1.4-0.3-2.4-0.3c-1,0-1.8,0.1-2.5,0.4
		c-0.7,0.3-1.2,0.6-1.6,1.1c-0.4,0.5-0.7,1-1,1.6C408,87.7,407.8,88.3,407.8,89z M385.3,107.8c-0.3,0-0.6-0.1-0.8-0.3
		c-0.2-0.2-0.3-0.5-0.3-0.8v-28c0-0.3,0.1-0.6,0.3-0.8c0.2-0.2,0.5-0.3,0.8-0.3h5.7c0.3,0,0.6,0.1,0.8,0.3c0.2,0.2,0.3,0.5,0.3,0.8
		v28c0,0.3-0.1,0.6-0.3,0.8c-0.2,0.2-0.5,0.3-0.8,0.3H385.3z M375.8,77.5c0.3,0,0.6,0.1,0.8,0.3c0.2,0.2,0.3,0.5,0.3,0.8v4.6
		c0,0.3-0.1,0.6-0.3,0.8c-0.2,0.2-0.5,0.3-0.8,0.3h-12.9v5.9H375c0.3,0,0.6,0.1,0.8,0.3c0.2,0.2,0.3,0.5,0.3,0.8v4.6
		c0,0.3-0.1,0.6-0.3,0.8c-0.2,0.2-0.5,0.3-0.8,0.3h-12.1v9.3c0,0.3-0.1,0.6-0.3,0.8c-0.2,0.2-0.5,0.3-0.8,0.3h-5.7
		c-0.3,0-0.6-0.1-0.8-0.3c-0.2-0.2-0.3-0.5-0.3-0.8v-28c0-0.3,0.1-0.6,0.3-0.8c0.2-0.2,0.5-0.3,0.8-0.3H375.8z M343.1,69.2
		c0.3-0.4,0.6-0.6,0.8-0.7c0.2-0.1,0.5-0.1,0.8-0.1h6.2c0.5,0,0.8,0.3,0.8,0.9c0,0.2-0.1,0.4-0.2,0.5l-5.8,4.8
		c-0.2,0.2-0.5,0.4-0.7,0.5c-0.3,0.1-0.6,0.2-1.1,0.2h-4.2c-0.5,0-0.7-0.2-0.7-0.7c0-0.2,0.1-0.4,0.2-0.6L343.1,69.2z M339.4,107.8
		c-0.3,0-0.6-0.1-0.8-0.3c-0.2-0.2-0.3-0.5-0.3-0.8v-28c0-0.3,0.1-0.6,0.3-0.8c0.2-0.2,0.5-0.3,0.8-0.3h5.7c0.3,0,0.6,0.1,0.8,0.3
		c0.2,0.2,0.3,0.5,0.3,0.8v28c0,0.3-0.1,0.6-0.3,0.8c-0.2,0.2-0.5,0.3-0.8,0.3H339.4z M312.3,89c0,0.4-0.1,0.9-0.1,1.6
		c0,0.7,0,1.3,0,2.1c0,0.7,0,1.4,0,2.1c0,0.7,0,1.2,0.1,1.6c0.1,0.7,0.2,1.3,0.4,1.9c0.2,0.6,0.5,1.1,1,1.6c0.4,0.5,1,0.8,1.6,1.1
		c0.7,0.3,1.5,0.4,2.5,0.4c1,0,1.8-0.1,2.4-0.3c0.6-0.2,1.2-0.5,1.6-0.8c0.4-0.3,0.7-0.7,0.9-1.1c0.2-0.4,0.4-0.8,0.5-1.1
		c0.1-0.5,0.3-0.8,0.5-1c0.2-0.2,0.5-0.3,1-0.3h5.7c0.3,0,0.5,0.1,0.7,0.3c0.2,0.2,0.3,0.4,0.3,0.7c0,1.5-0.4,2.9-1.1,4.2
		c-0.7,1.3-1.6,2.4-2.9,3.4c-1.2,1-2.6,1.7-4.3,2.3c-1.6,0.6-3.4,0.8-5.3,0.8c-2.1,0-3.9-0.3-5.6-0.9c-1.6-0.6-3-1.5-4.2-2.5
		c-1.2-1.1-2-2.3-2.7-3.7c-0.6-1.4-1-2.9-1.1-4.5c-0.1-1.2-0.1-2.5-0.1-3.8c0-1.4,0-2.7,0.1-3.9c0.1-1.6,0.4-3.1,1-4.5
		c0.6-1.4,1.5-2.7,2.7-3.7c1.1-1.1,2.5-1.9,4.2-2.5c1.6-0.6,3.5-0.9,5.6-0.9c1.9,0,3.7,0.3,5.3,0.8c1.6,0.6,3.1,1.3,4.3,2.3
		c1.2,1,2.2,2.1,2.9,3.4c0.7,1.3,1.1,2.7,1.1,4.2c0,0.3-0.1,0.5-0.3,0.7c-0.2,0.2-0.4,0.3-0.7,0.3h-5.7c-0.5,0-0.8-0.1-1-0.3
		c-0.2-0.2-0.3-0.5-0.5-1c-0.1-0.3-0.3-0.7-0.5-1.1c-0.2-0.4-0.5-0.8-0.9-1.1c-0.4-0.3-0.9-0.6-1.6-0.8c-0.6-0.2-1.4-0.3-2.4-0.3
		c-1,0-1.8,0.1-2.5,0.4c-0.7,0.3-1.2,0.6-1.6,1.1c-0.4,0.5-0.7,1-1,1.6C312.5,87.7,312.3,88.3,312.3,89z M281.4,96.4h7L284.9,86
		L281.4,96.4z M288.4,77.5c0.6,0,1,0.2,1.3,0.5c0.3,0.3,0.5,0.6,0.6,1l9.4,27.3c0.1,0.3,0.2,0.5,0.2,0.6c0,0.3-0.1,0.5-0.3,0.7
		c-0.2,0.2-0.4,0.3-0.7,0.3h-5.5c-0.6,0-1-0.1-1.2-0.4c-0.2-0.2-0.4-0.5-0.5-0.7l-1.2-3.6h-11.5l-1.2,3.6c-0.1,0.2-0.2,0.5-0.5,0.7
		c-0.2,0.2-0.7,0.4-1.2,0.4h-5.5c-0.3,0-0.5-0.1-0.7-0.3c-0.2-0.2-0.3-0.4-0.3-0.7c0-0.1,0.1-0.4,0.2-0.6l9.4-27.3
		c0.1-0.3,0.3-0.6,0.6-1c0.3-0.3,0.7-0.5,1.3-0.5H288.4z M250.3,91h5.3c1.2,0,2.2-0.3,3-0.8c0.8-0.5,1.2-1.4,1.2-2.6
		c0-1.2-0.4-2.1-1.2-2.6c-0.8-0.5-1.8-0.8-3-0.8h-5.3V91z M255.8,77.5c1.8,0,3.5,0.2,5,0.6c1.5,0.4,2.7,1.1,3.8,1.9
		c1,0.9,1.8,1.9,2.4,3.2c0.6,1.3,0.8,2.7,0.8,4.4c0,1.7-0.3,3.2-0.8,4.5c-0.6,1.3-1.4,2.3-2.4,3.2c-1,0.8-2.3,1.5-3.8,1.9
		c-1.5,0.4-3.1,0.6-5,0.6h-5.5v8.8c0,0.3-0.1,0.6-0.3,0.8c-0.2,0.2-0.5,0.3-0.8,0.3h-5.7c-0.3,0-0.6-0.1-0.8-0.3
		c-0.2-0.2-0.3-0.5-0.3-0.8v-28c0-0.3,0.1-0.6,0.3-0.8c0.2-0.2,0.5-0.3,0.8-0.3H255.8z M212.9,100.9c0.3,0,0.6,0.1,0.8,0.3
		c0.2,0.2,0.3,0.5,0.3,0.8v4.6c0,0.3-0.1,0.6-0.3,0.8c-0.2,0.2-0.5,0.3-0.8,0.3h-20c-0.3,0-0.6-0.1-0.8-0.3
		c-0.2-0.2-0.3-0.5-0.3-0.8v-28c0-0.3,0.1-0.6,0.3-0.8c0.2-0.2,0.5-0.3,0.8-0.3h5.7c0.3,0,0.6,0.1,0.8,0.3c0.2,0.2,0.3,0.5,0.3,0.8
		v22.2H212.9z M183,100.9c0.3,0,0.6,0.1,0.8,0.3c0.2,0.2,0.3,0.5,0.3,0.8v4.6c0,0.3-0.1,0.6-0.3,0.8c-0.2,0.2-0.5,0.3-0.8,0.3h-20.5
		c-0.3,0-0.6-0.1-0.8-0.3c-0.2-0.2-0.3-0.5-0.3-0.8v-28c0-0.3,0.1-0.6,0.3-0.8c0.2-0.2,0.5-0.3,0.8-0.3h20.2c0.3,0,0.6,0.1,0.8,0.3
		c0.2,0.2,0.3,0.5,0.3,0.8v4.6c0,0.3-0.1,0.6-0.3,0.8c-0.2,0.2-0.5,0.3-0.8,0.3h-13.3v4.7h12.4c0.3,0,0.6,0.1,0.8,0.3
		c0.2,0.2,0.3,0.5,0.3,0.8v4.6c0,0.3-0.1,0.6-0.3,0.8c-0.2,0.2-0.5,0.3-0.8,0.3h-12.4v4.8H183z M145.7,89.4c-0.2-3.3-2.1-5-5.9-5
		h-4.4v16.4h4.6c3.6,0,5.5-1.7,5.7-5c0-0.6,0-1.2,0-1.7c0-0.5,0-1.1,0-1.6c0-0.5,0-1,0-1.5C145.8,90.6,145.7,90,145.7,89.4z
		 M140,77.5c2,0,3.8,0.3,5.5,0.9c1.6,0.6,3.1,1.4,4.3,2.5c1.2,1.1,2.1,2.3,2.8,3.8c0.7,1.5,1.1,3.1,1.1,4.9c0,0.6,0,1.2,0,1.7
		c0,0.5,0,1,0,1.5c0,0.5,0,0.9,0,1.4c0,0.5,0,1,0,1.6c-0.1,1.8-0.5,3.4-1.1,4.9c-0.7,1.5-1.6,2.7-2.7,3.8c-1.2,1.1-2.6,1.9-4.2,2.5
		c-1.6,0.6-3.4,0.9-5.4,0.9h-11.7c-0.3,0-0.6-0.1-0.8-0.3c-0.2-0.2-0.3-0.5-0.3-0.8v-28c0-0.3,0.1-0.6,0.3-0.8
		c0.2-0.2,0.5-0.3,0.8-0.3H140z M442.8,45.1h7l-3.5-10.4L442.8,45.1z M449.8,26.2c0.6,0,1,0.2,1.3,0.5c0.3,0.3,0.5,0.6,0.6,1
		l9.4,27.3c0.1,0.3,0.2,0.5,0.2,0.6c0,0.3-0.1,0.5-0.3,0.7c-0.2,0.2-0.4,0.3-0.7,0.3h-5.5c-0.6,0-1-0.1-1.2-0.4
		c-0.2-0.2-0.4-0.5-0.5-0.7l-1.2-3.6h-11.5l-1.2,3.6c-0.1,0.2-0.2,0.5-0.5,0.7c-0.2,0.2-0.7,0.4-1.2,0.4h-5.5
		c-0.3,0-0.5-0.1-0.7-0.3c-0.2-0.2-0.3-0.4-0.3-0.7c0-0.1,0.1-0.4,0.2-0.6l9.4-27.3c0.1-0.3,0.3-0.6,0.6-1c0.3-0.3,0.7-0.5,1.3-0.5
		H449.8z M409.9,39.3h4.9c1.2,0,2.2-0.2,3-0.7c0.8-0.5,1.2-1.3,1.2-2.5c0-1.2-0.4-2-1.2-2.5c-0.8-0.5-1.8-0.7-3-0.7h-4.9V39.3z
		 M414.8,26.2c1.9,0,3.6,0.2,5.1,0.6c1.5,0.4,2.8,1,3.8,1.8c1.1,0.8,1.9,1.8,2.4,3.1c0.6,1.3,0.8,2.7,0.8,4.4c0,2.2-0.4,4-1.3,5.4
		c-0.9,1.4-2.2,2.5-3.8,3.3l5.4,10.3c0.1,0.2,0.1,0.3,0.1,0.5c0,0.3-0.1,0.5-0.3,0.7c-0.2,0.2-0.4,0.3-0.7,0.3h-5.9
		c-0.6,0-1-0.1-1.2-0.4c-0.2-0.3-0.4-0.5-0.6-0.8l-4.8-9.3h-4v9.3c0,0.3-0.1,0.6-0.3,0.8c-0.2,0.2-0.5,0.3-0.8,0.3H403
		c-0.3,0-0.6-0.1-0.8-0.3c-0.2-0.2-0.3-0.5-0.3-0.8v-28c0-0.3,0.1-0.6,0.3-0.8c0.2-0.2,0.5-0.3,0.8-0.3H414.8z M386.8,45
		c0-0.5,0.1-1.1,0.1-1.7c0-0.6,0-1.3,0-1.9c0-0.7,0-1.3,0-1.9c0-0.6-0.1-1.2-0.1-1.7c-0.1-0.7-0.2-1.4-0.5-2c-0.2-0.6-0.6-1.1-1-1.6
		c-0.4-0.4-1-0.8-1.7-1.1c-0.7-0.3-1.4-0.4-2.3-0.4c-0.9,0-1.7,0.1-2.3,0.4c-0.7,0.3-1.2,0.6-1.7,1.1c-0.4,0.4-0.8,1-1,1.6
		c-0.2,0.6-0.4,1.3-0.5,2c-0.1,0.5-0.1,1-0.1,1.7c0,0.6,0,1.3,0,1.9c0,0.7,0,1.3,0,1.9c0,0.6,0.1,1.2,0.1,1.7
		c0.1,1.4,0.6,2.6,1.5,3.6c0.9,1,2.2,1.4,4,1.4c1.8,0,3.1-0.5,4-1.4C386.1,47.6,386.6,46.4,386.8,45z M367.8,37.5
		c0.1-1.6,0.4-3.1,1.1-4.6c0.6-1.4,1.5-2.7,2.6-3.7c1.1-1.1,2.5-1.9,4.2-2.5c1.6-0.6,3.5-0.9,5.6-0.9c2.1,0,4,0.3,5.6,0.9
		c1.6,0.6,3,1.5,4.2,2.5c1.1,1.1,2,2.3,2.6,3.7c0.6,1.4,1,3,1.1,4.6c0.1,1.2,0.1,2.5,0.1,3.9s0,2.6-0.1,3.8
		c-0.1,1.6-0.4,3.1-1.1,4.6c-0.6,1.4-1.5,2.7-2.6,3.7c-1.1,1.1-2.5,1.9-4.2,2.5c-1.6,0.6-3.5,0.9-5.6,0.9c-2.1,0-4-0.3-5.6-0.9
		c-1.6-0.6-3-1.4-4.2-2.5c-1.1-1.1-2-2.3-2.6-3.7c-0.6-1.4-1-2.9-1.1-4.6c-0.1-1.2-0.1-2.5-0.1-3.8S367.7,38.7,367.8,37.5z
		 M353.8,38.1c-0.2-3.3-2.1-5-5.9-5h-4.4v16.4h4.6c3.6,0,5.5-1.7,5.7-5c0-0.6,0-1.2,0-1.7c0-0.5,0-1.1,0-1.6c0-0.5,0-1,0-1.5
		C353.8,39.3,353.8,38.7,353.8,38.1z M348.1,26.2c2,0,3.8,0.3,5.5,0.9c1.6,0.6,3.1,1.4,4.3,2.5c1.2,1.1,2.1,2.3,2.8,3.8
		c0.7,1.5,1.1,3.1,1.1,4.9c0,0.6,0,1.2,0,1.7c0,0.5,0,1,0,1.4c0,0.5,0,0.9,0,1.4c0,0.5,0,1,0,1.6c-0.1,1.8-0.5,3.4-1.1,4.9
		c-0.7,1.5-1.6,2.7-2.7,3.8c-1.2,1.1-2.6,1.9-4.2,2.5c-1.6,0.6-3.4,0.9-5.4,0.9h-11.7c-0.3,0-0.6-0.1-0.8-0.3
		c-0.2-0.2-0.3-0.5-0.3-0.8v-28c0-0.3,0.1-0.6,0.3-0.8c0.2-0.2,0.5-0.3,0.8-0.3H348.1z M311.3,45.1h7l-3.5-10.4L311.3,45.1z
		 M318.4,26.2c0.6,0,1,0.2,1.3,0.5c0.3,0.3,0.5,0.6,0.6,1l9.4,27.3c0.1,0.3,0.2,0.5,0.2,0.6c0,0.3-0.1,0.5-0.3,0.7
		c-0.2,0.2-0.4,0.3-0.7,0.3h-5.5c-0.6,0-1-0.1-1.2-0.4c-0.2-0.2-0.4-0.5-0.5-0.7l-1.2-3.6h-11.5l-1.2,3.6c-0.1,0.2-0.2,0.5-0.5,0.7
		c-0.2,0.2-0.7,0.4-1.2,0.4h-5.5c-0.3,0-0.5-0.1-0.7-0.3c-0.2-0.2-0.3-0.4-0.3-0.7c0-0.1,0.1-0.4,0.2-0.6l9.4-27.3
		c0.1-0.3,0.3-0.6,0.6-1c0.3-0.3,0.7-0.5,1.3-0.5H318.4z M298.3,26.2c0.3,0,0.6,0.1,0.8,0.3c0.2,0.2,0.3,0.5,0.3,0.8V32
		c0,0.3-0.1,0.6-0.3,0.8c-0.2,0.2-0.5,0.3-0.8,0.3h-7.6v22.2c0,0.3-0.1,0.6-0.3,0.8c-0.2,0.2-0.5,0.3-0.8,0.3h-5.7
		c-0.3,0-0.6-0.1-0.8-0.3c-0.2-0.2-0.3-0.5-0.3-0.8V33.1H275c-0.3,0-0.6-0.1-0.8-0.3c-0.2-0.2-0.3-0.5-0.3-0.8v-4.6
		c0-0.3,0.1-0.6,0.3-0.8c0.2-0.2,0.5-0.3,0.8-0.3H298.3z M261.1,56.5c-0.3,0-0.6-0.1-0.8-0.3c-0.2-0.2-0.3-0.5-0.3-0.8v-28
		c0-0.3,0.1-0.6,0.3-0.8c0.2-0.2,0.5-0.3,0.8-0.3h5.7c0.3,0,0.6,0.1,0.8,0.3c0.2,0.2,0.3,0.5,0.3,0.8v28c0,0.3-0.1,0.6-0.3,0.8
		c-0.2,0.2-0.5,0.3-0.8,0.3H261.1z M235.4,49.2c-0.4,0-0.8-0.1-1-0.4c-0.2-0.2-0.4-0.5-0.6-0.7l-4.1-7.1v14.3c0,0.3-0.1,0.6-0.3,0.8
		c-0.2,0.2-0.5,0.3-0.8,0.3h-5.7c-0.3,0-0.6-0.1-0.8-0.3c-0.2-0.2-0.3-0.5-0.3-0.8v-28c0-0.3,0.1-0.6,0.3-0.8
		c0.2-0.2,0.5-0.3,0.8-0.3h5c0.6,0,1,0.2,1.3,0.5c0.3,0.3,0.5,0.5,0.6,0.7l7,12l7-12c0.1-0.1,0.3-0.4,0.6-0.7
		c0.3-0.3,0.7-0.5,1.3-0.5h5c0.3,0,0.6,0.1,0.8,0.3c0.2,0.2,0.3,0.5,0.3,0.8v28c0,0.3-0.1,0.6-0.3,0.8c-0.2,0.2-0.5,0.3-0.8,0.3H245
		c-0.3,0-0.6-0.1-0.8-0.3c-0.2-0.2-0.3-0.5-0.3-0.8V41l-4.1,7.1c-0.1,0.2-0.3,0.5-0.6,0.7c-0.2,0.2-0.6,0.4-1,0.4H235.4z
		 M197.6,45.1h7l-3.5-10.4L197.6,45.1z M204.7,26.2c0.6,0,1,0.2,1.3,0.5c0.3,0.3,0.5,0.6,0.6,1l9.4,27.3c0.1,0.3,0.2,0.5,0.2,0.6
		c0,0.3-0.1,0.5-0.3,0.7c-0.2,0.2-0.4,0.3-0.7,0.3h-5.5c-0.6,0-1-0.1-1.2-0.4c-0.2-0.2-0.4-0.5-0.5-0.7l-1.2-3.6h-11.5l-1.2,3.6
		c-0.1,0.2-0.2,0.5-0.5,0.7c-0.2,0.2-0.7,0.4-1.2,0.4H187c-0.3,0-0.5-0.1-0.7-0.3c-0.2-0.2-0.3-0.4-0.3-0.7c0-0.1,0.1-0.4,0.2-0.6
		l9.4-27.3c0.1-0.3,0.3-0.6,0.6-1c0.3-0.3,0.7-0.5,1.3-0.5H204.7z M164.8,39.3h4.9c1.2,0,2.2-0.2,3-0.7c0.8-0.5,1.2-1.3,1.2-2.5
		c0-1.2-0.4-2-1.2-2.5c-0.8-0.5-1.8-0.7-3-0.7h-4.9V39.3z M169.6,26.2c1.9,0,3.6,0.2,5.1,0.6c1.5,0.4,2.8,1,3.8,1.8
		c1.1,0.8,1.9,1.8,2.4,3.1c0.6,1.3,0.8,2.7,0.8,4.4c0,2.2-0.4,4-1.3,5.4c-0.9,1.4-2.2,2.5-3.8,3.3l5.4,10.3c0.1,0.2,0.1,0.3,0.1,0.5
		c0,0.3-0.1,0.5-0.3,0.7c-0.2,0.2-0.4,0.3-0.7,0.3h-5.9c-0.6,0-1-0.1-1.2-0.4c-0.2-0.3-0.4-0.5-0.6-0.8l-4.8-9.3h-4v9.3
		c0,0.3-0.1,0.6-0.3,0.8c-0.2,0.2-0.5,0.3-0.8,0.3h-5.7c-0.3,0-0.6-0.1-0.8-0.3c-0.2-0.2-0.3-0.5-0.3-0.8v-28c0-0.3,0.1-0.6,0.3-0.8
		c0.2-0.2,0.5-0.3,0.8-0.3H169.6z M149.7,26.2c0.3,0,0.6,0.1,0.8,0.3c0.2,0.2,0.3,0.5,0.3,0.8V32c0,0.3-0.1,0.6-0.3,0.8
		c-0.2,0.2-0.5,0.3-0.8,0.3H142v22.2c0,0.3-0.1,0.6-0.3,0.8c-0.2,0.2-0.5,0.3-0.8,0.3h-5.7c-0.3,0-0.6-0.1-0.8-0.3
		c-0.2-0.2-0.3-0.5-0.3-0.8V33.1h-7.6c-0.3,0-0.6-0.1-0.8-0.3c-0.2-0.2-0.3-0.5-0.3-0.8v-4.6c0-0.3,0.1-0.6,0.3-0.8
		c0.2-0.2,0.5-0.3,0.8-0.3H149.7z"/>
	<path class="st4" d="M70.6,90.2c0,2.3,1.5,3,3,2.4c1.9-1.1,3.7-2.5,5.3-4l4.4,4.4c-3.5,3.5-7.8,6.2-12.6,7.7
		c-4.4,1.2-6.4-0.9-6.4-6.6v-42h13.3c2.9,0,5.4,0.8,5.4,3.1v3.1H70.6V90.2z M58.1,52.1H44.8c-2.9,0-5.4,0.8-5.4,3.1v3.1h12.5v31.9
		c0,2.3-1.5,3-3.1,2.4c-1.9-1.1-3.7-2.5-5.3-4l-4.4,4.4c3.5,3.5,7.9,6.2,12.7,7.7c4.3,1.1,6.3-0.9,6.3-6.6l0,0.1L58.1,52.1z
		 M53.4,107.5c-7.2-1.5-13.7-5.1-18.7-10.2l-4.4,4.4c7.9,7.9,18.9,12.8,31,12.8c12.1,0,23-4.9,31-12.8l-4.4-4.4
		c-5,5-11.5,8.7-18.7,10.2l0,0c-4.6,1.5-6.6,2.5-7.8,5.2C60.1,110,58.1,109,53.4,107.5L53.4,107.5z M39.3,39.6v6.3
		c14.6,0,29.2,0,43.8,0v-6.3C68.5,39.6,53.9,39.6,39.3,39.6z M58.1,23c0-1.7,1.4-3.1,3.1-3.1c1.7,0,3.1,1.4,3.1,3.1
		c0,1.7-1.4,3.1-3.1,3.1C59.5,26.1,58.1,24.7,58.1,23z M70.6,23c0-5.2-4.2-9.4-9.4-9.4s-9.4,4.2-9.4,9.4c0,5.2,4.2,9.4,9.4,9.4
		S70.6,28.2,70.6,23z"/>
	<path class="st5" d="M23.7,64.6v6.3c0,6.7,1.8,13.1,5,18.8l5.4-3.1c-2.7-4.6-4.2-9.9-4.2-15.6l0-6.3h6.3L30,58.3l-3.1-3.1l-3.1,3.1
		l-6.3,6.3H23.7z M73.7,33.3v-6.3c8.3,0,16.7,0,25,0v6.3c0,7.3,0,14.6,0,21.9h6.3l-6.3,6.3l-3.1,3.1l-3.1-3.1l-6.3-6.3h6.3
		c0-7.3,0-14.6,0-21.9C86.2,33.3,80,33.3,73.7,33.3z"/>
	<path class="st3" d="M30,52.1h-6.3c0-8.3,0-16.7,0-25c8.3,0,16.7,0,25,0v6.3c-6.3,0-12.5,0-18.8,0C30,39.6,30,45.8,30,52.1
		 M88.3,86.5l5.4,3.1c3.2-5.6,5-12.1,5-18.8v-3.1h-6.3l0,3.1C92.5,76.5,91,81.9,88.3,86.5z"/>
</g>
</svg>
