<?xml version="1.0" encoding="utf-8"?>
<!-- Generator: Adobe Illustrator 28.0.0, SVG Export Plug-In . SVG Version: 6.00 Build 0)  -->
<svg version="1.1" id="Capa_1" xmlns="http://www.w3.org/2000/svg" xmlns:xlink="http://www.w3.org/1999/xlink" x="0px" y="0px"
	 viewBox="0 0 445.9 150" style="enable-background:new 0 0 445.9 150;" xml:space="preserve">
<style type="text/css">
	.st0{fill:#686058;}
	.st1{fill:#E41220;}
	.st2{fill:#96262C;}
	.st3{fill:#F5333F;}
</style>
<g>
	<path class="st0" d="M423.8,82.8c0-0.5,0-1,0.1-1.5c0-0.6,0-1.1,0-1.7c0-0.6,0-1.1,0-1.7c0-0.5-0.1-1-0.1-1.4
		c-0.1-0.6-0.2-1.2-0.4-1.7c-0.2-0.5-0.5-1-0.9-1.4c-0.4-0.4-0.9-0.7-1.4-0.9c-0.6-0.2-1.3-0.3-2-0.3c-0.8,0-1.5,0.1-2,0.3
		c-0.6,0.2-1.1,0.5-1.4,0.9c-0.4,0.4-0.7,0.8-0.9,1.4c-0.2,0.5-0.3,1.1-0.4,1.7c0,0.4-0.1,0.9-0.1,1.4c0,0.5,0,1.1,0,1.7
		c0,0.6,0,1.1,0,1.7c0,0.6,0,1.1,0.1,1.5c0.1,1.3,0.5,2.3,1.3,3.1c0.8,0.8,1.9,1.2,3.5,1.2c1.6,0,2.7-0.4,3.5-1.2
		C423.2,85.1,423.7,84.1,423.8,82.8 M407.3,76.3c0.1-1.4,0.4-2.7,0.9-4c0.5-1.2,1.3-2.3,2.3-3.2c1-0.9,2.2-1.6,3.6-2.2
		c1.4-0.5,3.1-0.8,4.9-0.8c1.8,0,3.5,0.3,4.9,0.8c1.4,0.5,2.6,1.3,3.6,2.2c1,0.9,1.8,2,2.3,3.2c0.5,1.2,0.8,2.6,0.9,4
		c0.1,1.1,0.1,2.2,0.1,3.4c0,1.2,0,2.3-0.1,3.3c-0.1,1.4-0.4,2.7-0.9,4c-0.5,1.2-1.3,2.3-2.3,3.3c-1,0.9-2.2,1.7-3.6,2.2
		c-1.4,0.5-3.1,0.8-4.9,0.8c-1.9,0-3.5-0.3-4.9-0.8c-1.4-0.5-2.6-1.3-3.6-2.2c-1-0.9-1.8-2-2.3-3.3c-0.5-1.2-0.8-2.6-0.9-4
		c-0.1-1-0.1-2.1-0.1-3.3C407.2,78.5,407.2,77.4,407.3,76.3z M385.5,76.5c0,0.3,0,0.8-0.1,1.4c0,0.6,0,1.2,0,1.8c0,0.6,0,1.2,0,1.8
		c0,0.6,0,1,0.1,1.4c0,0.6,0.2,1.1,0.3,1.7c0.2,0.5,0.5,1,0.8,1.4c0.4,0.4,0.9,0.7,1.4,1c0.6,0.2,1.3,0.4,2.1,0.4
		c0.9,0,1.6-0.1,2.1-0.3c0.6-0.2,1-0.4,1.4-0.7c0.4-0.3,0.6-0.6,0.8-1c0.2-0.4,0.3-0.7,0.4-1c0.1-0.4,0.3-0.7,0.4-0.8
		c0.2-0.2,0.4-0.2,0.9-0.2h4.9c0.2,0,0.4,0.1,0.6,0.2c0.2,0.2,0.2,0.4,0.2,0.6c0,1.3-0.3,2.5-0.9,3.6c-0.6,1.1-1.4,2.1-2.5,2.9
		c-1.1,0.8-2.3,1.5-3.7,2c-1.4,0.5-3,0.7-4.6,0.7c-1.8,0-3.4-0.3-4.8-0.8c-1.4-0.5-2.6-1.3-3.6-2.2c-1-0.9-1.8-2-2.3-3.3
		c-0.5-1.2-0.8-2.6-0.9-3.9c-0.1-1-0.1-2.1-0.1-3.3c0-1.2,0-2.3,0.1-3.4c0.1-1.4,0.4-2.7,0.9-3.9c0.6-1.2,1.3-2.3,2.3-3.3
		c1-0.9,2.2-1.7,3.6-2.2c1.4-0.5,3-0.8,4.9-0.8c1.7,0,3.2,0.2,4.6,0.7c1.4,0.5,2.7,1.1,3.7,2c1.1,0.8,1.9,1.8,2.5,2.9
		c0.6,1.1,0.9,2.3,0.9,3.6c0,0.2-0.1,0.4-0.2,0.6c-0.2,0.2-0.4,0.2-0.6,0.2h-4.9c-0.4,0-0.7-0.1-0.9-0.2c-0.2-0.2-0.3-0.4-0.4-0.8
		c-0.1-0.3-0.2-0.6-0.4-1c-0.2-0.4-0.5-0.7-0.8-1c-0.4-0.3-0.8-0.5-1.4-0.7c-0.6-0.2-1.3-0.3-2.1-0.3c-0.9,0-1.6,0.1-2.1,0.4
		c-0.6,0.2-1.1,0.6-1.4,1c-0.4,0.4-0.7,0.9-0.8,1.4C385.7,75.4,385.6,75.9,385.5,76.5z M366,92.8c-0.3,0-0.5-0.1-0.7-0.3
		c-0.2-0.2-0.3-0.4-0.3-0.7V67.5c0-0.3,0.1-0.5,0.3-0.7c0.2-0.2,0.4-0.3,0.7-0.3h4.9c0.3,0,0.5,0.1,0.7,0.3c0.2,0.2,0.3,0.4,0.3,0.7
		v24.3c0,0.3-0.1,0.5-0.3,0.7c-0.2,0.2-0.4,0.3-0.7,0.3H366z M357.7,66.5c0.3,0,0.5,0.1,0.7,0.3c0.2,0.2,0.3,0.4,0.3,0.7v4
		c0,0.3-0.1,0.5-0.3,0.7c-0.2,0.2-0.4,0.3-0.7,0.3h-11.3v5.2H357c0.3,0,0.5,0.1,0.7,0.3c0.2,0.2,0.3,0.4,0.3,0.7v4
		c0,0.3-0.1,0.5-0.3,0.7c-0.2,0.2-0.4,0.3-0.7,0.3h-10.5v8.1c0,0.3-0.1,0.5-0.3,0.7c-0.2,0.2-0.4,0.3-0.7,0.3h-4.9
		c-0.3,0-0.5-0.1-0.7-0.3c-0.2-0.2-0.3-0.4-0.3-0.7V67.5c0-0.3,0.1-0.5,0.3-0.7c0.2-0.2,0.4-0.3,0.7-0.3H357.7z M329.3,59.3
		c0.3-0.3,0.5-0.5,0.7-0.6c0.2-0.1,0.4-0.1,0.7-0.1h5.4c0.5,0,0.7,0.3,0.7,0.8c0,0.2-0.1,0.3-0.2,0.5l-5.1,4.2
		c-0.2,0.2-0.4,0.3-0.6,0.5c-0.2,0.1-0.5,0.2-0.9,0.2h-3.7c-0.4,0-0.6-0.2-0.6-0.6c0-0.2,0.1-0.4,0.2-0.5L329.3,59.3z M326.1,92.8
		c-0.3,0-0.5-0.1-0.7-0.3c-0.2-0.2-0.3-0.4-0.3-0.7V67.5c0-0.3,0.1-0.5,0.3-0.7c0.2-0.2,0.4-0.3,0.7-0.3h4.9c0.3,0,0.5,0.1,0.7,0.3
		c0.2,0.2,0.3,0.4,0.3,0.7v24.3c0,0.3-0.1,0.5-0.3,0.7c-0.2,0.2-0.4,0.3-0.7,0.3H326.1z M302.5,76.5c0,0.3,0,0.8-0.1,1.4
		c0,0.6,0,1.2,0,1.8c0,0.6,0,1.2,0,1.8c0,0.6,0,1,0.1,1.4c0,0.6,0.2,1.1,0.3,1.7c0.2,0.5,0.5,1,0.8,1.4c0.4,0.4,0.9,0.7,1.4,1
		c0.6,0.2,1.3,0.4,2.1,0.4c0.9,0,1.6-0.1,2.1-0.3c0.6-0.2,1-0.4,1.4-0.7c0.4-0.3,0.6-0.6,0.8-1c0.2-0.4,0.3-0.7,0.4-1
		c0.1-0.4,0.3-0.7,0.4-0.8c0.2-0.2,0.4-0.2,0.9-0.2h4.9c0.2,0,0.4,0.1,0.6,0.2c0.2,0.2,0.2,0.4,0.2,0.6c0,1.3-0.3,2.5-0.9,3.6
		c-0.6,1.1-1.4,2.1-2.5,2.9c-1.1,0.8-2.3,1.5-3.7,2c-1.4,0.5-3,0.7-4.6,0.7c-1.8,0-3.4-0.3-4.8-0.8c-1.4-0.5-2.6-1.3-3.6-2.2
		c-1-0.9-1.8-2-2.3-3.3c-0.5-1.2-0.8-2.6-0.9-3.9c-0.1-1-0.1-2.1-0.1-3.3c0-1.2,0-2.3,0.1-3.4c0.1-1.4,0.4-2.7,0.9-3.9
		c0.6-1.2,1.3-2.3,2.3-3.3c1-0.9,2.2-1.7,3.6-2.2c1.4-0.5,3-0.8,4.9-0.8c1.7,0,3.2,0.2,4.6,0.7c1.4,0.5,2.7,1.1,3.7,2
		c1.1,0.8,1.9,1.8,2.5,2.9c0.6,1.1,0.9,2.3,0.9,3.6c0,0.2-0.1,0.4-0.2,0.6c-0.2,0.2-0.4,0.2-0.6,0.2h-4.9c-0.4,0-0.7-0.1-0.9-0.2
		c-0.2-0.2-0.3-0.4-0.4-0.8c-0.1-0.3-0.2-0.6-0.4-1c-0.2-0.4-0.5-0.7-0.8-1c-0.4-0.3-0.8-0.5-1.4-0.7c-0.6-0.2-1.3-0.3-2.1-0.3
		c-0.9,0-1.6,0.1-2.1,0.4c-0.6,0.2-1.1,0.6-1.4,1c-0.4,0.4-0.7,0.9-0.8,1.4C302.6,75.4,302.5,75.9,302.5,76.5z M275.6,82.9h6.1l-3-9
		L275.6,82.9z M281.7,66.5c0.5,0,0.9,0.1,1.1,0.4c0.3,0.3,0.4,0.6,0.5,0.8l8.2,23.7c0.1,0.3,0.2,0.4,0.2,0.6c0,0.2-0.1,0.4-0.2,0.6
		c-0.2,0.2-0.4,0.2-0.6,0.2h-4.7c-0.5,0-0.9-0.1-1.1-0.3c-0.2-0.2-0.3-0.4-0.4-0.6l-1.1-3.1h-10l-1.1,3.1c-0.1,0.2-0.2,0.4-0.4,0.6
		c-0.2,0.2-0.6,0.3-1.1,0.3h-4.7c-0.2,0-0.4-0.1-0.6-0.2c-0.2-0.2-0.2-0.4-0.2-0.6c0-0.1,0.1-0.3,0.2-0.6l8.2-23.7
		c0.1-0.3,0.3-0.6,0.5-0.8c0.3-0.3,0.6-0.4,1.1-0.4H281.7z M248.5,78.3h4.6c1.1,0,1.9-0.2,2.6-0.7c0.7-0.5,1-1.2,1-2.3
		c0-1.1-0.3-1.8-1-2.3c-0.7-0.5-1.6-0.7-2.6-0.7h-4.6V78.3z M253.3,66.5c1.6,0,3,0.2,4.3,0.5c1.3,0.4,2.4,0.9,3.3,1.7
		c0.9,0.7,1.6,1.7,2.1,2.8c0.5,1.1,0.7,2.4,0.7,3.8c0,1.5-0.2,2.8-0.7,3.9c-0.5,1.1-1.2,2-2.1,2.7c-0.9,0.7-2,1.3-3.3,1.7
		c-1.3,0.4-2.7,0.6-4.3,0.6h-4.8v7.7c0,0.3-0.1,0.5-0.3,0.7c-0.2,0.2-0.4,0.3-0.7,0.3h-4.9c-0.3,0-0.5-0.1-0.7-0.3
		c-0.2-0.2-0.3-0.4-0.3-0.7V67.5c0-0.3,0.1-0.5,0.3-0.7c0.2-0.2,0.4-0.3,0.7-0.3H253.3z M216,86.8c0.3,0,0.5,0.1,0.7,0.3
		c0.2,0.2,0.3,0.4,0.3,0.7v4c0,0.3-0.1,0.5-0.3,0.7c-0.2,0.2-0.4,0.3-0.7,0.3h-17.4c-0.3,0-0.5-0.1-0.7-0.3
		c-0.2-0.2-0.3-0.4-0.3-0.7V67.5c0-0.3,0.1-0.5,0.3-0.7c0.2-0.2,0.4-0.3,0.7-0.3h4.9c0.3,0,0.5,0.1,0.7,0.3c0.2,0.2,0.3,0.4,0.3,0.7
		v19.3H216z M190,86.8c0.3,0,0.5,0.1,0.7,0.3c0.2,0.2,0.3,0.4,0.3,0.7v4c0,0.3-0.1,0.5-0.3,0.7c-0.2,0.2-0.4,0.3-0.7,0.3h-17.8
		c-0.3,0-0.5-0.1-0.7-0.3c-0.2-0.2-0.3-0.4-0.3-0.7V67.5c0-0.3,0.1-0.5,0.3-0.7c0.2-0.2,0.4-0.3,0.7-0.3h17.5c0.3,0,0.5,0.1,0.7,0.3
		c0.2,0.2,0.3,0.4,0.3,0.7v4c0,0.3-0.1,0.5-0.3,0.7c-0.2,0.2-0.4,0.3-0.7,0.3h-11.6v4.1h10.8c0.3,0,0.5,0.1,0.7,0.3
		c0.2,0.2,0.3,0.4,0.3,0.7v4c0,0.3-0.1,0.5-0.3,0.7c-0.2,0.2-0.4,0.3-0.7,0.3h-10.8v4.2H190z M157.6,76.8c-0.2-2.9-1.9-4.3-5.1-4.3
		h-3.8v14.3h4c3.2,0,4.8-1.4,4.9-4.3c0-0.5,0-1,0-1.5c0-0.5,0-0.9,0-1.4c0-0.4,0-0.9,0-1.3C157.6,77.8,157.6,77.4,157.6,76.8z
		 M152.7,66.5c1.7,0,3.3,0.3,4.7,0.8c1.4,0.5,2.7,1.2,3.7,2.2c1,0.9,1.9,2,2.4,3.3c0.6,1.3,0.9,2.7,1,4.2c0,0.5,0,1,0,1.4
		c0,0.4,0,0.9,0,1.3c0,0.4,0,0.8,0,1.2c0,0.4,0,0.9,0,1.4c-0.1,1.6-0.4,3-1,4.3c-0.6,1.3-1.4,2.4-2.4,3.3c-1,0.9-2.2,1.6-3.6,2.2
		c-1.4,0.5-3,0.8-4.7,0.8h-10.2c-0.3,0-0.5-0.1-0.7-0.3c-0.2-0.2-0.3-0.4-0.3-0.7V67.5c0-0.3,0.1-0.5,0.3-0.7
		c0.2-0.2,0.4-0.3,0.7-0.3H152.7z M415.9,38.3h6.1l-3-9L415.9,38.3z M422,21.9c0.5,0,0.9,0.1,1.1,0.4c0.3,0.3,0.4,0.6,0.5,0.8
		l8.2,23.7c0.1,0.3,0.2,0.4,0.2,0.6c0,0.2-0.1,0.4-0.2,0.6c-0.2,0.2-0.4,0.2-0.6,0.2h-4.7c-0.5,0-0.9-0.1-1.1-0.3
		c-0.2-0.2-0.3-0.4-0.4-0.6l-1.1-3.1h-10l-1.1,3.1c-0.1,0.2-0.2,0.4-0.4,0.6c-0.2,0.2-0.6,0.3-1.1,0.3h-4.7c-0.2,0-0.4-0.1-0.6-0.2
		c-0.2-0.2-0.2-0.4-0.2-0.6c0-0.1,0.1-0.3,0.2-0.6l8.2-23.7c0.1-0.3,0.3-0.6,0.5-0.8c0.3-0.3,0.6-0.4,1.1-0.4H422z M387.3,33.3h4.3
		c1.1,0,1.9-0.2,2.6-0.6c0.7-0.4,1-1.1,1-2.2c0-1.1-0.3-1.8-1-2.2c-0.7-0.4-1.6-0.6-2.6-0.6h-4.3V33.3z M391.6,21.9
		c1.7,0,3.1,0.2,4.4,0.5c1.3,0.4,2.4,0.9,3.3,1.6c0.9,0.7,1.6,1.6,2.1,2.7c0.5,1.1,0.7,2.4,0.7,3.8c0,1.9-0.4,3.4-1.2,4.7
		c-0.8,1.2-1.9,2.2-3.3,2.8l4.7,9c0.1,0.2,0.1,0.3,0.1,0.4c0,0.2-0.1,0.4-0.2,0.6c-0.2,0.2-0.4,0.2-0.6,0.2h-5.1
		c-0.5,0-0.9-0.1-1.1-0.3c-0.2-0.2-0.4-0.5-0.5-0.7l-4.2-8.1h-3.5v8.1c0,0.3-0.1,0.5-0.3,0.7c-0.2,0.2-0.4,0.3-0.7,0.3h-4.9
		c-0.3,0-0.5-0.1-0.7-0.3c-0.2-0.2-0.3-0.4-0.3-0.7V22.9c0-0.3,0.1-0.5,0.3-0.7c0.2-0.2,0.4-0.3,0.7-0.3H391.6z M367.3,38.2
		c0-0.5,0-1,0.1-1.5c0-0.6,0-1.1,0-1.7c0-0.6,0-1.1,0-1.7c0-0.5-0.1-1-0.1-1.4c-0.1-0.6-0.2-1.2-0.4-1.7c-0.2-0.5-0.5-1-0.9-1.4
		c-0.4-0.4-0.9-0.7-1.4-0.9c-0.6-0.2-1.3-0.3-2-0.3c-0.8,0-1.5,0.1-2,0.3c-0.6,0.2-1.1,0.5-1.4,0.9c-0.4,0.4-0.7,0.8-0.9,1.4
		c-0.2,0.5-0.3,1.1-0.4,1.7c0,0.4-0.1,0.9-0.1,1.4c0,0.5,0,1.1,0,1.7c0,0.6,0,1.1,0,1.7c0,0.6,0,1.1,0.1,1.5
		c0.1,1.3,0.5,2.3,1.3,3.1c0.8,0.8,1.9,1.2,3.5,1.2c1.6,0,2.7-0.4,3.5-1.2C366.7,40.5,367.1,39.5,367.3,38.2z M350.7,31.7
		c0.1-1.4,0.4-2.7,0.9-4c0.5-1.2,1.3-2.3,2.3-3.2c1-0.9,2.2-1.6,3.6-2.2c1.4-0.5,3.1-0.8,4.9-0.8c1.8,0,3.5,0.3,4.9,0.8
		c1.4,0.5,2.6,1.3,3.6,2.2c1,0.9,1.8,2,2.3,3.2c0.5,1.2,0.8,2.6,0.9,4c0.1,1.1,0.1,2.2,0.1,3.4c0,1.2,0,2.3-0.1,3.3
		c-0.1,1.4-0.4,2.7-0.9,4c-0.5,1.2-1.3,2.3-2.3,3.3c-1,0.9-2.2,1.7-3.6,2.2c-1.4,0.5-3.1,0.8-4.9,0.8c-1.9,0-3.5-0.3-4.9-0.8
		c-1.4-0.5-2.6-1.3-3.6-2.2c-1-0.9-1.8-2-2.3-3.3c-0.5-1.2-0.8-2.6-0.9-4c-0.1-1-0.1-2.1-0.1-3.3C350.7,33.9,350.7,32.8,350.7,31.7z
		 M338.5,32.2c-0.2-2.9-1.9-4.3-5.1-4.3h-3.8v14.3h4c3.2,0,4.8-1.4,4.9-4.3c0-0.5,0-1,0-1.5c0-0.5,0-0.9,0-1.4c0-0.4,0-0.9,0-1.3
		C338.6,33.2,338.6,32.8,338.5,32.2z M333.6,21.9c1.7,0,3.3,0.3,4.7,0.8c1.4,0.5,2.7,1.2,3.7,2.2c1,0.9,1.9,2,2.4,3.3
		c0.6,1.3,0.9,2.7,1,4.2c0,0.5,0,1,0,1.4c0,0.4,0,0.9,0,1.3c0,0.4,0,0.8,0,1.2c0,0.4,0,0.9,0,1.4c-0.1,1.6-0.4,3-1,4.3
		c-0.6,1.3-1.4,2.4-2.4,3.3c-1,0.9-2.2,1.7-3.6,2.2c-1.4,0.5-3,0.8-4.7,0.8h-10.2c-0.3,0-0.5-0.1-0.7-0.3c-0.2-0.2-0.3-0.4-0.3-0.7
		V22.9c0-0.3,0.1-0.5,0.3-0.7c0.2-0.2,0.4-0.3,0.7-0.3H333.6z M301.7,38.3h6.1l-3-9L301.7,38.3z M307.8,21.9c0.5,0,0.9,0.1,1.1,0.4
		c0.3,0.3,0.4,0.6,0.5,0.8l8.2,23.7c0.1,0.3,0.1,0.4,0.1,0.6c0,0.2-0.1,0.4-0.2,0.6c-0.2,0.2-0.4,0.2-0.6,0.2h-4.7
		c-0.5,0-0.9-0.1-1.1-0.3c-0.2-0.2-0.3-0.4-0.4-0.6l-1.1-3.1h-10l-1.1,3.1c-0.1,0.2-0.2,0.4-0.4,0.6c-0.2,0.2-0.6,0.3-1.1,0.3h-4.7
		c-0.2,0-0.4-0.1-0.6-0.2c-0.2-0.2-0.2-0.4-0.2-0.6c0-0.1,0.1-0.3,0.2-0.6l8.2-23.7c0.1-0.3,0.3-0.6,0.5-0.8
		c0.3-0.3,0.6-0.4,1.1-0.4H307.8z M290.3,21.9c0.3,0,0.5,0.1,0.7,0.3c0.2,0.2,0.3,0.4,0.3,0.7v4c0,0.3-0.1,0.5-0.3,0.7
		c-0.2,0.2-0.4,0.3-0.7,0.3h-6.6v19.3c0,0.3-0.1,0.5-0.3,0.7c-0.2,0.2-0.4,0.3-0.7,0.3h-4.9c-0.3,0-0.5-0.1-0.7-0.3
		c-0.2-0.2-0.3-0.4-0.3-0.7V27.9h-6.6c-0.3,0-0.5-0.1-0.7-0.3c-0.2-0.2-0.3-0.4-0.3-0.7v-4c0-0.3,0.1-0.5,0.3-0.7
		c0.2-0.2,0.4-0.3,0.7-0.3H290.3z M258,48.2c-0.3,0-0.5-0.1-0.7-0.3c-0.2-0.2-0.3-0.4-0.3-0.7V22.9c0-0.3,0.1-0.5,0.3-0.7
		c0.2-0.2,0.4-0.3,0.7-0.3h4.9c0.3,0,0.5,0.1,0.7,0.3c0.2,0.2,0.3,0.4,0.3,0.7v24.3c0,0.3-0.1,0.5-0.3,0.7c-0.2,0.2-0.4,0.3-0.7,0.3
		H258z M235.6,41.9c-0.4,0-0.7-0.1-0.9-0.3c-0.2-0.2-0.4-0.4-0.5-0.6l-3.5-6.2v12.5c0,0.3-0.1,0.5-0.3,0.7c-0.2,0.2-0.4,0.3-0.7,0.3
		h-4.9c-0.3,0-0.5-0.1-0.7-0.3c-0.2-0.2-0.3-0.4-0.3-0.7V22.9c0-0.3,0.1-0.5,0.3-0.7c0.2-0.2,0.4-0.3,0.7-0.3h4.4
		c0.5,0,0.9,0.1,1.1,0.4c0.3,0.3,0.4,0.5,0.5,0.6l6.1,10.4l6.1-10.4c0.1-0.1,0.2-0.3,0.5-0.6c0.3-0.3,0.6-0.4,1.1-0.4h4.4
		c0.3,0,0.5,0.1,0.7,0.3c0.2,0.2,0.3,0.4,0.3,0.7v24.3c0,0.3-0.1,0.5-0.3,0.7c-0.2,0.2-0.4,0.3-0.7,0.3H244c-0.3,0-0.5-0.1-0.7-0.3
		c-0.2-0.2-0.3-0.4-0.3-0.7V34.7l-3.5,6.2c-0.1,0.2-0.3,0.4-0.5,0.6c-0.2,0.2-0.5,0.3-0.9,0.3H235.6z M202.8,38.3h6.1l-3-9
		L202.8,38.3z M208.9,21.9c0.5,0,0.9,0.1,1.1,0.4c0.3,0.3,0.4,0.6,0.5,0.8l8.2,23.7c0.1,0.3,0.2,0.4,0.2,0.6c0,0.2-0.1,0.4-0.2,0.6
		c-0.2,0.2-0.4,0.2-0.6,0.2h-4.7c-0.5,0-0.9-0.1-1.1-0.3c-0.2-0.2-0.3-0.4-0.4-0.6l-1.1-3.1h-10l-1.1,3.1c-0.1,0.2-0.2,0.4-0.4,0.6
		c-0.2,0.2-0.6,0.3-1.1,0.3h-4.7c-0.2,0-0.4-0.1-0.6-0.2c-0.2-0.2-0.2-0.4-0.2-0.6c0-0.1,0.1-0.3,0.2-0.6l8.2-23.7
		c0.1-0.3,0.3-0.6,0.5-0.8c0.3-0.3,0.6-0.4,1.1-0.4H208.9z M174.2,33.3h4.3c1.1,0,1.9-0.2,2.6-0.6c0.7-0.4,1-1.1,1-2.2
		c0-1.1-0.3-1.8-1-2.2c-0.7-0.4-1.6-0.6-2.6-0.6h-4.3V33.3z M178.4,21.9c1.7,0,3.1,0.2,4.4,0.5c1.3,0.4,2.4,0.9,3.3,1.6
		c0.9,0.7,1.6,1.6,2.1,2.7c0.5,1.1,0.7,2.4,0.7,3.8c0,1.9-0.4,3.4-1.2,4.7c-0.8,1.2-1.9,2.2-3.3,2.8l4.7,9c0.1,0.2,0.1,0.3,0.1,0.4
		c0,0.2-0.1,0.4-0.2,0.6c-0.2,0.2-0.4,0.2-0.6,0.2h-5.1c-0.5,0-0.9-0.1-1.1-0.3c-0.2-0.2-0.4-0.5-0.5-0.7l-4.2-8.1h-3.5v8.1
		c0,0.3-0.1,0.5-0.3,0.7c-0.2,0.2-0.4,0.3-0.7,0.3h-4.9c-0.3,0-0.5-0.1-0.7-0.3c-0.2-0.2-0.3-0.4-0.3-0.7V22.9
		c0-0.3,0.1-0.5,0.3-0.7c0.2-0.2,0.4-0.3,0.7-0.3H178.4z M161,21.9c0.3,0,0.5,0.1,0.7,0.3c0.2,0.2,0.3,0.4,0.3,0.7v4
		c0,0.3-0.1,0.5-0.3,0.7c-0.2,0.2-0.4,0.3-0.7,0.3h-6.6v19.3c0,0.3-0.1,0.5-0.3,0.7c-0.2,0.2-0.4,0.3-0.7,0.3h-4.9
		c-0.3,0-0.5-0.1-0.7-0.3c-0.2-0.2-0.3-0.4-0.3-0.7V27.9h-6.6c-0.3,0-0.5-0.1-0.7-0.3c-0.2-0.2-0.3-0.4-0.3-0.7v-4
		c0-0.3,0.1-0.5,0.3-0.7c0.2-0.2,0.4-0.3,0.7-0.3H161z"/>
	<path class="st1" d="M379,129c0.2,0,0.4,0.1,0.5,0.2c0.1,0.1,0.2,0.3,0.2,0.5v1.9c0,0.2-0.1,0.4-0.2,0.5c-0.1,0.1-0.3,0.2-0.5,0.2
		h-1.9c-0.2,0-0.4-0.1-0.5-0.2c-0.1-0.1-0.2-0.3-0.2-0.5v-1.9c0-0.2,0.1-0.4,0.2-0.5c0.1-0.1,0.3-0.2,0.5-0.2H379z M369.8,113.7
		c0.1-0.1,0.2-0.3,0.3-0.5c0.1-0.2,0.4-0.2,0.8-0.2h1c0.2,0,0.3,0.1,0.4,0.2c0.1,0.1,0.2,0.3,0.2,0.4c0,0.1,0,0.2-0.1,0.3l-6,17.4
		c-0.1,0.3-0.3,0.6-0.5,0.8c-0.2,0.2-0.6,0.3-0.9,0.3h-1.1c-0.4,0-0.7-0.1-0.9-0.3c-0.2-0.2-0.4-0.5-0.5-0.8l-6-17.4
		c0-0.1-0.1-0.2-0.1-0.3c0-0.2,0.1-0.3,0.2-0.4c0.1-0.1,0.3-0.2,0.4-0.2h1c0.4,0,0.6,0.1,0.8,0.2c0.1,0.2,0.2,0.3,0.3,0.5l5.3,15.9
		L369.8,113.7z M351.7,129c0.2,0,0.4,0.1,0.5,0.2c0.1,0.1,0.2,0.3,0.2,0.5v1.9c0,0.2-0.1,0.4-0.2,0.5c-0.1,0.1-0.3,0.2-0.5,0.2h-1.9
		c-0.2,0-0.4-0.1-0.5-0.2c-0.1-0.1-0.2-0.3-0.2-0.5v-1.9c0-0.2,0.1-0.4,0.2-0.5c0.1-0.1,0.3-0.2,0.5-0.2H351.7z M330.4,120.3
		c0,0.8-0.1,1.6-0.1,2.3c0,0.7,0,1.5,0.1,2.3c0.1,1.5,0.5,2.8,1.4,3.7c0.9,0.9,2.1,1.4,3.8,1.4c0.9,0,1.6-0.1,2.2-0.3
		c0.6-0.2,1.1-0.5,1.5-0.9c0.4-0.4,0.7-0.8,0.9-1.2c0.2-0.5,0.4-0.9,0.5-1.4c0-0.2,0.1-0.4,0.3-0.5c0.1-0.1,0.3-0.2,0.4-0.2h1.3
		c0.2,0,0.3,0.1,0.4,0.2c0.1,0.1,0.2,0.3,0.2,0.4c0,0.6-0.2,1.3-0.5,2c-0.3,0.7-0.8,1.4-1.4,2c-0.6,0.6-1.4,1.2-2.4,1.6
		c-1,0.4-2.1,0.6-3.5,0.6c-1.2,0-2.3-0.2-3.2-0.6c-0.9-0.4-1.7-0.9-2.4-1.6c-0.7-0.7-1.2-1.5-1.6-2.4c-0.4-0.9-0.6-1.9-0.6-3
		c-0.1-1.6-0.1-3.3,0-4.9c0-1.1,0.2-2.1,0.6-3c0.4-0.9,0.9-1.7,1.6-2.4c0.7-0.7,1.5-1.2,2.4-1.6c0.9-0.4,2-0.6,3.2-0.6
		c1.4,0,2.6,0.2,3.5,0.6c1,0.4,1.8,1,2.4,1.6c0.6,0.6,1.1,1.3,1.4,2c0.3,0.7,0.5,1.4,0.5,2c0,0.2-0.1,0.3-0.2,0.4
		c-0.1,0.1-0.3,0.2-0.4,0.2h-1.3c-0.1,0-0.3-0.1-0.4-0.2c-0.1-0.1-0.2-0.3-0.3-0.5c-0.1-0.5-0.3-0.9-0.5-1.4
		c-0.2-0.5-0.5-0.9-0.9-1.2c-0.4-0.3-0.9-0.6-1.5-0.9c-0.6-0.2-1.4-0.3-2.2-0.3c-1.6,0-2.9,0.5-3.8,1.4
		C330.9,117.6,330.4,118.8,330.4,120.3z M305.4,129.9c0.2,0,0.4,0.1,0.5,0.2c0.1,0.1,0.2,0.3,0.2,0.5v1c0,0.2-0.1,0.4-0.2,0.5
		c-0.1,0.1-0.3,0.2-0.5,0.2h-11.2c-0.2,0-0.4-0.1-0.5-0.2c-0.1-0.1-0.2-0.3-0.2-0.5v-17.9c0-0.2,0.1-0.4,0.2-0.5
		c0.1-0.1,0.3-0.2,0.5-0.2h11c0.2,0,0.4,0.1,0.5,0.2c0.1,0.1,0.2,0.3,0.2,0.5v1c0,0.2-0.1,0.4-0.2,0.5c-0.1,0.1-0.3,0.2-0.5,0.2
		h-9.1v5.8h8.5c0.2,0,0.4,0.1,0.5,0.2c0.1,0.1,0.2,0.3,0.2,0.5v1c0,0.2-0.1,0.4-0.2,0.5c-0.1,0.1-0.3,0.2-0.5,0.2h-8.5v6.1H305.4z
		 M283.6,120.6c0-0.7-0.1-1.3-0.3-1.9c-0.2-0.6-0.5-1.2-0.9-1.6c-0.4-0.5-1-0.9-1.7-1.1c-0.7-0.3-1.5-0.4-2.5-0.4h-4.3v14.4h4.5
		c1,0,1.8-0.1,2.5-0.4c0.7-0.3,1.2-0.7,1.6-1.1c0.4-0.5,0.7-1,0.9-1.6c0.2-0.6,0.3-1.3,0.3-1.9c0-0.4,0-0.8,0-1.1c0-0.3,0-0.6,0-0.9
		c0-0.3,0-0.6,0-0.9C283.6,121.4,283.6,121,283.6,120.6z M286.2,120.5c0,0.8,0,1.6,0,2.2c0,0.6,0,1.4,0,2.2c0,1.2-0.2,2.2-0.6,3.1
		c-0.4,0.9-0.9,1.7-1.6,2.4c-0.7,0.6-1.5,1.1-2.4,1.5c-0.9,0.3-2,0.5-3.1,0.5H272c-0.2,0-0.4-0.1-0.5-0.2c-0.1-0.1-0.2-0.3-0.2-0.5
		v-17.9c0-0.2,0.1-0.4,0.2-0.5c0.1-0.1,0.3-0.2,0.5-0.2h6.3c1.1,0,2.2,0.2,3.2,0.5c1,0.3,1.8,0.8,2.5,1.5c0.7,0.6,1.2,1.4,1.6,2.4
		C286,118.3,286.2,119.3,286.2,120.5z M247.7,129c0.2,0,0.4,0.1,0.5,0.2c0.1,0.1,0.2,0.3,0.2,0.5v1.9c0,0.2-0.1,0.4-0.2,0.5
		c-0.1,0.1-0.3,0.2-0.5,0.2h-1.9c-0.2,0-0.4-0.1-0.5-0.2c-0.1-0.1-0.2-0.3-0.2-0.5v-1.9c0-0.2,0.1-0.4,0.2-0.5
		c0.1-0.1,0.3-0.2,0.5-0.2H247.7z M226.9,125.5h7.7l-3.8-9.9L226.9,125.5z M235.6,128H226l-1.4,3.7c-0.1,0.1-0.2,0.3-0.3,0.5
		c-0.1,0.2-0.4,0.2-0.8,0.2h-1c-0.2,0-0.3-0.1-0.4-0.2c-0.1-0.1-0.2-0.3-0.2-0.4c0-0.1,0-0.2,0.1-0.4l6.8-17.5
		c0.1-0.2,0.2-0.4,0.4-0.6c0.2-0.2,0.5-0.3,0.8-0.3h1.7c0.4,0,0.6,0.1,0.8,0.3c0.2,0.2,0.3,0.4,0.4,0.6l6.7,17.5
		c0.1,0.2,0.1,0.3,0.1,0.4c0,0.2-0.1,0.3-0.2,0.4c-0.1,0.1-0.3,0.2-0.4,0.2h-1c-0.4,0-0.6-0.1-0.8-0.2c-0.1-0.2-0.2-0.3-0.3-0.5
		L235.6,128z M215.7,129c0.2,0,0.4,0.1,0.5,0.2c0.1,0.1,0.2,0.3,0.2,0.5v1.9c0,0.2-0.1,0.4-0.2,0.5c-0.1,0.1-0.3,0.2-0.5,0.2h-1.9
		c-0.2,0-0.4-0.1-0.5-0.2c-0.1-0.1-0.2-0.3-0.2-0.5v-1.9c0-0.2,0.1-0.4,0.2-0.5c0.1-0.1,0.3-0.2,0.5-0.2H215.7z M199.4,112.7
		c1.1,0,2.1,0.2,3,0.5c0.9,0.4,1.6,0.8,2.2,1.3c0.6,0.5,1.1,1.1,1.4,1.6c0.3,0.6,0.5,1.1,0.5,1.6c0,0.2,0,0.3-0.2,0.4
		c-0.1,0.1-0.3,0.2-0.4,0.2h-1.1c-0.2,0-0.4,0-0.5-0.1c-0.1-0.1-0.2-0.2-0.4-0.5c-0.1-0.2-0.2-0.4-0.5-0.7c-0.2-0.3-0.5-0.6-0.9-0.8
		c-0.4-0.3-0.8-0.5-1.3-0.7c-0.5-0.2-1.1-0.3-1.8-0.3c-0.5,0-1,0.1-1.5,0.2c-0.5,0.1-0.9,0.3-1.3,0.5c-0.4,0.2-0.7,0.5-0.9,0.9
		c-0.2,0.4-0.3,0.8-0.3,1.3c0,0.5,0.1,0.9,0.3,1.2c0.2,0.3,0.6,0.6,1,0.9c0.5,0.3,1.1,0.5,1.8,0.7c0.7,0.2,1.6,0.5,2.6,0.7
		c1.1,0.3,1.9,0.6,2.7,0.9c0.7,0.3,1.3,0.7,1.8,1.1c0.5,0.4,0.8,0.9,1,1.4c0.2,0.5,0.3,1.2,0.3,1.8c0,0.8-0.2,1.6-0.5,2.3
		c-0.4,0.7-0.9,1.3-1.5,1.8c-0.6,0.5-1.4,0.9-2.3,1.2c-0.9,0.3-1.9,0.4-3.1,0.4c-1.1,0-2.1-0.2-3-0.5c-0.9-0.3-1.7-0.7-2.3-1.2
		c-0.6-0.5-1.2-1.1-1.5-1.7c-0.4-0.6-0.6-1.2-0.6-1.8c0-0.2,0.1-0.3,0.2-0.4c0.1-0.1,0.3-0.2,0.4-0.2h1.1c0.2,0,0.3,0,0.5,0.1
		c0.1,0.1,0.3,0.2,0.4,0.5c0.1,0.3,0.3,0.5,0.5,0.8c0.2,0.3,0.5,0.6,0.9,0.9c0.4,0.3,0.9,0.5,1.4,0.7c0.6,0.2,1.2,0.3,2,0.3
		c0.6,0,1.3-0.1,1.8-0.2c0.6-0.1,1.1-0.4,1.5-0.6c0.4-0.3,0.8-0.6,1.1-1c0.3-0.4,0.4-0.8,0.4-1.3c0-0.5-0.1-0.9-0.4-1.2
		c-0.3-0.3-0.7-0.7-1.3-0.9c-0.6-0.3-1.2-0.5-2-0.8c-0.8-0.2-1.7-0.5-2.7-0.7c-0.9-0.2-1.7-0.5-2.4-0.9c-0.6-0.3-1.2-0.7-1.6-1.2
		c-0.4-0.4-0.7-0.9-0.9-1.5c-0.2-0.5-0.3-1.1-0.3-1.7c0-0.7,0.1-1.3,0.4-2c0.3-0.6,0.7-1.2,1.2-1.7c0.5-0.5,1.2-0.9,2-1.2
		C197.3,112.9,198.3,112.7,199.4,112.7z"/>
	<path class="st2" d="M71.9,101.6c0,2.8,1.9,3.8,3.8,2.9c2.4-1.4,4.6-3.1,6.5-5l5.5,5.5c-4.3,4.3-9.7,7.7-15.7,9.6
		c-5.5,1.5-7.9-1.1-7.9-8.2V54.2h16.6c3.5,0,6.7,1,6.7,3.9V62H71.9V101.6z M56.3,54.2H39.7c-3.5,0-6.7,1-6.7,3.9V62h15.5v39.6
		c0,2.8-1.9,3.8-3.8,2.9c-2.4-1.4-4.6-3.1-6.5-5l-5.5,5.5c4.4,4.4,9.8,7.7,15.8,9.6c5.4,1.4,7.8-1.2,7.8-8.2l0,0.1L56.3,54.2z
		 M50.5,123.2c-9-1.9-17-6.4-23.3-12.7l-5.5,5.5c9.8,9.8,23.5,15.9,38.5,15.9c15,0,28.6-6.1,38.5-15.9l-5.5-5.5
		c-6.3,6.3-14.3,10.8-23.3,12.7l0,0c-5.8,1.8-8.3,3.1-9.7,6.5C58.8,126.2,56.3,125,50.5,123.2L50.5,123.2z M33,38.6v7.8
		c18.1,0,36.3,0,54.4,0v-7.8C69.3,38.6,51.1,38.6,33,38.6z M56.3,18.1c0-2.1,1.7-3.9,3.9-3.9c2.1,0,3.9,1.7,3.9,3.9
		c0,2.1-1.7,3.9-3.9,3.9C58.1,22,56.3,20.2,56.3,18.1z M71.9,18.1c0-6.4-5.2-11.7-11.7-11.7s-11.7,5.2-11.7,11.7
		c0,6.4,5.2,11.7,11.7,11.7S71.9,24.5,71.9,18.1z"/>
	<path class="st3" d="M13.6,69.7v7.8c0,8.3,2.2,16.3,6.3,23.3l6.7-3.9c-3.3-5.7-5.2-12.4-5.2-19.4l0-7.8h7.8L21.3,62l-3.9-3.9
		L13.6,62l-7.8,7.8H13.6z M75.7,30.9v-7.8c10.4,0,20.7,0,31.1,0v7.8c0,9.1,0,18.1,0,27.2h7.8l-7.8,7.8l-3.9,3.9l-3.9-3.9l-7.8-7.8
		h7.8c0-9.1,0-18.1,0-27.2C91.3,30.9,83.5,30.9,75.7,30.9z"/>
	<path class="st0" d="M21.3,54.2h-7.8c0-10.4,0-20.7,0-31.1c10.4,0,20.7,0,31.1,0v7.8c-7.8,0-15.5,0-23.3,0
		C21.3,38.7,21.3,46.4,21.3,54.2 M93.9,97l6.7,3.9c4-7,6.3-15,6.3-23.3v-3.9h-7.8l0,3.9C99.1,84.6,97.2,91.2,93.9,97z"/>
</g>
</svg>
