<svg width="285" height="86" viewBox="0 0 285 86" fill="none" xmlns="http://www.w3.org/2000/svg">
<g clip-path="url(#clip0_114_737)">
<path d="M278.744 51.4929C278.744 51.2023 278.744 50.8812 278.744 50.5141C278.744 50.1471 278.744 49.7953 278.744 49.4282C278.744 49.0612 278.744 48.6941 278.744 48.3423C278.744 47.9906 278.744 47.6847 278.744 47.4094C278.717 47.0258 278.629 46.6489 278.482 46.2929C278.351 45.9598 278.151 45.6576 277.895 45.4059C277.63 45.1384 277.308 44.9343 276.952 44.8094C276.528 44.6489 276.077 44.571 275.623 44.58C275.169 44.571 274.718 44.6489 274.294 44.8094C273.938 44.9343 273.615 45.1384 273.351 45.4059C273.095 45.6576 272.895 45.9598 272.764 46.2929C272.644 46.6329 272.577 46.9885 272.563 47.3482C272.563 47.6235 272.563 47.9294 272.563 48.2812C272.563 48.6329 272.563 48.9847 272.563 49.3671C272.563 49.7494 272.563 50.1012 272.563 50.4529C272.563 50.8047 272.563 51.1412 272.563 51.4317C272.604 52.1812 272.904 52.894 273.413 53.4506C273.713 53.7346 274.071 53.9524 274.463 54.0895C274.854 54.2266 275.271 54.2799 275.685 54.2459C276.096 54.2806 276.511 54.2276 276.9 54.0904C277.289 53.9532 277.644 53.7351 277.941 53.4506C278.448 52.8915 278.753 52.1812 278.806 51.4317L278.744 51.4929ZM267.989 47.2259C268.031 46.3404 268.235 45.4699 268.591 44.6565C268.954 43.8595 269.48 43.146 270.137 42.5612C270.83 41.9511 271.632 41.474 272.501 41.1541C273.528 40.7962 274.611 40.6202 275.7 40.6341C276.789 40.6224 277.871 40.7983 278.899 41.1541C279.769 41.474 280.57 41.9511 281.263 42.5612C281.92 43.146 282.446 43.8595 282.809 44.6565C283.169 45.5101 283.363 46.4233 283.381 47.3482C283.381 48.0365 283.381 48.7706 283.381 49.5353C283.381 50.3 283.381 51.0647 283.381 51.6765C283.338 52.5619 283.134 53.4324 282.778 54.2459C282.415 55.0428 281.889 55.7564 281.233 56.3412C280.547 56.9618 279.743 57.4402 278.868 57.7482C277.842 58.1112 276.758 58.2874 275.669 58.2682C274.58 58.2915 273.495 58.1152 272.47 57.7482C271.595 57.4402 270.791 56.9618 270.106 56.3412C269.449 55.7564 268.923 55.0428 268.56 54.2459C268.204 53.4324 268 52.5619 267.958 51.6765C267.958 51.0035 267.958 50.3 267.958 49.5353C267.958 48.7706 267.927 47.9753 268.004 47.3482L267.989 47.2259ZM253.802 47.3482C253.802 47.5623 253.802 47.8529 253.802 48.22C253.802 48.5871 253.802 48.9847 253.802 49.3823C253.802 49.78 253.802 50.1623 253.802 50.5447C253.802 50.927 253.802 51.2176 253.802 51.4317C253.834 51.7954 253.906 52.1545 254.018 52.5023C254.14 52.8339 254.324 53.1399 254.559 53.4047C254.824 53.6753 255.146 53.8842 255.502 54.0165C255.946 54.1821 256.418 54.26 256.893 54.2459C257.358 54.2602 257.823 54.1982 258.268 54.0623C258.59 53.9521 258.893 53.7921 259.164 53.5882C259.378 53.4136 259.556 53.2009 259.69 52.9612C259.8 52.7601 259.893 52.5504 259.968 52.3341C260.016 52.1314 260.111 51.9427 260.246 51.7835C260.324 51.7217 260.413 51.6763 260.508 51.65C260.604 51.6237 260.704 51.6171 260.803 51.6306H264.017C264.089 51.6278 264.16 51.6399 264.227 51.6663C264.293 51.6926 264.353 51.7326 264.403 51.7835C264.455 51.8329 264.495 51.8925 264.522 51.9584C264.548 52.0243 264.561 52.095 264.558 52.1659C264.547 52.9772 264.34 53.7743 263.955 54.4906C263.574 55.2189 263.048 55.8638 262.41 56.3871C261.677 56.9436 260.858 57.3775 259.984 57.6717C259.012 57.9899 257.994 58.15 256.97 58.1459C255.917 58.1507 254.871 57.9748 253.879 57.6259C253.006 57.3068 252.203 56.8238 251.515 56.2035C250.858 55.6134 250.332 54.8947 249.969 54.0929C249.613 53.2902 249.409 52.4297 249.367 51.5541C249.367 50.8812 249.367 50.1776 249.367 49.4129C249.367 48.6482 249.367 47.8835 249.367 47.2259C249.396 46.3502 249.596 45.4882 249.954 44.687C250.323 43.8893 250.848 43.172 251.499 42.5765C252.188 41.9562 252.991 41.4732 253.864 41.1541C254.881 40.7997 255.953 40.6238 257.032 40.6341C258.056 40.6223 259.075 40.7826 260.045 41.1082C260.92 41.4024 261.739 41.8364 262.472 42.3929C263.11 42.9161 263.636 43.5611 264.017 44.2894C264.402 45.0057 264.609 45.8028 264.62 46.6141C264.623 46.685 264.61 46.7557 264.584 46.8216C264.557 46.8875 264.517 46.9471 264.465 46.9965C264.415 47.0474 264.355 47.0874 264.288 47.1137C264.222 47.1401 264.15 47.1522 264.079 47.1494H260.818C260.72 47.1629 260.62 47.1563 260.524 47.13C260.428 47.1037 260.339 47.0582 260.262 46.9965C260.126 46.8373 260.031 46.6486 259.984 46.4459C259.911 46.2285 259.818 46.0185 259.705 45.8188C259.575 45.5764 259.397 45.3629 259.18 45.1917C258.908 44.9879 258.606 44.8279 258.284 44.7176C257.84 44.5757 257.375 44.5085 256.908 44.5188C256.432 44.5012 255.958 44.5847 255.517 44.7635C255.161 44.8957 254.839 45.1047 254.575 45.3753C254.339 45.6401 254.156 45.9461 254.034 46.2776C253.92 46.6251 253.848 46.9843 253.817 47.3482H253.802ZM241.068 57.9012C240.981 57.9043 240.894 57.888 240.814 57.8536C240.733 57.8192 240.662 57.7675 240.604 57.7023C240.539 57.6455 240.486 57.5748 240.452 57.4954C240.417 57.416 240.4 57.33 240.404 57.2435V41.5364C240.4 41.45 240.417 41.364 240.452 41.2846C240.486 41.2052 240.539 41.1345 240.604 41.0776C240.662 41.0124 240.733 40.9607 240.814 40.9264C240.894 40.892 240.981 40.8757 241.068 40.8788H244.282C244.372 40.8775 244.461 40.8945 244.543 40.9287C244.625 40.9629 244.7 41.0136 244.762 41.0776C244.822 41.1377 244.87 41.2093 244.902 41.2882C244.934 41.3671 244.949 41.4515 244.947 41.5364V57.2435C244.949 57.3284 244.934 57.4129 244.902 57.4918C244.87 57.5706 244.822 57.6423 244.762 57.7023C244.7 57.7663 244.625 57.817 244.543 57.8513C244.461 57.8855 244.372 57.9024 244.282 57.9012H241.068ZM235.675 40.8788C235.764 40.8775 235.853 40.8945 235.935 40.9287C236.018 40.9629 236.092 41.0136 236.154 41.0776C236.214 41.1377 236.262 41.2093 236.294 41.2882C236.326 41.3671 236.341 41.4515 236.339 41.5364V44.1059C236.341 44.2815 236.274 44.4512 236.154 44.58C236.024 44.6994 235.852 44.7651 235.675 44.7635H228.334V48.0976H235.196C235.283 48.0975 235.369 48.1151 235.448 48.1493C235.528 48.1835 235.6 48.2336 235.659 48.2964C235.72 48.3565 235.768 48.4281 235.8 48.507C235.831 48.5859 235.847 48.6704 235.845 48.7553V51.34C235.844 51.5107 235.778 51.6747 235.659 51.7988C235.535 51.9203 235.37 51.9912 235.196 51.9976H228.334V57.2435C228.337 57.33 228.321 57.416 228.286 57.4954C228.251 57.5748 228.199 57.6455 228.133 57.7023C228.076 57.7675 228.004 57.8192 227.924 57.8536C227.844 57.888 227.757 57.9043 227.67 57.9012H224.455C224.368 57.9043 224.281 57.888 224.201 57.8536C224.12 57.8192 224.049 57.7675 223.992 57.7023C223.926 57.6455 223.874 57.5748 223.839 57.4954C223.804 57.416 223.788 57.33 223.791 57.2435V41.5364C223.788 41.45 223.804 41.364 223.839 41.2846C223.874 41.2052 223.926 41.1345 223.992 41.0776C224.049 41.0124 224.12 40.9607 224.201 40.9264C224.281 40.892 224.368 40.8757 224.455 40.8788H235.675ZM217.13 36.2906C217.253 36.1357 217.405 36.0059 217.578 35.9082C217.727 35.8554 217.884 35.8294 218.042 35.8318H221.565C221.874 35.8318 222.029 36 222.029 36.3211C222.031 36.3756 222.022 36.43 222 36.4803C221.979 36.5305 221.946 36.5754 221.905 36.6117L218.598 39.3188L218.181 39.6094C217.987 39.697 217.776 39.7389 217.563 39.7318H215.152C214.889 39.7318 214.766 39.5941 214.766 39.3341C214.763 39.275 214.772 39.216 214.794 39.1607C214.815 39.1054 214.847 39.0551 214.889 39.0129L217.13 36.2906ZM215.044 57.9623C214.956 57.9654 214.87 57.9492 214.789 57.9148C214.709 57.8804 214.638 57.8287 214.58 57.7635C214.514 57.7066 214.462 57.636 214.427 57.5566C214.393 57.4772 214.376 57.3911 214.379 57.3047V41.5976C214.376 41.5112 214.393 41.4251 214.427 41.3457C214.462 41.2664 214.514 41.1957 214.58 41.1388C214.638 41.0736 214.709 41.0219 214.789 40.9875C214.87 40.9531 214.956 40.9369 215.044 40.94H218.258C218.346 40.9369 218.433 40.9531 218.513 40.9875C218.593 41.0219 218.664 41.0736 218.722 41.1388C218.788 41.1957 218.84 41.2664 218.875 41.3457C218.909 41.4251 218.926 41.5112 218.923 41.5976V57.3047C218.926 57.3911 218.909 57.4772 218.875 57.5566C218.84 57.636 218.788 57.7066 218.722 57.7635C218.664 57.8287 218.593 57.8804 218.513 57.9148C218.433 57.9492 218.346 57.9654 218.258 57.9623H215.044ZM199.59 47.4094C199.59 47.6235 199.59 47.9141 199.59 48.2812C199.59 48.6482 199.59 49.0459 199.59 49.4435C199.59 49.8412 199.59 50.2235 199.59 50.6059C199.59 50.9882 199.59 51.2788 199.59 51.4929C199.619 51.8583 199.697 52.2183 199.822 52.5635C199.931 52.9007 200.116 53.2092 200.363 53.4659C200.624 53.7327 200.94 53.9412 201.29 54.0776C201.739 54.2434 202.217 54.3213 202.696 54.307C203.162 54.319 203.626 54.257 204.072 54.1235C204.388 54.0098 204.684 53.85 204.952 53.6494C205.166 53.4748 205.344 53.2621 205.478 53.0223C205.588 52.8213 205.681 52.6115 205.756 52.3953C205.816 52.1973 205.91 52.0111 206.034 51.8447C206.112 51.7829 206.201 51.7375 206.296 51.7112C206.392 51.6849 206.492 51.6782 206.591 51.6917H209.82C209.89 51.6911 209.958 51.7043 210.022 51.7306C210.086 51.7568 210.143 51.7957 210.191 51.8447C210.245 51.8933 210.288 51.9524 210.317 52.0182C210.346 52.084 210.361 52.1551 210.361 52.227C210.345 53.0396 210.133 53.8366 209.743 54.5518C209.366 55.2826 208.84 55.9283 208.198 56.4482C207.465 57.0047 206.646 57.4387 205.772 57.7329C204.805 58.0529 203.792 58.2131 202.774 58.2071C201.721 58.2113 200.675 58.0354 199.683 57.687C198.811 57.3642 198.009 56.8817 197.318 56.2647C196.666 55.6702 196.141 54.9526 195.773 54.1541C195.417 53.3514 195.213 52.4909 195.17 51.6153C195.17 50.9423 195.17 50.2388 195.17 49.4741C195.17 48.7094 195.17 47.9447 195.17 47.2871C195.2 46.4114 195.399 45.5494 195.757 44.7482C196.127 43.9505 196.652 43.2332 197.303 42.6376C197.995 42.0141 198.803 41.5308 199.683 41.2153C200.675 40.8669 201.721 40.691 202.774 40.6953C203.793 40.6822 204.807 40.8426 205.772 41.1694C206.646 41.4636 207.465 41.8976 208.198 42.4541C208.84 42.974 209.366 43.6197 209.743 44.3506C210.133 45.0658 210.345 45.8627 210.361 46.6753C210.361 46.7472 210.346 46.8183 210.317 46.8841C210.288 46.9499 210.245 47.009 210.191 47.0576C210.143 47.1066 210.086 47.1455 210.022 47.1718C209.958 47.1981 209.89 47.2113 209.82 47.2106H206.591C206.492 47.2241 206.392 47.2175 206.296 47.1912C206.201 47.1649 206.112 47.1194 206.034 47.0576C205.91 46.8912 205.816 46.705 205.756 46.507C205.684 46.2897 205.591 46.0797 205.478 45.88C205.348 45.6376 205.169 45.4241 204.952 45.2529C204.684 45.0523 204.388 44.8925 204.072 44.7788C203.627 44.6394 203.163 44.5722 202.696 44.58C202.215 44.5626 201.736 44.646 201.29 44.8247C200.94 44.9611 200.624 45.1696 200.363 45.4365C200.116 45.6932 199.931 46.0016 199.822 46.3388C199.706 46.6647 199.634 47.004 199.605 47.3482L199.59 47.4094ZM182.065 51.5694H186.022L184.028 45.727L182.065 51.5694ZM186.052 40.94C186.187 40.9317 186.323 40.9504 186.45 40.9951C186.578 41.0398 186.695 41.1095 186.794 41.2C186.946 41.3545 187.067 41.5361 187.15 41.7353L192.512 57.0294C192.562 57.1463 192.593 57.2701 192.605 57.3965C192.608 57.4651 192.595 57.5334 192.568 57.5968C192.542 57.6602 192.501 57.717 192.45 57.7635C192.401 57.8165 192.342 57.8588 192.275 57.8877C192.209 57.9167 192.137 57.9317 192.064 57.9317H188.973C188.722 57.9537 188.472 57.8768 188.278 57.7176C188.154 57.6123 188.063 57.4744 188.015 57.32L187.32 55.3012H180.798L180.103 57.32C180.055 57.4744 179.964 57.6123 179.84 57.7176C179.646 57.8768 179.396 57.9537 179.145 57.9317H176.054C175.981 57.9317 175.909 57.9167 175.843 57.8877C175.776 57.8588 175.717 57.8165 175.668 57.7635C175.616 57.717 175.576 57.6602 175.549 57.5968C175.523 57.5334 175.51 57.4651 175.513 57.3965C175.525 57.2701 175.556 57.1463 175.606 57.0294L180.968 41.7353C181.073 41.5419 181.215 41.3705 181.385 41.2306C181.485 41.1401 181.602 41.0704 181.73 41.0257C181.857 40.981 181.992 40.9623 182.127 40.9706L186.052 40.94ZM164.417 48.587H167.477C168.083 48.6121 168.682 48.4519 169.192 48.1282C169.433 47.9566 169.621 47.7237 169.738 47.4544C169.855 47.1851 169.896 46.8894 169.857 46.5988C169.896 46.3082 169.855 46.0126 169.738 45.7432C169.621 45.4739 169.433 45.241 169.192 45.0694C168.682 44.7457 168.083 44.5855 167.477 44.6106H164.386L164.417 48.587ZM167.508 40.94C168.462 40.9301 169.414 41.0485 170.336 41.2917C171.114 41.498 171.841 41.8626 172.469 42.3623C173.064 42.8385 173.531 43.4533 173.829 44.1518C174.165 44.9344 174.328 45.7792 174.308 46.6294C174.328 47.4895 174.165 48.3442 173.829 49.1376C173.526 49.8287 173.06 50.4373 172.469 50.9118C171.837 51.4057 171.112 51.7696 170.336 51.9823C169.416 52.2384 168.464 52.3621 167.508 52.3494H164.417V57.3047C164.416 57.3906 164.398 57.4754 164.364 57.5542C164.329 57.6331 164.279 57.7042 164.216 57.7635C164.157 57.8264 164.085 57.8764 164.005 57.9107C163.926 57.9449 163.84 57.9624 163.753 57.9623H160.523C160.436 57.9624 160.35 57.9449 160.27 57.9107C160.19 57.8764 160.119 57.8264 160.059 57.7635C159.998 57.7035 159.951 57.6318 159.919 57.5529C159.887 57.4741 159.872 57.3896 159.874 57.3047V41.5976C159.872 41.5127 159.887 41.4283 159.919 41.3494C159.951 41.2705 159.998 41.1989 160.059 41.1388C160.119 41.076 160.19 41.0259 160.27 40.9917C160.35 40.9575 160.436 40.9399 160.523 40.94H167.508ZM143.153 54.0623C143.239 54.0631 143.325 54.0811 143.405 54.1153C143.484 54.1494 143.556 54.199 143.616 54.2612C143.68 54.3199 143.73 54.391 143.765 54.4699C143.8 54.5488 143.817 54.634 143.817 54.72V57.3047C143.82 57.3911 143.804 57.4772 143.769 57.5566C143.734 57.636 143.682 57.7066 143.616 57.7635C143.559 57.8287 143.487 57.8804 143.407 57.9148C143.327 57.9492 143.24 57.9654 143.153 57.9623H131.779C131.691 57.9654 131.604 57.9492 131.524 57.9148C131.444 57.8804 131.373 57.8287 131.315 57.7635C131.249 57.7066 131.197 57.636 131.162 57.5566C131.127 57.4772 131.111 57.3911 131.114 57.3047V41.5976C131.111 41.5112 131.127 41.4251 131.162 41.3457C131.197 41.2664 131.249 41.1957 131.315 41.1388C131.373 41.0736 131.444 41.0219 131.524 40.9875C131.604 40.9531 131.691 40.9369 131.779 40.94H135.024C135.113 40.9387 135.202 40.9557 135.284 40.9899C135.367 41.0241 135.441 41.0748 135.503 41.1388C135.564 41.1989 135.611 41.2705 135.643 41.3494C135.675 41.4283 135.691 41.5127 135.688 41.5976V54.0623H143.153ZM126.153 54.0623C126.24 54.0631 126.326 54.0811 126.406 54.1153C126.485 54.1494 126.557 54.199 126.617 54.2612C126.681 54.3199 126.731 54.391 126.766 54.4699C126.8 54.5488 126.818 54.634 126.818 54.72V57.3047C126.821 57.3911 126.805 57.4772 126.77 57.5566C126.735 57.636 126.683 57.7066 126.617 57.7635C126.56 57.8287 126.488 57.8804 126.408 57.9148C126.328 57.9492 126.241 57.9654 126.153 57.9623H114.501C114.414 57.9624 114.328 57.9449 114.249 57.9107C114.169 57.8764 114.097 57.8264 114.038 57.7635C113.977 57.7035 113.929 57.6318 113.897 57.5529C113.866 57.4741 113.85 57.3896 113.852 57.3047V41.5976C113.85 41.5127 113.866 41.4283 113.897 41.3494C113.929 41.2705 113.977 41.1989 114.038 41.1388C114.097 41.076 114.169 41.0259 114.249 40.9917C114.328 40.9575 114.414 40.9399 114.501 40.94H125.953C126.04 40.9369 126.127 40.9531 126.207 40.9875C126.287 41.0219 126.359 41.0736 126.416 41.1388C126.482 41.1957 126.534 41.2664 126.569 41.3457C126.604 41.4251 126.62 41.5112 126.617 41.5976V44.167C126.618 44.2555 126.601 44.3433 126.567 44.4249C126.532 44.5065 126.481 44.5801 126.416 44.6412C126.355 44.7012 126.283 44.7485 126.203 44.78C126.124 44.8116 126.038 44.8268 125.953 44.8247H118.396V47.4553H125.412C125.501 47.454 125.59 47.471 125.672 47.5052C125.755 47.5394 125.829 47.5901 125.891 47.6541C125.951 47.7142 125.999 47.7858 126.031 47.8647C126.063 47.9435 126.078 48.028 126.076 48.1129V50.6823C126.078 50.858 126.011 51.0276 125.891 51.1565C125.761 51.2759 125.589 51.3416 125.412 51.34H118.396V54.0623H126.153ZM105.013 47.6235C104.92 45.7576 103.807 44.8247 101.675 44.8247H99.1711V54.0012H101.798C103.869 54.0012 104.889 53.0835 105.013 51.2176C105.013 50.8659 105.013 50.5447 105.013 50.2541V48.5106C105.105 48.2812 105.09 47.96 105.074 47.6235H105.013ZM101.798 40.94C102.85 40.927 103.897 41.0979 104.889 41.4447C105.783 41.7446 106.608 42.2177 107.315 42.8365C107.978 43.44 108.504 44.1747 108.861 44.9929C109.255 45.8549 109.476 46.7849 109.51 47.7306C109.51 48.067 109.51 48.3729 109.51 48.6635V50.1929C109.51 50.4682 109.51 50.7741 109.51 51.0953C109.473 52.0439 109.258 52.9774 108.876 53.8482C108.518 54.6609 107.991 55.3903 107.331 55.9894C106.64 56.5988 105.837 57.0712 104.966 57.3812C103.975 57.7298 102.928 57.9007 101.876 57.8859H95.2458C95.1585 57.889 95.0715 57.8727 94.9913 57.8383C94.9111 57.8039 94.8397 57.7522 94.7822 57.687C94.7164 57.6302 94.6641 57.5595 94.6294 57.4801C94.5946 57.4007 94.5782 57.3147 94.5813 57.2282V41.5212C94.5782 41.4347 94.5946 41.3486 94.6294 41.2693C94.6641 41.1899 94.7164 41.1192 94.7822 41.0623C94.8397 40.9971 94.9111 40.9455 94.9913 40.9111C95.0715 40.8767 95.1585 40.8604 95.2458 40.8635L101.798 40.94ZM273.614 22.7553H277.601L275.654 16.9129L273.614 22.7553ZM277.663 12.1717C277.799 12.1626 277.936 12.1825 278.064 12.23C278.192 12.2775 278.308 12.3515 278.404 12.447C278.568 12.592 278.69 12.7765 278.76 12.9823L284.122 28.2765C284.172 28.3934 284.203 28.5172 284.215 28.6435C284.218 28.7144 284.206 28.7851 284.179 28.851C284.152 28.9169 284.112 28.9765 284.061 29.0259C284.011 29.0768 283.95 29.1168 283.884 29.1431C283.817 29.1695 283.746 29.1816 283.674 29.1788H280.583C280.332 29.2008 280.082 29.1239 279.888 28.9647C279.764 28.8593 279.673 28.7215 279.625 28.567L278.945 26.5482H272.408L271.713 28.567C271.672 28.7207 271.586 28.859 271.466 28.9647C271.264 29.1206 271.01 29.1969 270.755 29.1788H267.664C267.592 29.1816 267.521 29.1695 267.454 29.1431C267.388 29.1168 267.328 29.0768 267.278 29.0259C267.226 28.9765 267.186 28.9169 267.159 28.851C267.133 28.7851 267.12 28.7144 267.123 28.6435C267.135 28.5172 267.166 28.3934 267.216 28.2765L272.578 12.9823C272.654 12.7792 272.775 12.596 272.934 12.447C273.031 12.3515 273.147 12.2775 273.275 12.23C273.403 12.1825 273.539 12.1626 273.676 12.1717H277.663ZM255.023 19.5435H257.789C258.386 19.5646 258.979 19.4273 259.504 19.1459C259.732 18.9914 259.914 18.7795 260.031 18.532C260.147 18.2846 260.195 18.0107 260.169 17.7388C260.195 17.4669 260.147 17.193 260.031 16.9456C259.914 16.6981 259.732 16.4862 259.504 16.3317C258.977 16.0556 258.385 15.9236 257.789 15.9494H255.023V19.5435ZM257.789 12.1717C258.768 12.1643 259.744 12.2773 260.694 12.5082C261.476 12.7086 262.21 13.0565 262.858 13.5329C263.46 13.9879 263.933 14.5883 264.233 15.2765C264.57 16.0537 264.733 16.8935 264.712 17.7388C264.764 18.8094 264.501 19.8717 263.955 20.7976C263.442 21.615 262.686 22.2559 261.792 22.6329L264.882 28.4294C264.908 28.5143 264.908 28.6045 264.882 28.6894C264.885 28.7603 264.873 28.831 264.846 28.8969C264.82 28.9628 264.779 29.0224 264.728 29.0718C264.678 29.1227 264.618 29.1626 264.551 29.189C264.485 29.2154 264.413 29.2275 264.342 29.2247H261.003C260.752 29.2467 260.502 29.1697 260.308 29.0106C260.18 28.8741 260.066 28.7256 259.968 28.567L257.248 23.3671H254.992V28.567C254.991 28.6529 254.973 28.7378 254.938 28.8166C254.904 28.8954 254.854 28.9666 254.791 29.0259C254.732 29.0887 254.66 29.1388 254.58 29.173C254.5 29.2072 254.414 29.2248 254.327 29.2247H251.098C251.011 29.2248 250.925 29.2072 250.845 29.173C250.765 29.1388 250.693 29.0887 250.634 29.0259C250.571 28.9666 250.521 28.8954 250.487 28.8166C250.452 28.7378 250.434 28.6529 250.433 28.567V12.7835C250.434 12.6976 250.452 12.6128 250.487 12.534C250.521 12.4552 250.571 12.384 250.634 12.3247C250.693 12.2619 250.765 12.2118 250.845 12.1776C250.925 12.1434 251.011 12.1258 251.098 12.1259L257.789 12.1717ZM241.903 22.7247C241.903 22.4392 241.903 22.118 241.903 21.7612C241.903 21.3941 241.903 21.027 241.903 20.66C241.903 20.2929 241.903 19.9259 241.903 19.5741C241.903 19.2223 241.903 18.9164 241.903 18.6412C241.874 18.2578 241.785 17.8812 241.64 17.5247C241.511 17.1905 241.311 16.8879 241.053 16.6376C240.789 16.3701 240.466 16.1661 240.11 16.0412C239.685 15.8848 239.234 15.812 238.781 15.827C238.328 15.8132 237.877 15.8859 237.452 16.0412C237.096 16.1661 236.773 16.3701 236.509 16.6376C236.256 16.8921 236.057 17.1936 235.922 17.5247C235.777 17.8812 235.688 18.2578 235.659 18.6412C235.659 18.9164 235.659 19.2223 235.659 19.5741C235.659 19.9259 235.659 20.2929 235.659 20.66C235.659 21.027 235.659 21.3941 235.659 21.7612C235.659 22.1282 235.659 22.4341 235.659 22.7247C235.7 23.4742 236 24.1869 236.509 24.7435C236.808 25.0303 237.165 25.2509 237.557 25.3906C237.949 25.5304 238.366 25.5861 238.781 25.5541C239.194 25.5879 239.609 25.533 239.999 25.3931C240.388 25.2531 240.742 25.0316 241.037 24.7435C241.554 24.1723 241.859 23.4443 241.903 22.6788V22.7247ZM231.085 18.5188C231.127 17.6333 231.332 16.7628 231.688 15.9494C232.047 15.1552 232.574 14.446 233.233 13.8694C233.921 13.2491 234.724 12.7661 235.597 12.447C236.625 12.0891 237.707 11.9131 238.796 11.927C239.885 11.9153 240.968 12.0913 241.995 12.447C242.869 12.7661 243.671 13.2491 244.36 13.8694C245.019 14.446 245.545 15.1552 245.905 15.9494C246.261 16.7628 246.465 17.6333 246.508 18.5188C246.508 19.2223 246.508 19.9412 246.508 20.7059C246.508 21.4706 246.508 22.2353 246.508 22.847C246.465 23.7325 246.261 24.603 245.905 25.4165C245.542 26.2134 245.016 26.9269 244.36 27.5117C243.679 28.1379 242.873 28.617 241.995 28.9188C240.969 29.2818 239.886 29.458 238.796 29.4388C237.707 29.4621 236.622 29.2858 235.597 28.9188C234.719 28.617 233.914 28.1379 233.233 27.5117C232.577 26.9269 232.05 26.2134 231.688 25.4165C231.332 24.603 231.127 23.7325 231.085 22.847C231.085 22.1894 231.085 21.4706 231.085 20.7059C231.085 19.9412 231.085 19.1764 231.116 18.4729L231.085 18.5188ZM223.126 18.8553C223.033 16.9894 221.921 16.0718 219.788 16.0718H217.285V25.2482H219.912C221.983 25.2482 223.003 24.3153 223.126 22.4494C223.126 22.1129 223.126 21.7917 223.126 21.4859V19.8188C223.188 19.467 223.111 19.1612 223.111 18.8094L223.126 18.8553ZM220.02 12.1717C221.072 12.1588 222.118 12.3297 223.111 12.6765C224.005 12.9763 224.83 13.4495 225.537 14.0682C226.199 14.6717 226.726 15.4065 227.082 16.2247C227.477 17.0867 227.697 18.0167 227.731 18.9623C227.731 19.2988 227.731 19.6047 227.731 19.8953V21.5165C227.731 21.7917 227.731 22.0823 227.731 22.4035C227.695 23.3521 227.48 24.2857 227.098 25.1565C226.739 25.9692 226.213 26.6986 225.552 27.2976C224.866 27.9124 224.062 28.3856 223.188 28.6894C222.196 29.0381 221.15 29.209 220.097 29.1941H213.468C213.38 29.1972 213.293 29.1809 213.213 29.1465C213.133 29.1122 213.061 29.0605 213.004 28.9953C212.938 28.9384 212.886 28.8677 212.851 28.7883C212.816 28.709 212.8 28.6229 212.803 28.5364V12.7835C212.8 12.697 212.816 12.611 212.851 12.5316C212.886 12.4522 212.938 12.3816 213.004 12.3247C213.061 12.2595 213.133 12.2078 213.213 12.1734C213.293 12.139 213.38 12.1228 213.468 12.1259L220.02 12.1717ZM199.173 22.8012H203.021L201.027 16.9588L199.173 22.8012ZM203.021 12.1717C203.159 12.1624 203.299 12.1821 203.429 12.2295C203.56 12.2769 203.678 12.3511 203.778 12.447C203.936 12.596 204.058 12.7792 204.133 12.9823L209.48 28.2765C209.541 28.3906 209.577 28.5153 209.589 28.6435C209.589 28.7154 209.573 28.7865 209.544 28.8523C209.515 28.9181 209.472 28.9772 209.419 29.0259C209.371 29.0749 209.313 29.1137 209.249 29.14C209.185 29.1663 209.117 29.1795 209.048 29.1788H205.957C205.706 29.2008 205.456 29.1239 205.262 28.9647C205.143 28.8551 205.053 28.7187 204.999 28.567L204.319 26.5482H197.782L197.102 28.567C197.048 28.7187 196.958 28.8551 196.839 28.9647C196.645 29.1239 196.395 29.2008 196.144 29.1788H193.053C192.984 29.1814 192.915 29.1691 192.851 29.1427C192.787 29.1163 192.729 29.0764 192.682 29.0259C192.629 28.9772 192.586 28.9181 192.557 28.8523C192.527 28.7865 192.512 28.7154 192.512 28.6435C192.523 28.5153 192.56 28.3906 192.62 28.2765L197.967 12.9823C198.043 12.7792 198.164 12.596 198.323 12.447C198.422 12.3511 198.541 12.2769 198.672 12.2295C198.802 12.1821 198.941 12.1624 199.08 12.1717H203.021ZM191.631 12.1717C191.719 12.1686 191.806 12.1849 191.886 12.2193C191.966 12.2537 192.037 12.3054 192.095 12.3706C192.161 12.4274 192.213 12.4981 192.248 12.5775C192.283 12.6569 192.299 12.7429 192.296 12.8294V15.4141C192.296 15.5001 192.278 15.5853 192.244 15.6642C192.209 15.7431 192.158 15.8142 192.095 15.8729C192.035 15.9351 191.963 15.9847 191.883 16.0188C191.804 16.053 191.718 16.071 191.631 16.0718H187.304V28.5364C187.307 28.6229 187.291 28.709 187.256 28.7883C187.221 28.8677 187.169 28.9384 187.103 28.9953C187.046 29.0605 186.974 29.1122 186.894 29.1465C186.814 29.1809 186.727 29.1972 186.64 29.1941H183.425C183.338 29.1972 183.251 29.1809 183.171 29.1465C183.091 29.1122 183.019 29.0605 182.962 28.9953C182.896 28.9384 182.844 28.8677 182.809 28.7883C182.774 28.709 182.758 28.6229 182.761 28.5364V16.0718H178.434C178.259 16.0653 178.094 15.9944 177.97 15.8729C177.847 15.7503 177.776 15.5866 177.769 15.4141V12.8294C177.77 12.7435 177.788 12.6586 177.823 12.5798C177.857 12.501 177.907 12.4299 177.97 12.3706C178.029 12.3077 178.101 12.2576 178.181 12.2234C178.261 12.1892 178.347 12.1716 178.434 12.1717H191.631ZM170.568 29.1482C170.48 29.1513 170.393 29.1351 170.313 29.1007C170.233 29.0663 170.162 29.0146 170.104 28.9494C170.038 28.8925 169.986 28.8218 169.951 28.7425C169.917 28.6631 169.9 28.577 169.903 28.4906V12.7835C169.9 12.697 169.917 12.611 169.951 12.5316C169.986 12.4522 170.038 12.3816 170.104 12.3247C170.162 12.2595 170.233 12.2078 170.313 12.1734C170.393 12.139 170.48 12.1228 170.568 12.1259H173.782C173.87 12.1228 173.956 12.139 174.037 12.1734C174.117 12.2078 174.188 12.2595 174.246 12.3247C174.312 12.3816 174.364 12.4522 174.399 12.5316C174.433 12.611 174.45 12.697 174.447 12.7835V28.4906C174.45 28.577 174.433 28.6631 174.399 28.7425C174.364 28.8218 174.312 28.8925 174.246 28.9494C174.188 29.0146 174.117 29.0663 174.037 29.1007C173.956 29.1351 173.87 29.1513 173.782 29.1482H170.568ZM155.979 25.0647C155.872 25.0697 155.765 25.0533 155.664 25.0165C155.563 24.9798 155.471 24.9233 155.392 24.8506C155.278 24.7166 155.185 24.5672 155.114 24.407L152.796 20.4V28.4447C152.798 28.5296 152.783 28.6141 152.751 28.6929C152.719 28.7718 152.671 28.8435 152.61 28.9035C152.551 28.9664 152.479 29.0164 152.399 29.0506C152.32 29.0848 152.234 29.1025 152.147 29.1023H148.932C148.845 29.1025 148.759 29.0848 148.68 29.0506C148.6 29.0164 148.528 28.9664 148.469 28.9035C148.406 28.8442 148.356 28.7731 148.321 28.6943C148.287 28.6154 148.269 28.5306 148.268 28.4447V12.7835C148.269 12.6976 148.287 12.6128 148.321 12.534C148.356 12.4552 148.406 12.384 148.469 12.3247C148.528 12.2619 148.6 12.2118 148.68 12.1776C148.759 12.1434 148.845 12.1258 148.932 12.1259H151.791C151.926 12.1148 152.061 12.1338 152.186 12.1815C152.312 12.2291 152.425 12.3042 152.518 12.4011C152.64 12.5165 152.749 12.6447 152.842 12.7835L156.829 19.5129L160.801 12.7835C160.895 12.6447 161.003 12.5165 161.125 12.4011C161.22 12.303 161.336 12.2273 161.465 12.1796C161.593 12.1319 161.731 12.1136 161.867 12.1259H164.711C164.798 12.1228 164.885 12.139 164.965 12.1734C165.045 12.2078 165.117 12.2595 165.174 12.3247C165.24 12.3816 165.292 12.4522 165.327 12.5316C165.362 12.611 165.378 12.697 165.375 12.7835V28.4906C165.378 28.577 165.362 28.6631 165.327 28.7425C165.292 28.8218 165.24 28.8925 165.174 28.9494C165.117 29.0146 165.045 29.0663 164.965 29.1007C164.885 29.1351 164.798 29.1513 164.711 29.1482H161.496C161.407 29.1495 161.318 29.1325 161.236 29.0983C161.153 29.0641 161.079 29.0134 161.017 28.9494C160.957 28.8893 160.909 28.8177 160.877 28.7388C160.845 28.66 160.83 28.5755 160.832 28.4906V20.4459L158.514 24.4529C158.425 24.5998 158.316 24.7336 158.189 24.8506C158.111 24.9233 158.018 24.9798 157.918 25.0165C157.817 25.0533 157.709 25.0697 157.602 25.0647H155.979ZM134.529 22.7553H138.517L136.569 16.9129L134.529 22.7553ZM138.517 12.1259C138.653 12.1168 138.79 12.1366 138.918 12.1841C139.045 12.2316 139.162 12.3056 139.258 12.4011C139.417 12.5502 139.538 12.7334 139.614 12.9365L144.976 28.2306C145.026 28.3475 145.057 28.4713 145.069 28.5976C145.072 28.6685 145.06 28.7392 145.033 28.8051C145.006 28.871 144.966 28.9306 144.914 28.98C144.864 29.0309 144.804 29.0709 144.738 29.0972C144.671 29.1236 144.6 29.1357 144.528 29.1329H141.437C141.186 29.1549 140.936 29.078 140.742 28.9188C140.618 28.8134 140.527 28.6756 140.479 28.5212L139.784 26.5023H133.262L132.567 28.5212C132.519 28.6756 132.428 28.8134 132.304 28.9188C132.11 29.078 131.86 29.1549 131.609 29.1329H128.518C128.446 29.1357 128.375 29.1236 128.308 29.0972C128.242 29.0709 128.181 29.0309 128.132 28.98C128.08 28.9306 128.04 28.871 128.013 28.8051C127.986 28.7392 127.974 28.6685 127.977 28.5976C127.989 28.4713 128.02 28.3475 128.07 28.2306L133.432 12.9365C133.508 12.7334 133.629 12.5502 133.788 12.4011C133.884 12.3056 134.001 12.2316 134.128 12.1841C134.256 12.1366 134.393 12.1168 134.529 12.1259H138.517ZM115.861 19.4976H118.643C119.24 19.5165 119.832 19.3794 120.358 19.1C120.586 18.9455 120.768 18.7336 120.884 18.4861C121.001 18.2387 121.049 17.9648 121.023 17.6929C121.049 17.421 121.001 17.1471 120.884 16.8997C120.768 16.6523 120.586 16.4403 120.358 16.2859C119.83 16.0118 119.239 15.8799 118.643 15.9035H115.861V19.4976ZM118.643 12.1259C119.622 12.1184 120.598 12.2314 121.548 12.4623C122.329 12.6627 123.064 13.0106 123.712 13.487C124.314 13.942 124.787 14.5424 125.087 15.2306C125.424 16.0078 125.587 16.8476 125.566 17.6929C125.617 18.7635 125.354 19.8259 124.809 20.7517C124.296 21.5691 123.54 22.21 122.645 22.587L125.736 28.3835C125.781 28.4636 125.807 28.5523 125.813 28.6435C125.816 28.7144 125.804 28.7851 125.777 28.851C125.751 28.9169 125.71 28.9765 125.659 29.0259C125.609 29.0768 125.549 29.1168 125.482 29.1431C125.416 29.1695 125.344 29.1816 125.273 29.1788H121.935C121.683 29.2008 121.433 29.1239 121.239 28.9647C121.107 28.8322 120.992 28.6831 120.899 28.5212L118.179 23.3211H115.908V28.5212C115.91 28.6061 115.894 28.6906 115.862 28.7694C115.831 28.8483 115.783 28.9199 115.722 28.98C115.66 29.044 115.586 29.0947 115.504 29.1289C115.421 29.1631 115.332 29.1801 115.243 29.1788H112.029C111.942 29.1789 111.856 29.1613 111.776 29.1271C111.696 29.0929 111.624 29.0428 111.565 28.98C111.502 28.9207 111.452 28.8495 111.418 28.7707C111.383 28.6919 111.365 28.607 111.364 28.5212V12.7835C111.365 12.6976 111.383 12.6128 111.418 12.534C111.452 12.4552 111.502 12.384 111.565 12.3247C111.624 12.2619 111.696 12.2118 111.776 12.1776C111.856 12.1434 111.942 12.1258 112.029 12.1259H118.643ZM107.3 12.1259C107.387 12.1228 107.474 12.139 107.554 12.1734C107.635 12.2078 107.706 12.2595 107.763 12.3247C107.829 12.3816 107.882 12.4522 107.916 12.5316C107.951 12.611 107.967 12.697 107.964 12.7835V15.3682C107.964 15.4542 107.947 15.5394 107.912 15.6183C107.878 15.6972 107.827 15.7683 107.763 15.827C107.704 15.8892 107.632 15.9388 107.552 15.9729C107.472 16.0071 107.387 16.0251 107.3 16.0259H102.973V28.4906C102.976 28.577 102.959 28.6631 102.925 28.7425C102.89 28.8218 102.838 28.8925 102.772 28.9494C102.714 29.0146 102.643 29.0663 102.563 29.1007C102.483 29.1351 102.396 29.1513 102.308 29.1482H99.0938C99.0065 29.1513 98.9195 29.1351 98.8393 29.1007C98.7591 29.0663 98.6877 29.0146 98.6302 28.9494C98.5643 28.8925 98.5121 28.8218 98.4774 28.7425C98.4426 28.6631 98.4262 28.577 98.4293 28.4906V16.0259H94.1023C93.928 16.0195 93.7625 15.9485 93.6387 15.827C93.5159 15.7044 93.4442 15.5407 93.4377 15.3682V12.7835C93.4385 12.6976 93.4567 12.6128 93.4912 12.534C93.5257 12.4552 93.5759 12.384 93.6387 12.3247C93.698 12.2619 93.7698 12.2118 93.8496 12.1776C93.9293 12.1434 94.0153 12.1258 94.1023 12.1259H107.3Z" fill="white"/>
<path d="M249.598 81.3163C249.728 81.3214 249.85 81.3762 249.938 81.4692C249.984 81.5124 250.02 81.5647 250.044 81.6227C250.068 81.6807 250.08 81.7431 250.078 81.8057V82.9987C250.08 83.0613 250.068 83.1236 250.044 83.1816C250.02 83.2396 249.984 83.2919 249.938 83.3351C249.897 83.3841 249.845 83.4233 249.786 83.4498C249.727 83.4762 249.663 83.4893 249.598 83.4881H248.378C248.313 83.4893 248.249 83.4762 248.19 83.4498C248.131 83.4233 248.079 83.3841 248.038 83.3351C247.992 83.2919 247.956 83.2396 247.932 83.1816C247.908 83.1236 247.896 83.0613 247.899 82.9987V81.8057C247.896 81.7431 247.908 81.6807 247.932 81.6227C247.956 81.5647 247.992 81.5124 248.038 81.4692C248.126 81.3762 248.248 81.3214 248.378 81.3163H249.598ZM243.541 71.421C243.589 71.3129 243.657 71.2145 243.741 71.1304C243.811 71.0707 243.892 71.0261 243.98 70.9998C244.068 70.9734 244.16 70.9658 244.251 70.9775H244.916C244.968 70.9782 245.02 70.9894 245.068 71.0104C245.116 71.0314 245.159 71.0618 245.194 71.0998C245.23 71.1358 245.259 71.1788 245.277 71.2262C245.296 71.2736 245.305 71.3243 245.302 71.3751C245.318 71.4301 245.318 71.4884 245.302 71.5434L241.408 82.7693C241.341 82.9723 241.218 83.1526 241.053 83.2892C240.88 83.4204 240.668 83.4904 240.45 83.4881H239.723C239.51 83.4905 239.303 83.4203 239.136 83.2892C238.975 83.1485 238.853 82.9696 238.781 82.7693L234.871 71.5434C234.855 71.4884 234.855 71.4301 234.871 71.3751C234.869 71.3243 234.877 71.2736 234.896 71.2262C234.914 71.1788 234.943 71.1358 234.979 71.0998C235.015 71.0618 235.058 71.0314 235.106 71.0104C235.153 70.9894 235.205 70.9782 235.257 70.9775H235.937C236.026 70.967 236.116 70.9753 236.201 71.0016C236.286 71.028 236.365 71.0719 236.432 71.1304C236.516 71.2145 236.584 71.3129 236.633 71.421L240.125 81.6987L243.541 71.421ZM231.749 81.3163C231.878 81.3214 232.001 81.3762 232.089 81.4692C232.135 81.5124 232.171 81.5647 232.195 81.6227C232.219 81.6807 232.231 81.7431 232.228 81.8057V82.9987C232.231 83.0613 232.219 83.1236 232.195 83.1816C232.171 83.2396 232.135 83.2919 232.089 83.3351C232.048 83.3841 231.996 83.4233 231.937 83.4498C231.878 83.4762 231.814 83.4893 231.749 83.4881H230.544C230.477 83.4895 230.411 83.4765 230.349 83.4501C230.288 83.4237 230.233 83.3845 230.188 83.3351C230.143 83.2919 230.106 83.2396 230.082 83.1816C230.059 83.1236 230.047 83.0613 230.049 82.9987V81.8057C230.047 81.7431 230.059 81.6807 230.082 81.6227C230.106 81.5647 230.143 81.5124 230.188 81.4692C230.283 81.3753 230.41 81.3206 230.544 81.3163H231.749ZM217.841 75.7339C217.841 76.2692 217.841 76.7739 217.841 77.2634C217.841 77.7528 217.841 78.2269 217.841 78.7928C217.833 79.6774 218.158 80.5333 218.753 81.194C219.073 81.5111 219.457 81.757 219.881 81.9152C220.305 82.0735 220.758 82.1404 221.21 82.1116C221.708 82.1296 222.206 82.0571 222.678 81.8975C223.038 81.7837 223.37 81.5961 223.652 81.3469C223.904 81.1304 224.109 80.865 224.254 80.5669C224.394 80.2849 224.498 79.987 224.563 79.6798C224.586 79.5634 224.652 79.4597 224.749 79.3892C224.836 79.3311 224.938 79.2993 225.042 79.2975H225.877C225.928 79.2953 225.979 79.3037 226.027 79.3221C226.075 79.3405 226.119 79.3686 226.155 79.4045C226.191 79.4405 226.22 79.4836 226.238 79.5309C226.257 79.5783 226.265 79.629 226.263 79.6798C226.248 80.1291 226.143 80.571 225.954 80.9798C225.753 81.4678 225.453 81.9101 225.073 82.2798C224.631 82.7223 224.106 83.0755 223.528 83.3198C222.794 83.6014 222.012 83.7365 221.225 83.7175C220.514 83.7269 219.807 83.6077 219.139 83.3657C218.557 83.1357 218.03 82.7865 217.594 82.341C217.145 81.9106 216.797 81.3887 216.574 80.8116C216.319 80.1945 216.183 79.5358 216.172 78.8692C216.172 77.8139 216.172 76.7434 216.172 75.6881C216.184 75.0267 216.321 74.3733 216.574 73.761C216.797 73.1837 217.145 72.6617 217.594 72.2316C218.035 71.7957 218.561 71.4524 219.139 71.2222C219.804 70.9676 220.512 70.8429 221.225 70.8551C222.013 70.8328 222.798 70.9735 223.528 71.2681C224.102 71.5127 224.626 71.86 225.073 72.2928C225.45 72.6706 225.749 73.1173 225.954 73.6081C226.141 74.0121 226.246 74.4486 226.263 74.8928C226.265 74.9996 226.226 75.1032 226.155 75.1834C226.119 75.2193 226.075 75.2474 226.027 75.2658C225.979 75.2842 225.928 75.2926 225.877 75.2904H225.042C224.938 75.2886 224.836 75.2568 224.749 75.1987C224.652 75.1215 224.587 75.0132 224.563 74.8928C224.495 74.5912 224.391 74.2987 224.254 74.021C224.113 73.7205 223.908 73.4542 223.652 73.241C223.37 72.9918 223.038 72.8042 222.678 72.6904C222.206 72.5308 221.708 72.4582 221.21 72.4763C220.758 72.4475 220.305 72.5144 219.881 72.6727C219.457 72.8309 219.073 73.0768 218.753 73.3939C218.167 74.0366 217.837 74.8684 217.825 75.7339H217.841ZM201.522 81.8516C201.585 81.8495 201.648 81.8606 201.707 81.8844C201.765 81.9081 201.818 81.9438 201.862 81.9892C201.911 82.0303 201.951 82.0819 201.977 82.1401C202.004 82.1984 202.017 82.2618 202.016 82.3257V82.9681C202.019 83.0322 202.006 83.096 201.979 83.1544C201.952 83.2128 201.912 83.2642 201.862 83.3045C201.821 83.3544 201.769 83.3942 201.71 83.4208C201.651 83.4473 201.586 83.4599 201.522 83.4575H194.227C194.163 83.4587 194.099 83.4457 194.04 83.4192C193.981 83.3927 193.929 83.3535 193.887 83.3045C193.842 83.2614 193.805 83.209 193.781 83.151C193.758 83.0931 193.746 83.0307 193.748 82.9681V71.4363C193.747 71.3056 193.797 71.1796 193.887 71.0845C193.932 71.0406 193.985 71.0058 194.044 70.9822C194.102 70.9586 194.164 70.9466 194.227 70.9469H201.383C201.446 70.9466 201.508 70.9586 201.566 70.9822C201.625 71.0058 201.678 71.0406 201.723 71.0845C201.813 71.1796 201.863 71.3056 201.862 71.4363V72.0786C201.862 72.141 201.85 72.2029 201.826 72.2606C201.802 72.3183 201.767 72.3708 201.723 72.4151C201.678 72.4591 201.625 72.4939 201.566 72.5175C201.508 72.5411 201.446 72.5531 201.383 72.5528H195.464V76.4069H200.981C201.044 76.4048 201.107 76.4159 201.166 76.4397C201.224 76.4634 201.277 76.4991 201.321 76.5445C201.415 76.6324 201.47 76.7532 201.475 76.881V77.5234C201.475 77.587 201.46 77.6497 201.434 77.7077C201.407 77.7656 201.369 77.8174 201.321 77.8598C201.28 77.9097 201.228 77.9495 201.169 77.976C201.11 78.0026 201.046 78.0152 200.981 78.0128H195.464V81.9281L201.522 81.8516ZM187.335 75.8716C187.318 75.451 187.246 75.0345 187.119 74.6328C186.999 74.2415 186.793 73.8811 186.516 73.5775C186.217 73.25 185.847 72.9938 185.434 72.8281C184.912 72.6309 184.355 72.5374 183.796 72.5528H180.953V81.8516H183.873C184.433 81.8699 184.99 81.7762 185.511 81.5763C185.917 81.4046 186.28 81.1491 186.578 80.8269C186.841 80.5206 187.031 80.16 187.134 79.7716C187.255 79.3637 187.322 78.9423 187.335 78.5175V77.8139C187.335 77.6151 187.335 77.401 187.335 77.2175C187.335 77.0339 187.335 76.8045 187.335 76.6057V75.8716ZM189.05 75.8716C189.05 76.4069 189.05 76.8657 189.05 77.2787C189.05 77.6916 189.05 78.1504 189.05 78.6857C189.042 79.3823 188.906 80.0716 188.649 80.7198C188.405 81.2938 188.047 81.8137 187.598 82.2493C187.154 82.6665 186.628 82.9892 186.052 83.1975C185.399 83.4328 184.708 83.5468 184.012 83.534H179.778C179.713 83.5364 179.649 83.5238 179.59 83.4972C179.531 83.4707 179.479 83.4309 179.438 83.381C179.388 83.3407 179.348 83.2892 179.321 83.2308C179.294 83.1724 179.281 83.1086 179.284 83.0445V71.5128C179.282 71.4466 179.295 71.3808 179.322 71.3201C179.349 71.2594 179.388 71.2051 179.438 71.161C179.482 71.1156 179.535 71.0798 179.593 71.0561C179.652 71.0324 179.715 71.0212 179.778 71.0233H183.904C184.609 71.0132 185.31 71.1271 185.975 71.3598C186.581 71.5607 187.139 71.8836 187.613 72.3081C188.07 72.7406 188.433 73.261 188.68 73.8375C188.951 74.4668 189.098 75.1417 189.112 75.8257L189.05 75.8716ZM163.907 81.3622C164.036 81.3672 164.158 81.4221 164.247 81.5151C164.293 81.5583 164.329 81.6106 164.353 81.6686C164.377 81.7266 164.388 81.789 164.386 81.8516V83.0445C164.388 83.1072 164.377 83.1695 164.353 83.2275C164.329 83.2855 164.293 83.3378 164.247 83.381C164.206 83.43 164.153 83.4692 164.095 83.4956C164.036 83.5221 163.972 83.5352 163.907 83.534H162.686C162.622 83.5352 162.558 83.5221 162.499 83.4956C162.44 83.4692 162.388 83.43 162.346 83.381C162.3 83.3378 162.264 83.2855 162.24 83.2275C162.216 83.1695 162.205 83.1072 162.207 83.0445V81.8516C162.205 81.789 162.216 81.7266 162.24 81.6686C162.264 81.6106 162.3 81.5583 162.346 81.5151C162.435 81.4221 162.557 81.3672 162.686 81.3622H163.907ZM150.339 79.0986H155.346L152.842 72.721L150.339 79.0986ZM155.964 80.7045H149.782L148.84 83.0904C148.796 83.2014 148.728 83.3009 148.639 83.381C148.5 83.4931 148.323 83.5479 148.144 83.534H147.387C147.277 83.5301 147.173 83.4866 147.093 83.4116C147.057 83.3756 147.029 83.3326 147.01 83.2852C146.991 83.2378 146.983 83.1871 146.985 83.1363C146.964 83.056 146.964 82.9719 146.985 82.8916L151.405 71.6198C151.466 71.4721 151.556 71.3372 151.668 71.2222C151.738 71.1527 151.823 71.0989 151.916 71.0646C152.01 71.0303 152.109 71.0162 152.209 71.0233H153.29C153.39 71.013 153.49 71.0255 153.584 71.06C153.678 71.0945 153.763 71.15 153.831 71.2222C153.948 71.3368 154.042 71.4716 154.109 71.6198L158.514 82.8916C158.554 82.9679 158.58 83.0508 158.591 83.1363C158.59 83.1881 158.579 83.2392 158.558 83.2865C158.536 83.3338 158.506 83.3764 158.467 83.4116C158.432 83.4496 158.389 83.48 158.341 83.501C158.293 83.5221 158.241 83.5333 158.189 83.534H157.525C157.341 83.5503 157.158 83.4955 157.015 83.381C156.93 83.297 156.862 83.1985 156.814 83.0904L155.964 80.7045ZM142.998 81.3622C143.062 81.363 143.126 81.3769 143.184 81.4033C143.243 81.4296 143.295 81.4677 143.338 81.5151C143.388 81.5555 143.429 81.6069 143.455 81.6653C143.482 81.7237 143.495 81.7875 143.493 81.8516V83.0445C143.495 83.1086 143.482 83.1724 143.455 83.2308C143.429 83.2892 143.388 83.3407 143.338 83.381C143.297 83.4309 143.245 83.4707 143.186 83.4972C143.127 83.5238 143.063 83.5364 142.998 83.534H141.793C141.728 83.5364 141.663 83.5238 141.604 83.4972C141.545 83.4707 141.493 83.4309 141.453 83.381C141.407 83.3378 141.371 83.2855 141.347 83.2275C141.323 83.1695 141.311 83.1072 141.314 83.0445V81.8516C141.311 81.789 141.323 81.7266 141.347 81.6686C141.371 81.6106 141.407 81.5583 141.453 81.5151C141.496 81.4677 141.548 81.4296 141.606 81.4033C141.665 81.3769 141.728 81.363 141.793 81.3622H142.998ZM132.366 70.8398C133.027 70.8297 133.683 70.9493 134.298 71.1916C134.821 71.3825 135.308 71.6619 135.735 72.0175C136.096 72.3121 136.4 72.6698 136.631 73.0728C136.814 73.3811 136.925 73.726 136.956 74.0822C136.958 74.133 136.949 74.1837 136.931 74.2311C136.912 74.2785 136.884 74.3215 136.847 74.3575C136.768 74.4325 136.664 74.476 136.554 74.4798H135.812C135.704 74.4838 135.597 74.4573 135.503 74.4034C135.387 74.3262 135.3 74.2133 135.256 74.0822C135.165 73.9211 135.062 73.7677 134.947 73.6233C134.793 73.4154 134.605 73.2345 134.39 73.0881C134.13 72.9008 133.844 72.7514 133.54 72.6445C133.163 72.5155 132.765 72.4534 132.366 72.461C132.038 72.4571 131.711 72.4931 131.392 72.5681C131.103 72.6442 130.827 72.7628 130.573 72.9198C130.342 73.0697 130.147 73.2681 130.001 73.501C129.849 73.7436 129.773 74.026 129.785 74.3116C129.774 74.5854 129.844 74.8565 129.986 75.0916C130.159 75.3337 130.386 75.5327 130.65 75.6728C131.02 75.8796 131.415 76.0389 131.825 76.1469C132.289 76.2998 132.86 76.4528 133.54 76.6363C134.136 76.7857 134.72 76.98 135.287 77.2175C135.708 77.4038 136.098 77.6512 136.446 77.9516C136.737 78.1979 136.961 78.5138 137.095 78.8692C137.242 79.25 137.315 79.6546 137.311 80.0622C137.32 80.593 137.198 81.1181 136.956 81.5916C136.719 82.0437 136.38 82.4361 135.967 82.7387C135.501 83.0784 134.978 83.3323 134.421 83.4881C133.773 83.6725 133.102 83.7601 132.428 83.7481C131.772 83.7569 131.119 83.6588 130.496 83.4575C129.942 83.2736 129.421 83.0053 128.951 82.6622C128.55 82.3722 128.209 82.0088 127.946 81.5916C127.71 81.2473 127.577 80.8447 127.56 80.4293C127.557 80.3785 127.566 80.3278 127.585 80.2804C127.603 80.233 127.632 80.1899 127.668 80.1539C127.703 80.116 127.746 80.0856 127.794 80.0645C127.842 80.0435 127.894 80.0323 127.946 80.0316H128.688C128.801 80.0312 128.912 80.0575 129.012 80.1081C129.127 80.1831 129.21 80.2975 129.244 80.4293C129.336 80.6251 129.45 80.8098 129.584 80.9798C129.755 81.1935 129.958 81.3793 130.187 81.5304C130.475 81.7173 130.787 81.8664 131.114 81.974C131.531 82.0916 131.963 82.1482 132.397 82.1422C132.798 82.1444 133.197 82.0981 133.587 82.0045C133.944 81.9267 134.284 81.7869 134.591 81.5916C134.865 81.4267 135.101 81.2081 135.287 80.9492C135.45 80.6987 135.536 80.4063 135.534 80.1081C135.54 79.8159 135.436 79.5319 135.24 79.3128C135.007 79.0653 134.729 78.863 134.421 78.7163C133.994 78.5149 133.549 78.3511 133.092 78.2269L131.315 77.7528C130.779 77.6261 130.26 77.4361 129.77 77.1869C129.42 76.9776 129.107 76.7143 128.842 76.4069C128.586 76.1341 128.392 75.811 128.271 75.4587C128.158 75.0917 128.101 74.7104 128.101 74.3269C128.103 73.8858 128.192 73.4494 128.363 73.0422C128.554 72.6211 128.827 72.2416 129.167 71.9257C129.561 71.5875 130.018 71.3278 130.511 71.161C131.097 70.9314 131.72 70.8071 132.35 70.7939L132.366 70.8398Z" fill="white"/>
<path d="M45.1289 65.1658C45.1289 67.0776 46.4271 67.7047 47.7097 67.1388C49.3422 66.2115 50.8439 65.075 52.1759 63.7588L55.9157 67.4752C52.9193 70.4439 49.2465 72.6573 45.2062 73.9294C41.4818 74.9082 39.8283 73.1952 39.8283 68.3776V33.2011H51.1405C53.5513 33.2011 55.7766 33.8893 55.7766 35.8317V38.447H45.1753L45.1289 65.1658ZM34.574 33.1858H23.2618C20.851 33.1858 18.6256 33.8741 18.6256 35.8164V38.4317H29.2269V65.1658C29.2269 67.0776 27.9288 67.7047 26.6462 67.1388C25.0136 66.2115 23.512 65.075 22.18 63.7588L18.4402 67.4752C21.4703 70.4583 25.1803 72.677 29.2579 73.9446C32.9359 74.8929 34.5585 73.1646 34.5585 68.3776V33.2011L34.574 33.1858ZM30.6178 79.7258C24.598 78.4574 19.0793 75.4875 14.7313 71.1764L10.9915 74.8929C14.4446 78.2986 18.5424 80.9971 23.0503 82.8341C27.5582 84.6711 32.3878 85.6106 37.2629 85.5988C42.1389 85.6164 46.9703 84.6797 51.479 82.8423C55.9877 81.005 60.0848 78.3033 63.5344 74.8929L59.7946 71.1764C55.4319 75.5007 49.8894 78.4718 43.8463 79.7258C39.921 80.9494 38.2056 81.7905 37.2475 84.1152C36.2739 81.7905 34.5585 80.9494 30.6332 79.7258H30.6178ZM18.672 22.6941V27.9399H55.7612V22.6941H18.672ZM34.574 8.80699C34.5781 8.11197 34.8599 7.4468 35.3579 6.95677C35.856 6.46674 36.5297 6.19168 37.232 6.19169C37.9316 6.1957 38.6014 6.47254 39.0962 6.96213C39.5909 7.45173 39.8706 8.11461 39.8746 8.80699C39.8746 9.50203 39.5967 10.1688 39.1016 10.6617C38.6064 11.1546 37.9343 11.4335 37.232 11.4376C36.5271 11.4376 35.851 11.1604 35.3525 10.6671C34.854 10.1738 34.574 9.50467 34.574 8.80699ZM45.1753 8.80699C45.1753 6.72208 44.3384 4.72255 42.8488 3.24829C41.3591 1.77403 39.3387 0.945816 37.232 0.945816C36.1876 0.943805 35.153 1.14565 34.1875 1.53981C33.222 1.93397 32.3445 2.5127 31.6053 3.24287C30.8661 3.97305 30.2796 4.84034 29.8794 5.7951C29.4793 6.74986 29.2733 7.77336 29.2733 8.80699C29.2713 9.84191 29.4757 10.867 29.875 11.8236C30.2742 12.7801 30.8604 13.6492 31.5998 14.381C32.3393 15.1128 33.2174 15.6929 34.1839 16.088C35.1505 16.4831 36.1863 16.6855 37.232 16.6835C39.3334 16.6713 41.3442 15.8356 42.8243 14.3594C44.3044 12.8831 45.1331 10.8866 45.1289 8.80699H45.1753Z" fill="white"/>
<path d="M5.36629 43.6778V48.8778C5.36615 54.4034 6.83728 59.8315 9.63153 64.6154L14.2677 62.0001C11.9416 58.0105 10.7209 53.4839 10.7288 48.8778V43.6319H16.0294L10.7288 38.386L8.08615 35.7707L5.42809 38.386L0.127441 43.6319L5.36629 43.6778ZM47.7715 17.4483V12.1719H68.9742V35.786H74.2749L68.9742 41.0319L66.3161 43.6472L63.6735 41.0319L58.3729 35.786H63.6735V17.4331L47.7715 17.4483Z" fill="white"/>
<path d="M10.6671 33.186H5.36646V12.1719H26.5691V17.4177H10.6671V33.1554V33.186ZM60.1193 62.0154L64.7555 64.6307C67.5415 59.8394 69.0021 54.4058 68.9898 48.8778V46.2625H63.6892V48.8778C63.7005 53.5008 62.4741 58.0444 60.1348 62.046L60.1193 62.0154Z" fill="white"/>
</g>
<defs>
<clipPath id="clip0_114_737">
<rect width="284.149" height="84.6988" fill="white" transform="translate(0.0656738 0.945801)"/>
</clipPath>
</defs>
</svg>
